<?xml version="1.0" encoding="utf-8"?>
<!-- Generator: Adobe Illustrator 26.5.0, SVG Export Plug-In . SVG Version: 6.00 Build 0)  -->
<svg version="1.1" id="Layer_1" xmlns="http://www.w3.org/2000/svg" xmlns:xlink="http://www.w3.org/1999/xlink" x="0px" y="0px"
	 viewBox="0 0 374.2 74.3" style="enable-background:new 0 0 374.2 74.3;" xml:space="preserve">
<style type="text/css">
	.st0{clip-path:url(#SVGID_00000104704172089658148290000011074756058836832918_);}
	.st1{fill:#FF4F28;}
	.st2{clip-path:url(#SVGID_00000037694741011703869850000009248114619417117061_);}
	.st3{fill:#31235C;}
</style>
<g>
	<defs>
		<rect id="SVGID_1_" x="0.7" y="0.9" width="74.3" height="73.3"/>
	</defs>
	<clipPath id="SVGID_00000060717212694942404840000000111403561351892411_">
		<use xlink:href="#SVGID_1_"  style="overflow:visible;"/>
	</clipPath>
	<g style="clip-path:url(#SVGID_00000060717212694942404840000000111403561351892411_);">
		<path class="st1" d="M73.3,24.2c0-0.1-0.1-0.2-0.2-0.2c-1.1-1.4-3-2.2-4.7-2c-1.9,0.2-3.4,1.2-4.2,1.7c0,0-4.8,3.4-12.5,6.6
			c-1.3,0.6-1.5,0.3-1.6,0.3c0-0.1-0.1-0.2,0-0.3c1-3.3,2-6.6,2.6-10c0.8-3.8,1.2-7.5,1.4-11.4c0.1-1.9,0.1-4-0.9-5.6
			c-1.6-2.6-5.7-3-7.8-0.9c-1.3,1.3-1.8,3.3-2.2,5.1c-0.5,2.4-1,4.7-1.4,7.1c-0.2,1.2-0.4,2.4-0.5,3.6c-0.2,1.6-0.3,2.6-0.7,2.7
			c-0.2,0-0.4,0-0.9-0.8c-0.5-0.8-0.9-1.5-1.4-2.3c-0.9-1.4-1.7-2.8-2.7-4.1c-1.9-2.7-3.9-5.3-6.1-7.8c-1.3-1.5-2.8-2.9-4.6-3.6
			C23.4,1.9,21.6,2,20.4,3C19,4,17.8,4.9,18,6.7c0.1,1.2,0.6,2.3,1.2,3.3c1,1.9,2.1,3.8,3.3,5.6c0,0,0.8,1.1,2.2,3.2
			c1.1,1.5,1.9,2.8,1.8,3c-0.1,0.1-0.2-0.2-0.8-0.5c-0.5-0.2-1-0.5-1.5-0.7c-1-0.4-2-0.8-3.1-1.1c-2.1-0.7-4.2-1.2-6.3-1.7
			c-1.3-0.3-2.6-0.5-3.9-0.7c-1.6-0.2-3.2-0.3-4.7,0.2c-1.7,0.7-3,2.3-3.2,4.1c-0.2,1.8,0.5,3.7,1.9,4.8c1.1,0.9,2.6,1.3,3.9,1.6
			c4.8,1.3,9.4,2.9,13.9,4.9c-0.4-0.2-2.1,0.7-2.5,0.9c-0.9,0.3-1.8,0.7-2.7,1.1c-1.8,0.7-3.6,1.6-5.3,2.5c-3.2,1.7-7.1,3.6-9.5,6.4
			c-1.8,2.1-2.1,5.1-0.3,7.3c1.2,1.4,3.1,2.1,4.9,1.9c1.6-0.2,3-1.2,4.3-2c3.5-2.2,7.1-3.9,11-5.4c1.3-0.5,2.5-1.4,2.9-1
			c0.5,0.4-0.3,1.9-0.6,2.5c-3.4,7.1-3.9,16.3-4,17.2c-0.3,2.6-0.3,5.6,1.4,7.6c2.2,2.6,6.9,2.2,8.6-0.8c0.7-1.2,0.9-2.7,1.1-4.2
			c0.6-4.5,1.2-6.8,1.2-6.8c0.9-5.7,1.2-6.6,1.6-6.7c0.5,0,0.7,0.9,2.3,3.8c0.4,0.8,1.3,2.3,2.5,4.2c1.7,2.7,3.6,5.2,5.8,7.6
			c1.4,1.6,3,3.2,5.1,3.6c3,0.5,6.2-2.3,6-5.4c-0.1-1.2-0.4-2.1-1.3-3.6c-1.8-3.1-6.7-9.6-6.8-10.3c0,0,0,0,0,0
			c0.1-0.3,3.7,1.3,7.8,2.6c0.9,0.3,4.1,1.1,8.3,1.8c1.6,0.2,3.3,0.4,4.8-0.1c3-1.1,4.2-5.4,2.2-7.9c-1-1.3-2.3-2-4.4-2.7
			c-9-3-13.5-3.4-13.6-4.5c-0.1-0.8,2.5-1.2,8.3-3.9c0.3-0.2,3.9-2,8.3-4.9c1.8-1.2,3.6-2.6,4.3-4.6C74.6,27.5,74.3,25.6,73.3,24.2z
			"/>
	</g>
</g>
<g>
	<defs>
		<rect id="SVGID_00000176033093685348922040000017883824702082228150_" y="0.3" width="75" height="73.9"/>
	</defs>
	<clipPath id="SVGID_00000098216200283410495730000016670571179905036452_">
		<use xlink:href="#SVGID_00000176033093685348922040000017883824702082228150_"  style="overflow:visible;"/>
	</clipPath>
	<g style="clip-path:url(#SVGID_00000098216200283410495730000016670571179905036452_);">
		<path class="st1" d="M26.1,73.9c-1.7,0-3.3-0.7-4.3-1.8c-1.8-2.2-1.8-5.2-1.5-7.9c0-0.1,0-0.1,0-0.3c0.5-6.7,2-12.7,4-17l0.1-0.1
			c0.7-1.4,0.7-1.8,0.6-1.9c-0.2,0-0.8,0.3-1.2,0.5c-0.4,0.2-0.9,0.4-1.3,0.6c-3.8,1.4-7.5,3.2-10.9,5.3l-0.3,0.2
			c-1.3,0.8-2.6,1.6-4.2,1.9c-1.9,0.3-4-0.5-5.3-2C0,49,0.2,45.8,2.2,43.4c2.4-2.7,6-4.6,9.2-6.3l0.4-0.2c1.8-0.9,3.6-1.7,5.4-2.5
			c1-0.4,1.9-0.7,2.8-1.1c0.1,0,0.3-0.1,0.5-0.2c0.3-0.1,0.6-0.3,0.8-0.4c-4.1-1.7-8.4-3.2-12.7-4.4c-1.3-0.4-2.9-0.8-4.1-1.7
			c-1.5-1.2-2.4-3.3-2.1-5.2c0.3-1.9,1.7-3.7,3.5-4.4c1.6-0.6,3.4-0.5,4.9-0.3c1.3,0.2,2.7,0.4,4,0.7c2.2,0.5,4.3,1,6.4,1.7
			c1,0.3,2.1,0.7,3.1,1.1c0.4,0.2,0.7,0.3,1.1,0.5c-0.4-0.6-0.8-1.2-1.1-1.7c-0.8-1.1-1.3-2-1.7-2.5C22.1,16,22,15.9,22,15.9
			c-1.2-1.8-2.3-3.7-3.3-5.6c-0.6-1.2-1.1-2.3-1.2-3.5c-0.2-2.1,1.2-3.1,2.6-4.1c1.3-1,3.2-1.2,4.9-0.6c2,0.7,3.5,2.3,4.8,3.7
			c2.2,2.5,4.3,5.1,6.2,7.8c0.9,1.3,1.8,2.7,2.7,4.2c0.3,0.5,0.7,1.1,1,1.7c0.1,0.2,0.3,0.4,0.4,0.7c0.2,0.3,0.3,0.5,0.4,0.5
			c0.1-0.3,0.2-1.1,0.3-1.8l0-0.5c0.2-1.5,0.4-2.6,0.5-3.6c0.4-2.2,0.9-4.6,1.4-7.1c0.4-2,1-3.9,2.3-5.3c1.1-1.1,2.8-1.6,4.5-1.4
			c1.7,0.2,3.2,1.1,4,2.4c1.1,1.8,1.1,3.9,1,5.9c-0.2,3.8-0.7,7.7-1.4,11.4c-0.5,2.9-1.4,5.7-2.2,8.4c-0.1,0.5-0.3,1-0.4,1.4
			c0.2,0,0.5-0.1,1-0.3c7.6-3.2,12.4-6.5,12.4-6.6c0.9-0.7,2.4-1.6,4.4-1.8c1.9-0.2,3.9,0.6,5.1,2.1l0,0.1c0,0,0,0.1,0.1,0.1
			c0,0,0.1,0.1,0.1,0.2c1,1.5,1.3,3.5,0.7,5.2c-0.8,2.2-2.7,3.6-4.5,4.8c-4.4,2.9-8,4.7-8.3,4.9c-2.5,1.2-4.4,1.9-5.8,2.4
			c-1.1,0.4-2.2,0.8-2.3,1.1c0.1,0.4,2.2,0.9,4.3,1.5c2.2,0.6,5.2,1.4,9.1,2.7c2.4,0.8,3.6,1.5,4.6,2.8c1,1.3,1.3,3.1,0.8,4.8
			c-0.5,1.8-1.7,3.1-3.2,3.7c-1.6,0.6-3.4,0.4-5,0.1c-4.4-0.7-7.6-1.5-8.3-1.8c-1.8-0.6-3.6-1.2-5-1.7c-0.7-0.3-1.4-0.5-2-0.7
			c0.5,0.8,1.5,2.2,2.4,3.5c1.5,2.1,3.2,4.5,4.1,6.1c0.9,1.6,1.2,2.5,1.3,3.8c0.1,1.6-0.6,3.2-1.9,4.4c-1.3,1.2-3,1.7-4.6,1.4
			c-2.2-0.4-3.8-2-5.3-3.7c-2.1-2.4-4.1-5-5.8-7.7c-1.2-1.9-2.1-3.4-2.5-4.2c-0.6-1-1-1.8-1.3-2.4c-0.2-0.5-0.5-0.9-0.6-1.1
			c-0.3,0.6-0.7,3-1.3,6.3v0c0,0-0.6,2.3-1.2,6.7l0,0.2c-0.2,1.4-0.4,2.9-1.1,4.1c-0.9,1.5-2.5,2.5-4.4,2.7
			C26.5,73.9,26.3,73.9,26.1,73.9z M25,44c0.2,0,0.4,0.1,0.6,0.2c0.6,0.6,0.1,1.8-0.4,2.9l-0.1,0.1c-2,4.2-3.4,10.2-3.9,16.7
			c0,0.1,0,0.2,0,0.3c-0.2,2.5-0.3,5.4,1.3,7.3c0.9,1.1,2.5,1.7,4.1,1.5c1.6-0.2,3.1-1,3.8-2.2c0.7-1.1,0.8-2.5,1-3.8l0-0.2
			c0.6-4.3,1.2-6.5,1.2-6.8c0.5-2.7,0.8-4.5,1-5.4c0.2-0.8,0.4-1.5,1-1.5c0.6-0.1,0.8,0.4,1.4,1.7c0.3,0.6,0.7,1.4,1.2,2.4
			c0.4,0.8,1.2,2.3,2.5,4.1c1.7,2.7,3.6,5.2,5.7,7.6c1.4,1.6,2.9,3.1,4.8,3.4c1.3,0.2,2.7-0.2,3.9-1.2c1.1-1,1.7-2.4,1.6-3.7
			c-0.1-1.2-0.4-2-1.2-3.4c-0.9-1.6-2.6-3.9-4-6.1c-1.9-2.8-2.8-4-2.8-4.4l0-0.1v-0.2l0-0.1c0.2-0.5,0.8-0.3,1.3-0.1
			c0.5,0.2,1.2,0.4,2,0.7c1.4,0.5,3.1,1.1,4.9,1.7c1,0.3,4.2,1.1,8.2,1.8c1.4,0.2,3.1,0.4,4.5-0.1c1.3-0.5,2.3-1.7,2.7-3.2
			c0.4-1.5,0.2-3-0.7-4.1c-0.9-1.2-2-1.8-4.2-2.6c-3.8-1.3-6.8-2-9-2.6c-3.4-0.9-4.8-1.3-4.9-2.2c-0.1-0.8,0.8-1.1,2.9-1.9
			c1.4-0.5,3.2-1.2,5.7-2.4c0.3-0.2,3.9-2,8.2-4.8c1.7-1.1,3.5-2.4,4.2-4.4c0.5-1.5,0.3-3.2-0.6-4.5l0,0c0,0,0-0.1,0-0.1
			c0,0-0.1-0.1-0.1-0.1c-1-1.3-2.7-2-4.3-1.8c-1.8,0.2-3.1,1-4,1.6c-0.1,0-4.9,3.4-12.6,6.7c-1.2,0.5-1.8,0.5-2.1,0.1
			c-0.1-0.2-0.2-0.4-0.1-0.7c0.2-0.5,0.3-1.1,0.5-1.6c0.8-2.7,1.6-5.5,2.1-8.4c0.8-3.7,1.2-7.5,1.4-11.3c0.1-1.8,0.1-3.8-0.9-5.4
			c-0.7-1.1-1.9-1.8-3.4-2c-1.4-0.2-2.9,0.3-3.8,1.2c-1.2,1.2-1.7,3-2.1,4.9c-0.5,2.5-1,4.8-1.4,7.1c-0.2,1-0.4,2.1-0.5,3.6
			l-0.1,0.5c-0.2,1.6-0.3,2.5-1,2.6c-0.6,0.1-1-0.5-1.3-1c-0.1-0.2-0.3-0.4-0.4-0.7c-0.3-0.5-0.6-1.1-1-1.6
			c-0.9-1.5-1.8-2.8-2.7-4.1c-1.8-2.7-3.9-5.3-6.1-7.7C28,5,26.5,3.5,24.7,2.9c-1.5-0.5-3.1-0.4-4.1,0.5c-1.3,1-2.3,1.7-2.2,3.4
			c0.1,1.1,0.6,2.1,1.1,3.2c1,1.9,2.1,3.7,3.2,5.5l0,0c0.1,0.1,0.2,0.3,0.5,0.7c0.4,0.5,0.9,1.4,1.7,2.5c0.5,0.8,1,1.5,1.4,2
			c0.4,0.7,0.7,1.2,0.3,1.5c-0.3,0.2-0.6,0-0.7-0.1c-0.1-0.1-0.3-0.2-0.5-0.3l-0.2-0.1c-0.4-0.2-0.8-0.4-1.2-0.6c-1-0.4-2-0.8-3-1.1
			c-2-0.7-4.1-1.2-6.3-1.7c-1.3-0.3-2.6-0.5-3.9-0.7c-1.4-0.2-3.1-0.3-4.5,0.2c-1.5,0.6-2.7,2.1-3,3.7C3,23.3,3.8,25,5.1,26.1
			c1.1,0.8,2.4,1.2,3.8,1.5c4.8,1.3,9.5,3,14,4.9C23,32.7,23,32.9,23,33c-0.1,0.2-0.3,0.3-0.5,0.3l0,0c-0.3,0-1.3,0.4-1.7,0.6
			c-0.2,0.1-0.5,0.2-0.6,0.2c-0.9,0.3-1.8,0.7-2.7,1.1c-1.8,0.7-3.5,1.5-5.3,2.4l-0.4,0.2c-3.2,1.6-6.7,3.4-9,6.1
			C1,46,0.9,48.8,2.5,50.7c1.1,1.3,2.9,2,4.5,1.7c1.4-0.2,2.7-1,3.9-1.8l0.3-0.2c3.5-2.2,7.2-4,11-5.4c0.4-0.2,0.8-0.4,1.2-0.6
			C24,44.2,24.6,44,25,44z"/>
	</g>
</g>
<g>
	<g transform="translate(104.733785, 202.381956)">
		<g>
			<path class="st3" d="M35.7-146.4l2.4,2.2c-7.4,9.7-16.4,14.5-26.9,14.5c-6.8,0-12.6-2.2-17.3-6.6c-2.3-2.1-4.1-4.8-5.4-8.1
				c-1.3-3.3-2-7.1-2-11.3c0-4.3,0.8-8.7,2.4-13.3c1.6-4.6,3.8-8.9,6.7-12.8c2.8-3.9,6.1-7.4,9.8-10.5c3.7-3.1,7.7-5.5,12.1-7.3
				c4.4-1.8,9.1-2.7,13.9-2.7s9.1,1.6,12.6,4.7c3.6,3.1,5.4,7.4,5.4,13c0,3.3-0.8,6.8-2.3,10.4c-1.5,3.7-3.5,7-5.9,9.9
				c-2.4,3-5.2,5.4-8.5,7.3c-3.3,1.9-6.5,2.9-9.8,2.9c-3.2,0-5.8-1-7.7-3.1c-1.9-2.1-2.8-4.5-2.8-7.3c0-4.8,2-9.4,6-13.9
				c4-4.5,9.1-7.8,15.3-9.9l1.1,2.6c-3.2,1-6.1,2.8-8.9,5.2c-2.8,2.5-4.9,5.1-6.5,7.9c-1.6,2.8-2.3,5.2-2.3,7.3
				c0,4.3,2.4,6.4,7.2,6.4c3.3,0,6.7-1.5,10-4.4c3.4-2.9,6-6.4,8.1-10.4c2-4,3-7.8,3-11.5c0-3.7-1.2-6.7-3.7-9
				c-2.5-2.3-5.8-3.5-9.9-3.5s-8.4,1.2-12.7,3.7c-4.3,2.5-8.2,5.7-11.6,9.6c-3.3,3.9-6.1,8.4-8.2,13.4C-3-165.9-4-160.9-4-156
				c0,7.9,2.6,13.7,7.9,17.4c3.1,2.2,6.6,3.2,10.5,3.2c3.9,0,7.8-0.9,11.6-2.9C29.7-140.2,33-142.9,35.7-146.4z"/>
		</g>
	</g>
</g>
<g>
	<g transform="translate(147.54123, 202.381956)">
		<g>
			<path class="st3" d="M-0.9-143.3c0-2.4,0.6-4.8,1.8-7.1c1.2-2.3,2.7-4.2,4.6-5.8c4.2-3.4,8.5-5.1,12.8-5.1
				c4.4,0,7.9,1.2,10.7,3.5c2.8,2.3,4.2,5.2,4.2,8.7c0,3.5-1,6.6-2.9,9.4c-1.9,2.8-4.4,4.9-7.6,6.5c-3.1,1.6-6.6,2.3-10.3,2.3
				c-3.7,0-6.9-1.2-9.5-3.5C0.4-136.7-0.9-139.7-0.9-143.3z M15.2-133.9c1.5,0,2.9-0.5,4.2-1.5c1.3-1,2.3-2.3,3-3.8
				c1.3-3,2-6.1,2-9.3c0-3.2-0.6-5.6-1.8-7.3c-1.2-1.7-2.8-2.5-5-2.5c-2.2,0-4.3,1.4-6.4,4.2c-2.1,2.8-3.2,6.4-3.2,10.7
				C8.1-137,10.5-133.9,15.2-133.9z"/>
		</g>
	</g>
</g>
<g>
	<g transform="translate(174.187239, 202.381956)">
		<g>
			<path class="st3" d="M46.8-160.2c-4.4,11.7-6.6,18.8-6.6,21.2c0,1,0.3,1.6,0.8,1.6c1.4,0,3.5-2.1,6.3-6.3l2.1,2
				c-1.7,3.1-3.8,5.7-6.2,7.8c-2.4,2-4.3,3.1-5.8,3.1c-3.1,0-4.6-1.5-4.6-4.6c0-2.4,0.6-5.3,1.7-8.7c1.1-3.4,1.7-5.2,1.7-5.2
				c-0.2,0.3-0.6,1-1.2,2c-0.6,1.1-1.1,1.8-1.4,2.4c-0.3,0.5-0.8,1.3-1.5,2.4c-0.7,1.1-1.2,1.9-1.7,2.5c-0.4,0.6-1,1.4-1.8,2.3
				c-0.7,0.9-1.4,1.7-2,2.2c-0.6,0.6-1.2,1.2-2,1.9c-0.8,0.7-1.5,1.2-2.2,1.5c-1.6,0.9-3.2,1.3-4.8,1.3c-3.9,0-5.8-2.1-5.8-6.4
				c0-2,0.7-5,2.1-9.1c1.4-4.1,2.1-6.6,2.1-7.3c0-0.7-0.2-1.1-0.7-1.1c-1.3,0-3.1,2.1-5.5,6.2l-3.2-1.9c4.5-7.2,8.8-10.8,13-10.8
				c1.4,0,2.5,0.4,3.3,1.2c0.8,0.8,1.2,1.9,1.1,3.5c0,1.6-0.8,4.4-2.4,8.5c-1.6,4.1-2.3,7.2-2.3,9.3c0,1.2,0.5,1.8,1.6,1.8
				c1.2,0,2.7-0.8,4.4-2.4c1.7-1.6,3.4-3.5,5-5.8c2.6-3.6,5.2-7.8,8-12.7l1.3-2.4H46.8z"/>
		</g>
	</g>
</g>
<g>
	<g transform="translate(205.287757, 202.381956)">
		<g>
			<path class="st3" d="M45.4-154.8c-1.2,0-2.7,0.8-4.4,2.4c-1.7,1.6-3.3,3.5-5,5.8c-2.5,3.7-5.1,7.9-7.8,12.7l-1.3,2.4H20
				c0,0,0.5-1.5,1.5-4.6c2.8-8.5,4.3-13.6,4.3-15.1c0-1.6-0.3-2.4-0.8-2.4c-0.9,0-2.1,1.1-3.4,3.4c-0.3,0.5-0.5,0.9-0.8,1.2
				c-0.2,0.3-0.4,0.7-0.7,1.1c-0.2,0.4-0.4,0.7-0.5,0.8l-3.3-1.9c2.6-4.2,4.9-7.2,7-9.2c2.1-2,4.3-3,6.5-3c1,0,1.9,0.4,2.6,1.3
				c0.7,0.8,1.1,1.9,1.1,3c0,1.2-0.1,2.2-0.2,3.1c-0.1,0.9-0.3,1.7-0.4,2.5c-0.2,0.8-0.4,1.7-0.7,2.7c-0.3,1-0.5,1.8-0.7,2.4
				c-0.2,0.6-0.4,1.3-0.7,2.2c-0.3,0.9-0.5,1.5-0.5,1.7c0.6-1.2,1.6-2.9,3-5.2c1.4-2.3,2.3-3.7,2.8-4.3c0.4-0.6,1-1.4,1.8-2.4
				c0.8-1,1.4-1.8,2-2.3c0.6-0.5,1.2-1.2,2-1.9c0.8-0.7,1.6-1.2,2.3-1.6c1.8-0.8,3.6-1.3,5.3-1.3c1.7,0,3.1,0.5,4.1,1.5
				c1,1,1.6,2.2,1.6,3.5c0,1.3-0.4,2.5-1.3,3.5c-0.8,1-1.8,1.5-2.9,1.5c-1.1,0-1.9-0.2-2.6-0.6s-1.1-0.8-1.3-1.2
				C46.5-154.2,45.9-154.8,45.4-154.8z"/>
		</g>
	</g>
</g>
<g>
	<g transform="translate(231.528798, 202.381956)">
		<g>
			<path class="st3" d="M31.8-131.9c-2.1-0.8-3.7-1.7-4.6-2.7c-0.9-1-1.4-2.2-1.4-3.4c0-1.2,0.3-2.3,1-3.1c0.7-0.8,1.6-1.2,2.7-1.2
				c1.1,0,2.1,0.3,3,1c0.9,0.7,1.3,1.6,1.3,2.8c0,1.2-0.8,2.2-2.2,3.1c1.2,1.1,3.1,1.6,5.7,1.6c5.5,0,8.3-1.6,8.3-4.7
				c0-2-1.8-3.5-5.2-4.7c-1.4-0.5-2.9-1-4.3-1.6c-1.5-0.6-2.7-1.4-3.8-2.4c-1.1-1.1-1.7-2.4-1.8-3.9c0-2.2,0.7-4.1,2.2-5.6
				c2.8-2.9,6.9-4.4,12.5-4.4c2.7,0,5.1,0.5,7.2,1.5c2.1,1,3.1,2.4,3.1,4c0,1.6-0.4,2.8-1.2,3.5c-0.8,0.7-1.8,1.1-2.9,1.1
				c-1.1,0-2.1-0.3-2.8-0.9c-0.8-0.6-1.1-1.5-1.1-2.5c0-1.1,0.6-2,1.9-2.8c-0.8-0.6-2.2-0.8-4.1-0.8c-1.9,0-3.7,0.3-5.2,0.9
				c-1.5,0.6-2.3,1.3-2.3,2.3c0,1,0.6,1.8,1.7,2.4c1.1,0.7,2.5,1.3,4.1,1.8c1.6,0.6,3.2,1.2,4.8,1.9c1.6,0.7,3,1.7,4.1,3.1
				c1.1,1.3,1.7,3,1.7,5c0,2-0.8,3.7-2.4,5.4c-3,3-7.2,4.6-12.5,4.6C36.4-130.8,33.9-131.2,31.8-131.9z"/>
		</g>
	</g>
</g>
<g>
	<g transform="translate(253.830726, 202.381956)">
		<g>
			<path class="st3" d="M43.6-141.3c0.2,3.8,2.8,5.6,7.6,5.6c1.8,0,3.7-0.5,5.6-1.5c2-1,3.5-2.3,4.8-3.7l2.1,1.4
				c-2.7,4.6-7,7.3-13,8.4c-1.3,0.2-2.6,0.3-3.8,0.3c-3.5,0-6.5-1.2-8.8-3.5c-2.3-2.3-3.5-5.2-3.5-8.6s1-6.5,3.1-9.4
				c2.1-2.9,4.6-5.1,7.7-6.6c3.1-1.6,6.1-2.4,9.1-2.4c3,0,5.6,0.7,7.8,2.1s3.3,3.2,3.4,5.5c0.1,2.3-0.6,4.3-2,6
				c-1.4,1.7-3.2,3-5.4,3.9c-4.3,1.7-8.5,2.6-12.6,2.6L43.6-141.3z M43.3-144c3.6-0.1,6.6-0.7,8.8-1.7c2.2-1,3.7-2.2,4.6-3.5
				c0.9-1.3,1.3-2.7,1.3-4.2c0-1.5-0.4-2.5-1.1-3.2c-0.8-0.7-1.6-1.1-2.4-1.1c-2.1,0-4,0.7-5.8,2.2c-1.8,1.4-3.1,3.2-4,5.3
				C43.8-148.2,43.3-146.1,43.3-144z"/>
		</g>
	</g>
</g>
<g>
	<g transform="translate(277.93655, 202.381956)">
		<g>
			<path class="st3" d="M49.3-160.2c3.4-10.5,6.8-19.2,10.3-26.3l6.1,0.5c-0.4,1-1.2,3.6-2.6,7.5c-3,8.8-5,14.9-5.9,18.3h7.7
				l-0.8,3.2h-8c-3,9.3-4.5,14.9-4.5,17c0,2,0.2,3,0.6,3c0.4,0,0.8-0.1,1.1-0.2c0.9-0.5,2.8-2.9,5.7-7.2l2,1.8
				c-2.2,4-4.4,6.9-6.8,8.9c-2.3,1.9-4.2,2.9-5.8,2.9c-1.5,0-2.6-0.5-3.4-1.6c-0.8-1.1-1.1-2.4-1.1-4c0-4.2,1.4-11,4.4-20.5h-5.1
				l0.8-3.2H49.3z"/>
		</g>
	</g>
</g>
<g>
	<g transform="translate(292.581127, 202.381956)">
		<g>
			<path class="st3" d="M47.5-143.3c0-2.4,0.6-4.8,1.8-7.1c1.2-2.3,2.7-4.2,4.6-5.8c4.2-3.4,8.5-5.1,12.8-5.1
				c4.4,0,7.9,1.2,10.7,3.5c2.8,2.3,4.2,5.2,4.2,8.7c0,3.5-1,6.6-2.9,9.4c-1.9,2.8-4.4,4.9-7.6,6.5c-3.1,1.6-6.6,2.3-10.3,2.3
				c-3.7,0-6.9-1.2-9.5-3.5C48.8-136.7,47.5-139.7,47.5-143.3z M63.5-133.9c1.5,0,2.9-0.5,4.2-1.5c1.3-1,2.3-2.3,3-3.8
				c1.3-3,2-6.1,2-9.3c0-3.2-0.6-5.6-1.8-7.3c-1.2-1.7-2.8-2.5-5-2.5c-2.2,0-4.3,1.4-6.4,4.2c-2.1,2.8-3.2,6.4-3.2,10.7
				C56.5-137,58.8-133.9,63.5-133.9z"/>
		</g>
	</g>
</g>
</svg>
