<?xml version="1.0" encoding="utf-8"?>
<!-- Generator: Adobe Illustrator 26.5.0, SVG Export Plug-In . SVG Version: 6.00 Build 0)  -->
<svg version="1.1" id="Layer_1" xmlns="http://www.w3.org/2000/svg" xmlns:xlink="http://www.w3.org/1999/xlink" x="0px" y="0px"
	 viewBox="0 0 1984.8 727.3" style="enable-background:new 0 0 1984.8 727.3;" xml:space="preserve">
<style type="text/css">
	.st0{fill:#9DC7EA;}
	.st1{fill:#FFFFFF;}
	.st2{fill:#D55257;}
	.st3{fill:#25A8E0;}
	.st4{fill:#D24E54;}
	.st5{fill:#EC6161;}
	.st6{fill:#1C2042;}
	.st7{fill:#FBD11D;}
	.st8{fill:#1C8BB4;}
	.st9{fill:#4195D1;}
	.st10{fill:#FFCC02;}
	.st11{fill:#FCCB98;}
	.st12{fill:#2E68B1;}
	.st13{fill:#F9DD60;}
	.st14{fill:#FBF8CD;}
	.st15{fill:#231F20;}
	.st16{fill:#283156;}
	.st17{fill:#DF5E67;}
	.st18{fill:#E4B921;}
	.st19{fill:#123B45;}
	.st20{fill:#26609E;}
	.st21{fill:#D04950;}
	.st22{fill:#1D4F60;}
	.st23{fill:#F9D33A;}
</style>
<g>
	<rect class="st0" width="1984.8" height="727.3"/>
	<path class="st1" d="M1984.8,508.4c-11.5,0.3-23,2.5-33.5,6.8c-29.3,12-49.2,39.3-48.9,67.2c-29.2-30.1-96-19.6-110.9,17.4
		c12.8-32.3-8-71.6-44.7-84.7c-36.7-13.1-83.8,2-101.6,32.5c2.9-19.8-39.3-27.2-45.6-7.9c-29.7-28-77.9-40.6-120.8-31.6
		c-42.9,9-78.9,39.2-90.2,75.9c-15.6-26.5-49.2-44.6-83.9-45.1c-34.7-0.5-68.9,16.6-85.5,42.7c-40.5-20.5-99-8.4-124.1,25.8
		c-36.3-60.3-141.7-78.9-202.8-35.8c-6.9-13.7-43.7-10.6-39,12.2c-19.7-33.5-62.9-55.8-106.6-55C703,529.4,661,553.3,643,587.5
		c-18.4-36.1-87.3-40.9-112.3-7.8c-9.9-33.1-73-40.2-92.5-10.4c-8-37.9-51.7-67.8-96.6-66c-44.9,1.8-85.1,35.1-88.9,73.5
		c-14.5-16.5-51.1-9.6-56.2,10.6c-24.4-29.5-77.4-38-112.6-18c-35.2,20-46.9,65.1-24.8,96C46.7,649.1,22.1,641,0,644.4v82.9h1984.8
		V508.4z"/>
	<g>
		<g>
			<path class="st2" d="M697.3,438c21.6-10.3,48.1,1.4,65.3,17.4c24.1,22.3,38.4,52.4,48.5,82.7c5,15.1,9.3,30.8,18.7,43.9
				c9.4,13.1,25.3,23.4,42,21.6c-6.4,9-18.6,12.2-29.9,13.6c-11.3,1.4-23.3,1.8-33.1,7.4c-13.7,7.8-21.4,24.8-37.1,27.6
				c-12.5,2.2-24.1-5.7-36.4-8.8c-23.3-5.8-46.9,6.6-70.5,11.3c-23.5-55.8-4.9-119.5-16.3-178.7c-1.7-9-4.1-18.4-1.1-27
				c2.9-8.5,11.3-15,20.6-16.3c9.3-1.2,19.2,2.9,24.5,10.3"/>
		</g>
		<g>
			<path class="st3" d="M699.2,425.4c0.9-0.3,2,0,2.8,0.6c0.7,0.6,1.2,1.5,1.3,2.5c-0.2-0.2-0.4-0.4-0.7-0.5
				c-0.9-0.3-1.9-0.6-2.6-1.3c-0.2-0.2-0.5-0.5-0.6-0.8c-0.1-0.2-0.3-0.4-0.4-0.6"/>
		</g>
		<g>
			<path class="st3" d="M699,425.8c0.5,0.6,0.9,1.2,1.1,1.9c0.3,0.8,0.4,1.7,0.1,2.5c-0.3,0.8-0.9,1.4-1,2.2
				c-0.1-1.3-1.1-2.3-1.4-3.6c-0.3-1.1,0.1-2.4,0.8-3.2"/>
		</g>
		<g>
			<path class="st4" d="M658.9,432.3c1,2.4,1.8,4.9,2.4,7.4c-2.5,1.9-6.3,5.4-9,4.7c0.9-4.4,3.5-8.5,6-12.3"/>
		</g>
		<g>
			<path class="st5" d="M652.6,427.3c-2,1.8-4.4,3.3-6.9,4.6c-0.4,0.2-0.7,0.3-1,0.7c-0.2,0.2-0.2,0.5-0.3,0.8
				c-0.4,2.1-0.9,4.1-1.3,6.2c-0.3,1.6-0.6,3.5,0.5,4.8c2.3-0.2,3.4,0.9,5.7,1.1c1.1,0.1,1.5-0.4,2.5-0.8c0.5-0.2,3.1-1,3.5-1.4
				c1.1-0.9,2.2-1.9,3.4-2.8c0.1-0.1,0.3-0.2,0.3-0.4c0.1-0.2,0.1-0.4,0.1-0.7c-0.2-2.5,0.1-4.9,0.6-7.4c0-0.2,0.1-0.3,0-0.5
				c-0.1-0.1-0.2-0.2-0.3-0.3C657.3,429.9,654.9,428.6,652.6,427.3"/>
		</g>
		<g>
			<path class="st5" d="M691.5,427.2c0.1,1.9,0.3,9.3-1.1,10.3c-0.8,0.6-1.9,0.7-2.9,0.8c-3.8,0.5-7.4,2-10.4,4.3
				c4.3,1.4,8.9,1.3,13.4,1.1c6-0.2,12-0.3,18-0.5c-1-1.7-3.2-2.3-5.2-2.9c-2.4-0.6-4.7-1.4-7-2.2c-0.7-0.3,0.1-9,0.3-11.9"/>
		</g>
		<g>
			<path class="st5" d="M699.9,419.3c0.4-1.1-0.2-2.5-1.3-3.1c-1.1-0.6-2.5-0.7-3.7-0.3c-3.1,1-4.5,4.4-5.6,7.3
				c-0.5,1.5-1,3.2-0.4,4.6c1,2.1,4.3,2.5,6.4,1.3c2.1-1.2,3.3-3.4,4.1-5.6c0.6-1.5,1.1-3.2,0.6-4.8"/>
		</g>
		<g>
			<path class="st5" d="M690.4,422.9c-0.2-0.5-0.9-0.7-1.4-0.4c-0.5,0.2-0.8,0.7-1,1.2c-0.1,0.2-0.1,0.5-0.1,0.7
				c0.1,0.7,1,1.1,1.7,1.3c0.1,0,0.3,0.1,0.4,0c0.2-0.1,0.2-0.3,0.2-0.5c0.1-0.8,0.1-1.7,0.2-2.5"/>
		</g>
		<g>
			<path class="st5" d="M697.3,425.7c0.5-0.6,1.6-0.3,2,0.4c0.5,0.8,0.2,2-0.7,2.5c-0.8,0.5-2.1,0.3-2.6-0.5
				c0.4-0.9,0.9-1.8,1.3-2.8"/>
		</g>
		<g>
			<path class="st6" d="M661.5,523.5c-17.6,15.1-38.1,28.7-50.7,48.6c-3.4,5.3,0.9,15.3,4,20.7c15.8,27.6,58.3,83,58.3,83
				c6.3-2,1.5-0.4,6-1.8c-5.4-62.9-24.1-89.7-24.1-89.7c3.6-7.3,29.8-26.3,36.4-32.9c9.3,15.6,27.6,43.2,30.6,46.8
				c2.1,2.5,42.6,50.1,56.1,71c0.5,0.7,4.2-1.3,4.9-0.9c2.4,1.2,6.3-1.6,7.9,0.6c-4.1-12.2-8.3-24.5-12.4-36.7
				c-4.9-14.4-9.8-29-18-42.1c-1.5-2.4-3.1-4.7-4.2-7.3c-1.1-2.6-1.5-5.4-2.2-8.1c-4-17.2-14.3-32.4-25.2-46.7c-1.1-1.5-2.3-3-4-4.1
				c-2.3-1.5-5.2-1.8-8-2.1C698.1,519.9,680.5,521.6,661.5,523.5"/>
		</g>
		<g>
			<path class="st3" d="M668.6,441.3c-14.7,9.7-26.2,23.2-35.8,37.4c-3.1,4.6-6.1,9.4-6.5,14.8c-0.4,5.4,2.5,11.4,8,13
				c2.1,0.6-1.1,2.8,1.2,2.7c7.6-0.5,18.6-1.5,28.2-5.1c1-0.4,2.3-0.5,2.9-1.3c0.3-0.5,0.4-1.2,0.5-1.8c1.8-19.6,2.3-39.3,1.7-58.9"
				/>
		</g>
		<g>
			<path class="st3" d="M722.7,444.5c5.4,2.9,9,8,12.2,13.1c7.8,12.3,14.6,25.1,20.4,38.4c1.7,4,3.4,8.2,2.8,12.5
				c-0.6,4.3-4.1,8.5-8.7,8.5c-2.4,0-4.6-1.2-6.7-2.4c-7.9-4.7-14.9-10.8-19.9-18.2c-5-7.4-8.1-16.1-8-24.9
				C714.8,461.7,716,451.9,722.7,444.5"/>
		</g>
		<g>
			<path class="st3" d="M688.5,437.6c0.2,1.8,1.8,3.4,3.7,3.7c1.9,0.3,4-0.6,4.9-2.2c0.5-0.9,1.8-0.9,2.8-0.8
				c6.4,0.7,13,1.4,18.9,4.1c2.4,1.1,4.6,2.5,6.2,4.5c1.6,2,2.3,4.5,2.9,6.9c3.6,14.8,2.2,30.3-0.2,45.4c-1.3,8.2-2.7,16.5-1.2,24.6
				c-12.1,0.4-23.6,0.3-35.7,0.3c-12.9,0-19.1-0.2-28.4,0c-2.4,0.1-11-46-5.8-65.8c2.5-9.7,6.6-14.4,10-16.2
				C674.8,437.7,688.3,437.6,688.5,437.6"/>
		</g>
		<g>
			<path class="st7" d="M658.4,512.9c-0.3,4-0.1,9.1-0.3,13.1c22.8,5.4,47,5.4,69.8-0.1c-1.3-4.9-1.9-10-1.7-15.1
				c-6.5,2.2-13.4,2.5-20.3,2.7C690,514.1,674.1,514.6,658.4,512.9c0,0.3,0,0.7,0,1"/>
		</g>
		<g>
			<path class="st3" d="M642.9,443.4c-3.6,10.9-7.9,21.6-12.9,32c-1.2,2.5-2.5,5.1-3.5,7.7c-1.4,3.8-2.2,7.7-2.2,11.7
				c0,2.8,0.3,5.8,1.6,8.3c1.3,2.6,3.6,4.8,6.5,5.6c3.8,1.1,7.8-0.4,11.4-2c2.4-1.1,4.9-2.3,6.5-4.3c1.5-1.8,2.1-4.1,2.6-6.3
				c3.5-17-2.2-34.6-0.5-51.8c-3.1,0.7-6.5,0.2-9.3-1.2"/>
		</g>
		<g>
			<path class="st8" d="M641.2,508.7c7.1-1.3,15.6-0.9,11.1-49.3c-0.2,3.8,4.2,37.8,8,41.5c8.9,8.7,24.5,11.1,37.2,12.7
				c-12.3,1.3-26.1,0.5-38.4-0.4c-0.1-2-0.9-4.9-1-7.3C651.7,507.8,647,507.7,641.2,508.7"/>
		</g>
		<g>
			<path class="st3" d="M746.5,492.8c2.4,0.7,3.2,2.4,5.4,3.6c3.2,1.9,4.3,3.6,5.6,7c1.3,3.4,1,7.4-1.2,10.4c-3,4-8.7,5.3-13.9,4.9
				c-6.4-0.4-12.5-2.9-17.9-6.2c-5.4-3.3-10.1-7.5-14.9-11.6c-5.8-5.1-11.7-10.2-17.5-15.3c-0.3-0.3-0.7-0.6-0.7-1
				c-0.1-0.5,0.2-0.9,0.5-1.3c1.5-1.9,3.2-3.6,5-5.1C711.9,486.6,731.4,484.7,746.5,492.8"/>
		</g>
		<g>
			<path class="st8" d="M720,477.3c0.1,1,0.1,2.1-0.5,2.9c-0.9,1.3-2.9,1.4-4.5,1.3c-5.7-0.4-11.4-1.3-16.9-2.6
				c5.2,3,11.2,4.2,17.2,5.3c2.7,0.5,24.2,5.9,25.4,6.3c3,0.9,5.8,2.3,8.3,4c-4-3.8-9.1-6.6-14.5-7.9c-2.8-0.7-5.8-1.1-8.5-2.2
				c-2.7-1.1-5.1-3.3-5.4-6.1c-0.1-0.5-0.2-1.3-0.8-1.3"/>
		</g>
		<g>
			<path class="st8" d="M695.6,489.1c7,6.8,14.1,13.5,21.9,19.5c1.7,1.3,3.4,2.5,5.5,3c-3.8,1.4-8.3,1.5-12.4,1.7
				c0.6-0.4,1.4-1.2,1.7-1.9c0.6-1.2,0-2.5-0.6-3.7c-2.4-4.2-14.7-16.2-16-18.4"/>
		</g>
		<g>
			<g>
				<path class="st3" d="M678.8,469.9c0.1,1.5,0.7,3,1,4.5c0.2,0.8,0.3,1.5,0.4,2.3c0.1,0.4,0.1,0.8,0.2,1.1c0,0.2,0.1,0.4,0.1,0.5
					c0,0.1,0.2,0.5,0.1,0.6c0.1-0.1,0.2-0.1,0.3-0.2c0,0,0,0,0.1,0c0,0.1,0.1,0.2,0.1,0.4c0,0,0,0,0,0c0.1-0.4-0.6-0.6-0.6-0.2
					c0,0,0,0,0,0c0,0.2,0,0.3,0.1,0.4c0.2,0.1,0.4,0.1,0.5-0.1c0.2-0.3,0-0.7,0-0.9c-0.2-0.9-0.3-1.9-0.5-2.8
					c-0.2-0.9-0.4-1.9-0.6-2.8c-0.2-0.9-0.5-1.9-0.6-2.9C679.4,469.4,678.8,469.4,678.8,469.9L678.8,469.9z"/>
			</g>
		</g>
		<g>
			<path class="st4" d="M689.4,469.8c2.7,0.1,5.5,0.4,8.1,0.9c0.8,2.9,1.6,7.8,0.6,9.2c-3.9-2.6-6.4-6.1-9.1-9.8"/>
		</g>
		<g>
			<path class="st5" d="M681.7,473.9c0.9,2.5,1.4,5.1,1.6,7.8c0,0.4,0,0.8,0.2,1.1c0.2,0.2,0.4,0.4,0.7,0.6c1.8,1.2,3.6,2.4,5.4,3.7
				c1.4,1,3.2,2,4.9,1.5c0.7-2.1,1.7-4.2,3-6.1c0.6-0.9,1.2-1.8,1.2-2.9c0-0.5-0.2-1.1-0.3-1.6c-0.4-1.4-0.9-2.7-1.3-4
				c-0.1-0.2-0.1-0.3-0.2-0.4c-0.1-0.2-0.4-0.3-0.6-0.3c-2.4-0.9-4.7-2.1-6.8-3.6c-0.1-0.1-0.3-0.2-0.5-0.2c-0.1,0-0.2,0.1-0.4,0.1
				C686.1,470.9,683.8,472.4,681.7,473.9"/>
		</g>
		<g>
			<path class="st6" d="M696.5,428.4c2.9-3.9,6-7.6,9.4-11.2c0.1-0.1,0.3-0.3,0.3-0.5c0.1-0.5-0.3-0.9-0.6-1.2
				c-2.2-1.9-4.5-3.6-6.9-5.2c-1-0.6-2-1.2-3.1-1.6c-0.6-0.2-1.2-0.3-1.7-0.6c-0.9-0.4-1.7-1.1-2.1-2c-0.4-0.7-0.5-1.6-0.2-2.3
				c0.3-0.7,1.2-1.3,2-1c0.8,0.2,1.2,1.3,0.6,1.9c0.6-0.9-0.1-2.2-1.2-2.5c-1.1-0.3-2.3,0.3-2.9,1.2c-0.6,0.9-0.7,2-0.6,3
				c0.4,2.6,2.1,4.8,4,6.7c0.2,0.2,0.4,0.4,0.5,0.7c0,0.3-0.1,0.6-0.2,0.8c-1.4,2.6-3.6,4.8-4.4,7.6c0.5-0.9,1-1.8,1.7-2.5
				c0.7-0.7,1.7-1.3,2.8-1.3c1.2,0,2.3,0.8,3.2,1.6c0.4,0.4,0.8,0.8,1,1.2c0.5,1.1,0.1,2.2-0.3,3.3c-0.5,1.2-1,2.5-1.4,3.7"/>
		</g>
		<g>
			<path class="st6" d="M693.7,417.5c-1,0.9-2,1.6-3.2,2.2c1.8,0.9,3.9,0.9,6,0.9c-0.5,0.4-1.1,0.8-1.7,0.9c1.4,0.7,3.1,1.1,4.7,1.1
				c-0.5-0.7-1-1.4-1.6-2.1c-0.5-0.7-1-1.4-1.7-1.9c-0.7-0.5-1.6-0.9-2.5-0.7"/>
		</g>
		<g>
			<path class="st3" d="M689.5,422.3c2.5,1.8,6.1,3.4,8.7,4.1c0.3-0.2,0.5-0.5,1-1.3c-2.4-3.8-9.1-4.9-9.2-4.9
				C689.5,420.8,689.2,421.6,689.5,422.3"/>
		</g>
		<path class="st5" d="M692.4,422.2c-0.2,0.4-0.9,0.4-1.5,0.1c-0.7-0.3-1.1-0.8-0.9-1.2c0.2-0.4,0.9-0.4,1.5-0.1
			C692.2,421.3,692.6,421.8,692.4,422.2z"/>
		<path class="st5" d="M696.7,424.1c-0.2,0.4-1,0.5-1.9,0.1c-0.8-0.4-1.3-1-1.1-1.4c0.2-0.4,1-0.5,1.9-0.1
			C696.4,423,696.9,423.6,696.7,424.1z"/>
		<g>
			<g>
				<path class="st6" d="M690.6,421.9c0.4-0.1,0.9,0.1,1,0.5c0,0.1,0.2,0.1,0.1,0c-0.1-0.5-0.7-0.7-1.2-0.6
					C690.5,421.8,690.5,421.9,690.6,421.9L690.6,421.9z"/>
			</g>
		</g>
		<g>
			<g>
				<path class="st6" d="M694.3,423.4c0.6-0.2,1.4,0,1.6,0.7c0,0,0.1,0,0.1-0.1c0,0-0.1-0.1-0.1-0.1c-0.1-0.1-0.2,0-0.1,0.1
					c0,0,0.1,0.1,0.1,0.1c0,0.1,0.1,0,0.1-0.1c-0.3-0.7-1.1-1.1-1.8-0.8C694.2,423.3,694.2,423.4,694.3,423.4L694.3,423.4z"/>
			</g>
		</g>
		<g>
			<g>
				<path class="st6" d="M691.8,423.7c-0.5,0.4-0.9,0.8-1.4,1.2c-0.1,0.1-0.2,0.2-0.3,0.3c-0.1,0.1,0,0.2,0.1,0.3
					c0.2,0.2,0.4,0.3,0.6,0.4c0.1,0,0.1-0.1,0.1-0.1c0,0,0,0,0,0c-0.1-0.1-0.2,0-0.1,0.1c0,0,0,0,0,0c0,0,0-0.1,0.1-0.1
					c-0.2-0.1-0.4-0.2-0.6-0.4c0,0-0.1-0.1,0-0.1c0,0,0,0,0.1-0.1c0.1,0,0.1-0.1,0.2-0.1c0.1-0.1,0.2-0.2,0.3-0.3
					c0.4-0.3,0.8-0.7,1.2-1C692,423.8,691.9,423.7,691.8,423.7L691.8,423.7z"/>
			</g>
		</g>
		<g>
			<g>
				<path class="st6" d="M690.5,427.5c1.2,0.6,2.6,0.4,3.8-0.1c0,0-0.1-0.1-0.1-0.1c-0.1,0.3-0.3,0.5-0.6,0.7c-0.1,0,0,0.2,0.1,0.1
					c0.3-0.2,0.5-0.4,0.7-0.7c0-0.1,0-0.1-0.1-0.1c-1.1,0.5-2.5,0.6-3.6,0.1C690.5,427.3,690.4,427.4,690.5,427.5L690.5,427.5z"/>
			</g>
		</g>
		<g>
			<path class="st7" d="M661.7,663.6c6.7-1.3,13.3-2.4,20.1-3.2c1,9.1,1.7,18.3,2.2,27.4c-9.4,0.7-20.8,3.5-30.2,2.8
				c4-2.5,10.4-7.1,15-8.4C666.9,676.4,664,669.1,661.7,663.6"/>
		</g>
		<g>
			<path class="st7" d="M767.1,660c7.1,0.3,14.3-0.3,21.3-1.6c2.8,8.5,5.6,17,8.4,25.5c-8.2,2.8-20.3,6.6-29,6.8
				c0,0,6.8-5.7,10.9-9.2C774.5,674.5,771.4,666.5,767.1,660"/>
		</g>
		<g>
			<g>
				<path class="st7" d="M715,528.7c5.6,9.1,10.5,18.6,14.6,28.4c2,4.8,3.8,9.6,5.4,14.5c1.6,4.8,2.9,9.7,5.6,14
					c2.6,4.1,6,7.6,8.9,11.4c2.6,3.5,5,7.2,7.2,10.9c4.8,8,9,16.4,12.9,24.9c4.2,9.1,8.1,18.4,12,27.6c0.2,0.4,0.7,0.1,0.6-0.3
					c-7.2-16.8-14.1-33.8-23.2-49.6c-2.2-3.9-4.6-7.7-7.2-11.4c-2.5-3.6-5.4-7-8.1-10.5c-1.7-2.1-3.2-4.3-4.3-6.8
					c-1.1-2.4-2-4.9-2.8-7.5c-1.6-5-3.3-9.9-5.2-14.8c-4.3-10.9-9.6-21.4-15.8-31.3C715.4,528,714.8,528.3,715,528.7L715,528.7z"/>
			</g>
		</g>
		<g>
			<g>
				<path class="st7" d="M720.1,527.8c4.7,10,9.4,19.9,14.1,29.9c2.3,5,4.5,10.1,5.9,15.4c0.6,2.2,1.2,4.5,2.1,6.6
					c1,2.1,2.4,4,3.8,5.8c5.6,7,10.4,14.3,14.7,22.1c4.5,8.1,8.4,16.6,12.1,25.1c4,9.2,7.7,18.4,11.3,27.7c0.2,0.4,0.8,0.2,0.6-0.2
					c-6.6-16.8-13.3-33.6-21.7-49.5c-4.1-7.7-8.6-15.3-13.9-22.2c-1.5-1.9-3-3.7-4.4-5.6c-1.5-2.1-2.6-4.4-3.3-6.9
					c-1.5-5-3-9.8-5.1-14.6c-5-11.4-10.5-22.6-15.8-33.8C720.5,527.1,719.9,527.4,720.1,527.8L720.1,527.8z"/>
			</g>
		</g>
		<g>
			<path class="st5" d="M696.9,437.5c7.9-6.7,22.7-7,33.1-4.9c11,2.3,19.8,6.8,29,13c5.4,3.6,9.8,8.4,13.8,13.3
				c23.7,29.1,35.1,65.1,51.7,98.3c6,12,13.1,24.1,24.9,31.4c9.1,5.6,20.1,7.8,30.8,9.8c-6.8,15.8-16.1,30.6-27.5,43.8
				c-39.3-26.7-73.6-131.4-81.7-149.1c-4.2-9.2-8.9-18.3-14.8-26.6c-13.6-18.8-35.1-30.2-59-27.4"/>
		</g>
	</g>
	<g>
		<g>
			<path class="st2" d="M1262.4,407.6c7,0.1,12.8,4.7,18.2,8.9c44.9,35.3,101.1,57.5,159.1,62.9c-12.7,7.5-20.3,22-19,36.1
				c1,11,7,22.3,3,32.6c-4,10.3-16.1,15.3-27.2,18.1c-8,2-16.3,3.4-24.5,4.2c-14.8,1.4-25.7,13.3-34.1,25
				c-8.3,11.6-16.4,24.6-30,30.4c-8.8,3.7-19.5,4.2-26.4,10.5c-13.8-49.2-8.3-102.8-28.4-150c-9.7-22.9-25.2-43.5-34.1-66.7
				c-1.1-2.9,2.5-5.3,5.5-6.3c10.9-3.8,22.7-5.4,34.3-4.7c0.8,0,1.7,0.4,1.7,1.2c0,0.7-1.6,0.6-1.2,0"/>
		</g>
		<g>
			<path class="st2" d="M1241,407.3c-6-4.7-16.3-4.5-23.5-1.5c-2.5,1-4.9,2.4-6.5,4.4c-1.5,1.8-2.3,4-3,6.2
				c5.2-4.3,12.4-5.6,19.2-6.8C1231.8,408.9,1236.4,408.1,1241,407.3c-0.4,0-0.8,0-1.2,0"/>
		</g>
		<g>
			<path class="st5" d="M1238.1,397.5c0.1,1.9,0.3,9-1,9.9c-0.8,0.6-1.8,0.6-2.8,0.8c-3.7,0.5-7.2,1.9-10,4.1
				c4.1,1.3,8.6,1.2,12.9,1.1c5.8-0.2,11.6-0.3,17.4-0.5c-1-1.7-3.1-2.3-5.1-2.8c-2.3-0.6-4.5-1.3-6.7-2.1
				c-0.7-0.2,0.1-8.7,0.2-11.5"/>
		</g>
		<g>
			<path class="st5" d="M1244.3,388.6c0-1.2-1.1-2.2-2.3-2.4c-1.2-0.3-2.5,0.2-3.4,0.9c-2.5,1.9-2.6,5.4-2.5,8.4
				c0,1.5,0.1,3.2,1.3,4.3c1.7,1.6,4.8,1,6.3-0.8c1.5-1.7,1.8-4.1,1.8-6.4c0-1.6-0.1-3.3-1.1-4.5"/>
		</g>
		<g>
			<path class="st5" d="M1236.9,394.7c-0.3-0.4-1-0.3-1.4,0c-0.4,0.4-0.5,0.9-0.5,1.4c0,0.2,0,0.5,0.2,0.7c0.4,0.6,1.2,0.7,2,0.6
				c0.1,0,0.3,0,0.4-0.1c0.1-0.1,0.1-0.3,0-0.5c-0.2-0.8-0.5-1.6-0.7-2.3"/>
		</g>
		<g>
			<path class="st5" d="M1244.1,395.1c0.3-0.7,1.4-0.7,2-0.2c0.7,0.6,0.8,1.7,0.2,2.4c-0.6,0.7-1.8,0.9-2.6,0.4
				c0.1-1,0.2-1.9,0.3-2.9"/>
		</g>
		<g>
			<path class="st6" d="M1244.1,393.4c0.4,1.6,0.3,3.2-0.1,4.8c0.3,0,0.5,0.1,0.8,0.1c0.3-1.9,0.9-3.8,1.8-5.6
				c0.8-1.5,1.9-3.1,1.9-4.8c0-1.3-0.6-2.6-1.5-3.7c-2.5-3-7.2-4.1-10.8-2.5c-1.1,0.5-2.2,1.2-3.5,1.1c-0.6,0-1.2-0.3-1.8-0.3
				c-1-0.1-2.1,0.5-2.3,1.4c-0.3,0.9,0.4,2,1.4,2c0.5,0,0.9-0.2,1.4-0.3c0.5-0.1,1.1,0,1.3,0.4c0.2,0.4-0.1,0.9-0.5,1.1
				c-0.4,0.3-0.8,0.5-1.1,0.8c-0.3,0.3-0.3,0.9,0.1,1.2c0.2,0.1,0.4,0.1,0.6,0.1c1.7-0.1,3.4-0.3,5.1-0.4c2-0.2,4.4-0.2,5.7,1.2
				C1243.5,391,1243.9,392.3,1244.1,393.4"/>
		</g>
		<g>
			<path class="st6" d="M1235.2,389c0.7,2.3,1.3,5.3,0.9,8.4c0.2,0,0,0,0.3,0.1c0.1-2,0.4-3.9,0.5-5.8c0-1,0.1-2,0.5-2.8"/>
		</g>
		<g>
			<g>
				<path class="st9" d="M1236.6,393.9c0,0.6,0.5,1,1,1.1c0.5,0.1,1.1-0.3,1.2-0.9c0-0.1,0-0.3-0.2-0.3c-0.1,0-0.3,0-0.3,0.2
					c0,0,0,0,0,0.1c0,0,0,0.1,0,0c0,0,0,0.1-0.1,0.1c0,0,0,0,0,0c0,0,0,0,0,0c0,0,0,0-0.1,0c0,0,0,0,0,0c0,0-0.1,0.1-0.1,0.1
					c-0.1,0,0,0,0,0c0,0,0,0-0.1,0c0,0,0,0-0.1,0c0,0,0,0,0,0c0,0-0.1,0-0.1,0c0,0,0,0,0,0c0,0,0,0-0.1,0c0,0,0,0-0.1,0
					c0.1,0,0,0,0,0c0,0-0.1,0-0.1-0.1c0,0,0,0,0,0c0,0,0,0-0.1-0.1c0,0,0,0,0,0c0,0,0,0,0,0c0,0,0-0.1-0.1-0.1c0,0.1,0,0,0,0
					c0,0,0,0,0-0.1c0,0,0-0.1,0,0c0,0,0,0,0-0.1c0-0.1-0.1-0.3-0.3-0.3C1236.8,393.6,1236.6,393.7,1236.6,393.9L1236.6,393.9z"/>
			</g>
		</g>
		<g>
			<g>
				<path class="st9" d="M1240.8,394.1c0.2,0.5,0.5,1,1.1,1.1c0.6,0.1,1-0.5,1.2-0.9c0.1-0.1,0-0.3-0.1-0.4c-0.1-0.1-0.3,0-0.4,0.1
					c-0.1,0.2-0.2,0.4-0.3,0.5c0,0,0,0-0.1,0.1c0,0-0.1,0.1-0.1,0.1c0,0-0.1,0-0.1,0c0,0,0.1,0,0,0c0,0,0,0-0.1,0c0,0,0.1,0,0,0
					c0,0,0,0-0.1,0c0,0-0.1,0,0,0c0,0,0,0,0,0c-0.1,0-0.1-0.1-0.2-0.1c-0.1-0.1-0.2-0.3-0.2-0.5c0-0.1-0.2-0.2-0.3-0.2
					C1240.8,393.8,1240.7,394,1240.8,394.1L1240.8,394.1z"/>
			</g>
		</g>
		<g>
			<g>
				<path class="st9" d="M1239,394.4c0,0.3,0,0.5,0,0.8c0,0.3,0,0.5-0.1,0.8c-0.1,0.5-0.3,1-0.5,1.5c-0.1,0.2,0,0.3,0.2,0.4
					c0.2,0.1,0.4,0.1,0.6,0.1c0.3,0,0.3-0.5,0-0.5c-0.2,0-0.3,0-0.5-0.1c0.1,0.1,0.1,0.3,0.2,0.4c0.3-0.5,0.5-1,0.6-1.6
					c0.1-0.3,0.1-0.6,0.1-0.8c0-0.3,0-0.6,0-0.9c0-0.1-0.1-0.3-0.3-0.3C1239.1,394.2,1239.1,394.3,1239,394.4L1239,394.4z"/>
			</g>
		</g>
		<g>
			<g>
				<path class="st9" d="M1239.4,399.3c1,0.1,2.1-0.4,2.6-1.3c-0.2,0-0.3,0-0.5-0.1c0,0.3,0,0.5-0.1,0.8c-0.1,0.1,0.1,0.3,0.2,0.3
					c0.2,0,0.3-0.1,0.3-0.2c0.1-0.3,0.2-0.7,0.1-1.1c0-0.2-0.4-0.2-0.5-0.1c-0.5,0.7-1.3,1.1-2.2,1.1c-0.1,0-0.3,0.1-0.3,0.3
					C1239.1,399.1,1239.2,399.3,1239.4,399.3L1239.4,399.3z"/>
			</g>
		</g>
		<g>
			<path class="st3" d="M1236.1,408c0.1,1.9,2,3.5,3.9,3.5c2,0,3.8-1.5,4-3.4c5.6-0.3,11.2-0.6,16.7,0.5c5.5,1.1,10.6,4.9,14.3,8.9
				c7.4,7.9-8.2,62.6,5.3,88c-7.6,1.6-64.3,4.1-72.8,3.6c-5.2-15.7-2.7-70.1,0.1-83.2C1211.4,408.9,1227.4,407.7,1236.1,408"/>
		</g>
		<g>
			<path class="st3" d="M1262.8,409.1c11.1,3.3,18.9,12.8,24.1,22.7c7.6,14.6,11,31.1,9.7,47.2c0,0.6-0.1,1.3-0.6,1.7
				c-0.3,0.3-0.8,0.5-1.2,0.6c-5.8,1.9-12.1,2.9-18,1.7c-30.7-6.5-66.8-20.6-58.2-19.8c0,0,3.6-1.5,3.1-2.9
				c-0.4-1.1,0.6-2.1,1.8-1.9c11.6,2.2,39.7,3.8,49.7,4.9C1273.3,462.4,1236.9,425.7,1262.8,409.1"/>
		</g>
		<g>
			<path class="st3" d="M1224.5,409.8c-7.2-2.1-21.2,7.7-25.9,13.4c-21.8,26.6-18.8,46.2-14.5,52.5c14.8,21.7,65.9-9.2,72.9-11.9
				c-2.3-0.9-7.8-8.1-8.5-8c-11,2.3-27,5.7-38.1,8c-0.9-2.1,3.1-21,15.7-51.3"/>
		</g>
		<g>
			<path class="st5" d="M1224.5,458c-0.3-0.2-7.2-2.9-16.2,1.4c-0.9,0.4-1.7,1.2-2.1,2.1c-0.4,0.9-0.2,2.1,0.6,2.6
				c0.5,0.3,1.2,0.4,1.8,0.3c1.6-0.1,3.2-0.6,4.8-0.8c1.6-0.3,6.1-2,6.6-1.9C1221.8,459.5,1222.2,459.7,1224.5,458
				c-0.1,0.2-0.4,0.4-0.6,0.4"/>
		</g>
		<g>
			<path class="st8" d="M1218.1,480.3c13.4-1.3,28.3-3,39.6,4c17.6,10.8,21.7,22,25.9,21.1c-3.4-5.5-5.2-21.8-5.8-22
				c-10.7-3.7-22.8-7.2-33.5-11c-1.4-0.5-2.9-1-4.4-0.9c-1.4,0.1-2.6,0.8-3.8,1.4c-8,4.2-16.7,7-25.7,8.3"/>
		</g>
		<g>
			<path class="st8" d="M1265.1,447.7c1.4,5,3.7,9.8,6.7,14.1c-2.4,0.2-4.8-0.1-7-0.8c-1-0.3-1.9-0.7-2.9-0.8
				c-2.2-0.2-4.4,1-6.7,0.8c4.3-3.9,8.8-8.4,9.4-14"/>
		</g>
		<g>
			<path class="st8" d="M1250.3,454.5c-7.2-0.4-23.3,4.8-30.2,6.7c0-0.9,2.2-3.2,4.2-4C1236.6,452.7,1250.1,453.9,1250.3,454.5
				C1250.3,454.5,1250.2,454.6,1250.3,454.5"/>
		</g>
		<g>
			<path class="st8" d="M1238.4,471.9c5-2,9.7-4.6,14-7.7c1.3-0.9,2.6-1.9,4.2-2.3c-0.8,3.1-3.7,5.4-6.6,7.1c-2.9,1.7-6,3.4-7.7,6.2
				c-1.1-1.3-2.5-2.5-4-3.4"/>
		</g>
		<g>
			<path class="st5" d="M1250.3,454.5c12.8-5.2,15.4-1.3,16.9-0.2c1.4,1.1,2.5,2.8,2.6,4.5c0.1,1.2-0.5,2.7-1.8,2.9
				c-1.4,0.3-2.5-1-3.8-1.7c-2.3-1.3-5.5-0.5-7.4,1.3c-0.3,0.2-0.6,0.5-0.9,0.4c-0.1-0.1-0.2-0.2-0.3-0.3c-0.6-0.7-1.3-1.5-1.9-2.2
				C1252.5,458,1250.5,454.7,1250.3,454.5"/>
		</g>
		<g>
			<path class="st3" d="M1207.6,509c7.9,55.1,30,166.2,26.9,165.7c0,0,9.2,0.4,12.3-0.1c0.2-22.3-1-132.6-0.4-144.4
				c1.7,2.1,2.2,4.8,2.7,7.3c8.5,43.7,33.5,137.5,34.4,137.3c4.9-0.9,8.4,0.9,13.3,0c-2.5-16.4-13.7-166.3-14.8-172.1
				c-26.7-1-45.2,0.8-71.7,3.3"/>
		</g>
		<g>
			<path class="st5" d="M1206,500c0.4,4.2,0.9,9.6,2,13.7c0.2,0.5,18.3,6.7,36.9,21.8c0,0,2.1-0.1,4.7,0
				c9.1-10.6,20.5-22.2,33.9-27.5c0.1-3.5-1-8.2-1.7-11.7c-1.2,0.6-3.4,2.2-4.7,2.2C1253.2,498.1,1229.9,500.1,1206,500"/>
		</g>
		<g>
			<path class="st10" d="M1204.7,492.5c0.4,2.5,1.2,11.6,1.6,14.1c14.6-0.4,29.2-0.9,43.7-1.3c3.2-0.1,6.4-0.2,9.6-0.3
				c7.9-0.4,15.8-1,23.6-1.9c-0.6-3-1.3-10.5-3.4-13.7C1254.8,491.5,1229,492.5,1204.7,492.5"/>
		</g>
		<path class="st7" d="M1252.6,499.2c0.8,8.6-3.9,16-10.5,16.6c-6.6,0.6-12.7-5.9-13.5-14.5c-0.8-8.6,3.9-16,10.5-16.6
			C1245.7,484.2,1251.8,490.7,1252.6,499.2z"/>
		<g>
			<path class="st5" d="M1230.8,656c5.7,1.9,11.7,2.9,17.8,3c-0.6,8.3-1.5,16.6-2.7,24.8c-10.1,2.6-20.3,4.9-30.6,6.8
				c4.4-3.4,15.6-14.5,15.5-15.8C1230.2,668.9,1231.3,662,1230.8,656"/>
		</g>
		<g>
			<path class="st5" d="M1276.7,658.9c6.6-0.4,13.3-0.9,19.9-1.3c1.2,6,2.4,12,3.6,17.9c0.2,1,11.9,10.5,15,13.6
				c-11.5-2.5-20.5-2.8-32-5.3C1282.9,683.8,1276.7,658.9,1276.7,658.9"/>
		</g>
		<g>
			<path class="st5" d="M1242.5,411.1c-1.7-8.7,5.7-9,9.1-9.4c9.5-1.1,19.4,1,27.6,5.7c5.8,3.3,10.8,8,17,10.6
				c11.9,5,25.7,1.9,38.5,3.9c16,2.5,29.3,12.7,43.8,19.7c17.1,8.3,36.4,12.3,55.6,11.4c12.5-0.6,25.8-3,37.1,2.1
				c-7.4,6.5-11.6,15.8-13,25.3c-1.4,9.5-0.2,19.1,1.9,28.5c-6-7.9-15.6-13.9-25.8-14.7c-65.3-5-134-46.8-163.5-79.5
				c-10.7-11.9-28.9-5-28.5-3.3"/>
		</g>
		<g>
			<path class="st2" d="M1230.9,404.1c2.8-0.2,5.6,1,7.5,2.9c1.9,1.9,3,4.5,3.5,7.1c0,0.2,0.1,0.5,0.2,0.7c0.1,0.2,0.4,0.4,0.6,0.5
				c2.9,2,5.1,4.9,6.1,8.2c0.3,1,0.5,2,0.6,3.1c0.1,1.6-0.2,3.2,0.5,4.6c0.3,0.7,0.9,1.4,1,2.2c-1.4-1.1-2.7-2.2-4.1-3.3
				c-0.7-0.6-1.5-1.2-2.1-1.9c-2.5-2.7-2.9-6.6-3.1-10.2c0-0.9-0.1-1.8,0.1-2.6c-2.4-0.1-4.6-1.3-5.9-3.2c-1-1.5-1.5-3.4-3.1-4.2
				c-1.3-0.7-2.9-0.4-4.4-0.1c0.7-1.3,1.4-2.7,2.2-4"/>
		</g>
		<g>
			<path class="st5" d="M1244,404.4c-0.8,0.8-1.5,1.8-1.7,3c-0.4,2.3-0.2,4.8-0.2,7.1c-1.1,0.7-2.2,1.4-3.4,1.9
				c-1.2,0.5-2.5,0.8-3.8,1.2c-2.9,1-5.6,2.9-6.9,5.6c-0.5,1-0.8,2.1-1.1,3.2c-0.3,1.1-0.5,2.3-0.7,3.4c-0.1-1.3,1.3-2.3,2.7-2.7
				c1.4-0.3,2.8-0.3,4.1-0.8c0.7-0.3,1.3-0.7,1.8-1.1c3-2.4,4.8-5.7,6.5-9c0.3-0.5,0.5-1.1,0.9-1.5c0.6-0.8,1.4-1.3,2.1-2
				c0.5-0.5,0.8-1,1.2-1.6c1.5-1.9,3.6-3.4,6-4.3C1248.9,406.6,1246.7,404.3,1244,404.4"/>
		</g>
		<g>
			<path class="st2" d="M1240,414c-0.1,0.8,0.1,1.7,0.3,2.5c0,0.1,0,0.1,0.1,0.1c0,0,0.1,0,0.2,0c0.3,0,0.6,0,0.9,0.1
				c0.2,0,0.3,0,0.5,0c0.2,0,0.3-0.1,0.5-0.1c0.2-0.1,0.5-0.1,0.7-0.1c0,0,0.1,0,0.1,0c0,0,0-0.1,0-0.1c0-0.8,0-1.7-0.1-2.5
				c0-0.1,0-0.2-0.1-0.3c-0.1-0.1-0.2-0.1-0.3,0c-1,0.1-1.9,0.1-2.9,0.2"/>
		</g>
	</g>
	<g>
		<g>
			<path class="st2" d="M1010.1,411.7c-4.3-2.7-15.8-7.8-21-8.2c-53.3-3.8-35.7,88.8-34.3,110.6c1.4,21.2,9,42.4,2.1,62.6
				c-0.9,2.5-2.7,5.4-5.4,5c14.9,2.5,30.2-3.5,45.2-1.8c8.6,0.9,16.9,4.4,25.5,3.9c11.2-0.6,21-7.6,32.2-8.5
				c7.7-0.6,15.3,1.8,22.5,4.4c5.1,1.9,11.1,3.8,15.6,0.9c-4.3-2.3-6.4-6.9-7.7-11.4c-5.7-19.3-2-39.9-0.2-59.9
				c1.6-17.4,1.7-35.1-0.9-52.4c-1.7-11.7-4.8-23.5-11.2-33.7c-6.4-10.2-16.4-18.8-28.6-21.7
				C1031.8,398.6,1017.6,402.2,1010.1,411.7"/>
		</g>
		<g>
			<path class="st5" d="M1010.8,412.2c-4.3-7.8-25.1-12.2-35.8-9c-10.7,3.2-19.6,11.2-23.6,21.1c-2.1,5.4-2.8,11.2-3.4,16.9
				c-2.4,24.4-3,49-1.7,73.5c0.8,14.9,2.2,29.8,1.2,44.6c-0.5,8-2,16.6-7.9,22.4c5.9,2.6,11.8,5.3,17.7,7.9c0.5-3.3,2.6-6.3,4-9.4
				c3.5-7.8,2.5-16.8,1.5-25.2c-2.5-20.1-4.9-40.2-7.4-60.3c-1.5-12.3-3-24.7-2-37c1-12.3,4.7-24.8,12.6-34.6
				c2.9-3.6,6.4-6.8,10.5-9.1c3.7-2.1,7.9-3.4,12.1-4.2C994.5,408.6,1011,412.2,1010.8,412.2"/>
		</g>
		<g>
			<path class="st5" d="M1012.5,411.4c0-4.7,10.1-10.2,16.2-11.1c15.9-2.2,32.8,4.4,42.3,16.7c5.9,7.6,8.9,16.9,11.3,26
				c2,7.4,3.6,14.9,4.5,22.6c1.5,13,0.9,26.1,0.2,39.2c-0.5,10.1-1,20.1-1.5,30.2c-0.4,8.2-0.8,16.5,0.7,24.6
				c1.5,8.1,5.2,16.1,11.7,21.5c-6.6,3.6-13.8,6.1-21.2,7.5c-0.6-8.7-3.2-17.1-4.1-25.8c-0.6-5.9-0.5-11.9-0.3-17.9
				c0.7-22.5,1.9-45,3.5-67.5c0.4-5.9,0.9-11.8,0.4-17.7c-0.5-7-2.2-13.8-4.1-20.6c-1.9-7.1-4.2-14.4-9-20.1
				c-5.6-6.7-14.3-10.6-23.2-12C1031.1,405.6,1021.3,409.3,1012.5,411.4"/>
		</g>
		<g>
			<path class="st11" d="M1053.6,358.9c-3.3-1-5.9-3.5-7.6-6.3c-1.7-2.8-2.6-6-3.5-9.2c-0.8-0.1-1.2,0.8-1.3,1.5
				c-0.8,5.3-0.4,10.8,0.9,16c0.2,0.7,0.4,1.5,0.9,2.1c0.7,0.9,1.9,1.5,3,2c0.9,0.4,1.8,0.8,2.8,1.2c0.2,0.1,0.3,0.1,0.5,0.1
				c0.3,0,0.5-0.3,0.7-0.6c1.3-2.3,2.6-4.6,4-6.9"/>
		</g>
		<g>
			<path class="st11" d="M968.4,357.5c3.3-0.9,6-3.3,7.8-6.1c1.8-2.8,2.9-5.9,3.8-9.1c0.8-0.1,1.1,0.8,1.2,1.6
				c0.6,5.3,0.1,10.8-1.5,15.9c-0.2,0.7-0.5,1.5-1,2.1c-0.7,0.9-1.9,1.4-3.1,1.9c-0.9,0.4-1.9,0.7-2.8,1.1c-0.2,0.1-0.3,0.1-0.5,0.1
				c-0.3,0-0.5-0.4-0.7-0.6c-1.2-2.3-2.5-4.7-3.7-7"/>
		</g>
		<g>
			<path class="st5" d="M991.2,658.3c0.5,4.5,1,9,1.5,13.5c0,0.1,0,0.3,0.1,0.4c0.1,0.2,0.4,0.2,0.6,0.2c1.7,0.2,3.5,0.4,5.2,0.3
				c2-0.2,4.1-0.7,5.9,0.1c-0.9-5.2-1.4-10.4-1.7-15.7c-3.8,0.4-7.6,0.7-11.4,1.1c0.2,0,0.4,0.1,0.6,0.1"/>
		</g>
		<g>
			<path class="st5" d="M1034,656.3c0.5,4.8,1,9.7,1.6,14.5c0,0.1,0,0.3,0.1,0.4c0.1,0.1,0.3,0.2,0.5,0.2c3.2,0.5,6.4,0.7,9.6,0.6
				c-0.4-5-0.8-10-1.2-15c0-0.2-0.1-0.5-0.3-0.6c-0.2-0.1-0.3,0-0.5,0.1c-3.2,1.1-6.7,1.6-10.1,1.5"/>
		</g>
		<g>
			<path class="st12" d="M973,515.5c5.2,46,13.1,103.2,16.7,149.3c6,0.7,10.4-0.8,17.1-1.1c-1.7-38.8,5-130.2,7-130.8
				c2.9-0.9,14.7,93.5,18.5,132.7c4.9-0.5,10,0.2,14.9,0.2c5.5-30.4,6.5-136.5,3-153.5c-15.2-1.4-25.2-2.3-40.2,0.2
				c-4.1,0.7-8.2,1.7-12.4,2.3c-8.1,1.2-16.5,0.8-24.5-1.1"/>
		</g>
		<g>
			<path class="st11" d="M1009.4,399c0.1,2,0.3,9.9-1.1,10.9c-0.9,0.6-2,0.7-3.1,0.9c-4,0.5-7.8,2.1-11,4.5
				c4.5,1.5,9.4,1.3,14.2,1.2c6.4-0.2,12.7-0.4,19.1-0.6c-1.1-1.8-3.4-2.5-5.6-3c-2.5-0.7-5-1.5-7.4-2.3c-0.7-0.3,0.1-9.5,0.3-12.6"
				/>
		</g>
		<g>
			<path class="st13" d="M1053.7,522.3c-0.1-16.1-3.6-91.5-16.6-103.5c-6.3-5.8-12.3-6.5-20.9-8.1c-1.3,2.1-3.9,3.5-6.5,3.5
				c-2.6,0-5.2-1.5-6.4-3.6c-4.4-1-15,3.8-19.5,8.8c-4.6,5-6.1,9.2-8.4,15.5c-5.5,15.3-3.6,77.9-3.2,87.2c0,0,30.5,2.5,40,2.5
				C1021.8,524.5,1053.7,522.3,1053.7,522.3z"/>
		</g>
		<g>
			<path class="st11" d="M1015.5,389.2c0-1.3-1.2-2.4-2.5-2.6c-1.3-0.3-2.7,0.2-3.7,1c-2.7,2.1-2.9,5.9-2.8,9.2
				c0,1.7,0.1,3.5,1.4,4.7c1.8,1.8,5.2,1.1,6.9-0.9c1.6-1.9,2-4.5,2-7c0-1.7-0.1-3.6-1.2-5"/>
		</g>
		<g>
			<path class="st11" d="M1007.4,395.9c-0.4-0.4-1.1-0.4-1.5,0c-0.4,0.4-0.5,1-0.5,1.5c0,0.3,0,0.5,0.2,0.8c0.4,0.7,1.4,0.7,2.2,0.7
				c0.2,0,0.3,0,0.5-0.1c0.1-0.1,0.1-0.4,0-0.6c-0.3-0.9-0.5-1.7-0.8-2.6"/>
		</g>
		<g>
			<path class="st11" d="M1015.3,396.4c0.3-0.8,1.5-0.8,2.2-0.3c0.8,0.7,0.9,1.9,0.3,2.7c-0.6,0.8-1.9,1-2.8,0.4
				c0.1-1.1,0.2-2.1,0.3-3.2"/>
		</g>
		<g>
			<path class="st12" d="M1010.2,419.2c-1.5,5.2-5.3,22.9-5.3,24c0,0.9,3.5,23.7,6.2,35.7c2.6-11,6.2-33.7,6.2-34.8
				c0-1.5-3.9-20.1-5.4-25"/>
		</g>
		<g>
			<path class="st12" d="M1010.4,412.8c-0.6,1.1-1.2,2.2-1.7,3.4c-0.1,0.2-0.2,0.5-0.1,0.7c0,0.1,0.1,0.3,0.2,0.4
				c0.5,0.7,1,1.4,1.6,2c0.4-0.1,0.8-0.1,1.2,0c0.1,0,0.2,0,0.2,0c0.1,0,0.1-0.1,0.2-0.1c0.5-0.6,1-1.1,1.5-1.7
				c0-0.1,0.1-0.1,0.1-0.2c0-0.1,0-0.1,0-0.2c-0.4-1.4-0.8-2.8-1.2-4.2c-0.8,0-1.5-0.1-2.3-0.1"/>
		</g>
		<g>
			<path class="st14" d="M1007.5,409.2c-1.1,0.1-2.7,0.3-3.8,0.5c0.3,3.1,2.2,6,5,7.5c0.6-1.5,1.2-3,1.8-4.6
				C1009,412.4,1007.5,410.2,1007.5,409.2"/>
			<g>
				<path class="st15" d="M1007.4,408.9c-1.3,0.2-2.5,0.3-3.8,0.5c-0.1,0-0.2,0.2-0.2,0.3c0.3,3.3,2.3,6.2,5.2,7.8
					c0.2,0.1,0.4,0,0.4-0.2c0.6-1.5,1.2-3,1.8-4.6c0.1-0.1-0.1-0.3-0.2-0.4c-0.8-0.2-1.4-0.8-1.9-1.4c-0.4-0.5-0.9-1.2-0.9-1.9
					c0-0.4-0.6-0.4-0.6,0c0,0.8,0.5,1.6,1,2.2c0.6,0.7,1.3,1.4,2.2,1.6c-0.1-0.1-0.1-0.2-0.2-0.4c-0.6,1.5-1.2,3-1.8,4.6
					c0.1-0.1,0.3-0.1,0.4-0.2c-2.6-1.5-4.6-4.2-4.9-7.3c-0.1,0.1-0.1,0.2-0.2,0.3c1.2-0.3,2.5-0.4,3.8-0.5
					C1008,409.4,1007.8,408.9,1007.4,408.9L1007.4,408.9z"/>
			</g>
		</g>
		<g>
			<path class="st14" d="M1011.6,412.7c0.4,1.6,0.8,3.1,1.2,4.7c1.8-0.2,3.6-1,4.8-2.3c1.3-1.3,2-3,2.1-4.7
				c-0.9-0.2-3.2-0.2-4.1-0.5C1015.1,411.5,1013.6,412.2,1011.6,412.7"/>
			<g>
				<path class="st15" d="M1011.3,412.8c0.4,1.6,0.8,3.1,1.2,4.7c0,0.1,0.2,0.2,0.3,0.2c3.8-0.5,7-3.4,7.2-7.3
					c0-0.1-0.1-0.3-0.2-0.3c-1.3-0.4-2.7-0.1-4.1-0.5c-0.1,0-0.3,0-0.3,0.1c-0.7,1.6-2.3,2.3-3.9,2.6c-0.4,0.1-0.2,0.7,0.2,0.6
					c1.8-0.4,3.6-1.1,4.3-2.9c-0.1,0-0.2,0.1-0.3,0.1c1.3,0.4,2.7,0.1,4.1,0.5c-0.1-0.1-0.1-0.2-0.2-0.3c-0.2,3.6-3.2,6.3-6.7,6.7
					c0.1,0.1,0.2,0.1,0.3,0.2c-0.4-1.6-0.8-3.1-1.2-4.7C1011.8,412.2,1011.2,412.4,1011.3,412.8L1011.3,412.8z"/>
			</g>
		</g>
		<g>
			<path class="st13" d="M993.2,412.8c-5,1.6-16.2,7.9-20.6,10.5c-16.1,9.3-33.4-21.6-16.7-37.1c11.8-10.9,16.1-13.1,20.4-13.8
				c0,0-7.3-14-8.8-17.4C929,365.2,921,396.4,920.8,408c-0.2,13.4,8.4,50.2,55.3,44.4C979.2,437,986.4,427.2,993.2,412.8"/>
		</g>
		<g>
			<path class="st13" d="M1020.1,411.4c8.3,0.2,24.2,7.5,28.6,10.2c16,10,42.4-12.8,22.7-34.3c-7.4-8.1-11.9-8.6-25.1-15.5
				c3.2-5.8,4.2-15,7.4-19.2c47.7,14.6,49.9,42.9,49.6,59.7c-0.2,13.6-12.1,45.9-59.3,38.6c-2.6-15.7-18.1-26.8-20-30.6
				C1022,416.5,1020.1,413.4,1020.1,411.4"/>
		</g>
		<g>
			<path class="st10" d="M1006.5,399.6c-0.9-3.4-0.9-11.1,0.1-14.5c0.4-1.3,0.9-2.5,2-3.4c1-0.9,2.7-1.2,3.8-0.4
				c0.7,0.4,1.1,1.2,1.9,1.4c1.8,0.4,2.9-2.3,4.8-2.2c1.1,0.1,1.8,1.1,2.5,2c0.6,0.9,1.7,1.8,2.7,1.3c0.6-0.3,0.9-0.9,1.5-1.2
				c1-0.4,2.1,0.4,2.8,1.1c1,1.1,2,2.9,1,4.1c-0.7,0.8-1.9,0.9-3,0.7c-1.1-0.2-2.1-0.6-3.1-0.7c-1.1,0-2.3,0.5-2.5,1.5
				c-0.1,0.6,0.1,1.2,0.2,1.8c0,0.6-0.4,1.3-1,1.3c-0.2,0-0.4-0.1-0.6-0.2c-0.7-0.4-1.3-0.8-2-1.2c-0.8,3.3-1.4,6.6-1.8,10
				c0-2.2,0-4.4,0-6.6c-2.4-0.5-4.9-0.7-7.4-0.7c-0.5,0-1,0-1.3,0.3c-0.4,0.3-0.5,0.9-0.5,1.4
				C1006.5,396.7,1006.5,398.1,1006.5,399.6"/>
		</g>
		<g>
			<g>
				<path class="st15" d="M1007.8,395.9C1007.8,395.9,1007.9,395.8,1007.8,395.9C1007.8,395.9,1007.9,395.9,1007.8,395.9
					c0-0.1,0.1-0.1,0.1-0.1c0,0,0,0,0,0c0,0,0.1-0.1,0.1-0.1c0.1-0.1,0,0,0,0c0,0,0,0,0.1,0c0,0,0,0,0.1,0c0,0,0,0,0,0c0,0,0,0,0,0
					c0,0,0.1,0,0.1,0c0,0,0,0,0.1,0c-0.1,0,0,0,0,0c0,0,0,0,0.1,0c0,0,0.1,0,0,0c0,0,0,0,0,0c0,0,0,0,0.1,0c0,0,0.1,0,0,0
					c0,0,0,0,0.1,0c0,0,0.1,0,0.1,0.1c-0.1,0,0,0,0,0c0,0,0,0,0.1,0.1c0,0,0.1,0.1,0,0c0,0,0,0,0,0c0,0,0,0.1,0.1,0.1c0-0.1,0,0,0,0
					c0,0,0,0,0,0.1c0,0.1,0-0.1,0,0c0,0,0,0,0,0.1c0,0.2,0.1,0.3,0.3,0.3c0.2,0,0.3-0.1,0.3-0.3c0-0.6-0.5-1-1-1.1
					c-0.6-0.1-1.1,0.3-1.3,0.8c0,0.1,0.1,0.3,0.2,0.4C1007.6,396.2,1007.8,396.1,1007.8,395.9L1007.8,395.9z"/>
			</g>
		</g>
		<g>
			<g>
				<path class="st15" d="M1012.2,396.1c0,0,0-0.1,0.1-0.1c0,0,0,0.1,0,0c0,0,0,0,0,0c0,0,0.1-0.1,0.1-0.1c0,0,0,0,0,0c0,0,0,0,0,0
					c0,0,0.1,0,0.1-0.1c0,0,0,0,0.1,0c0,0,0,0,0,0c0,0,0.1,0,0.1,0c0,0,0,0,0.1,0c-0.1,0,0,0,0,0c0,0,0,0,0.1,0c0.1,0,0,0,0,0
					c0,0,0.1,0,0.1,0c0,0,0.1,0,0.1,0c0,0-0.1,0,0,0c0,0,0.1,0,0.1,0.1c0,0,0,0,0,0c0,0,0,0,0,0c0,0,0,0.1,0,0c0,0,0,0,0,0
					c0,0,0,0,0,0.1c0,0,0-0.1,0,0c0,0,0,0.1,0,0.1c0,0,0,0,0,0c0,0,0,0,0,0c0,0.2,0.1,0.3,0.3,0.3c0.2,0,0.3-0.1,0.3-0.3
					c0-0.5-0.5-0.9-1-0.9c-0.5,0-0.9,0.3-1.2,0.7c-0.1,0.1,0,0.3,0.1,0.4C1011.9,396.3,1012.1,396.3,1012.2,396.1L1012.2,396.1z"/>
			</g>
		</g>
		<g>
			<g>
				<path class="st15" d="M1010,395.8c0,1.1,0,2.2-0.1,3.3c0,0.1,0.1,0.2,0.1,0.3c0.2,0.1,0.4,0.1,0.6,0.1c0.4-0.1,0.2-0.7-0.2-0.6
					c-0.1,0-0.1,0-0.2,0c0,0.1,0.1,0.2,0.1,0.3c0.1-1.1,0.2-2.2,0.1-3.3C1010.6,395.5,1010,395.5,1010,395.8L1010,395.8z"/>
			</g>
		</g>
		<g>
			<g>
				<path class="st15" d="M1008.2,400.5c1.2,1,3.1,1.2,4.3,0.3c0.3-0.2,0-0.7-0.3-0.5c-1.1,0.7-2.6,0.7-3.6-0.2
					C1008.3,399.8,1007.9,400.2,1008.2,400.5L1008.2,400.5z"/>
			</g>
		</g>
		<g>
			<path class="st5" d="M1009.4,410.1c-0.1,0.9,0.2,2.1,0.5,2.9c0.1,0.2,0.1,0.5,0.4,0.6c0.1,0.1,0.3,0.1,0.5,0.1
				c0.9,0,1.8,0,2.7-0.1c0.1,0,0.2,0,0.3-0.1c0-0.1,0.1-0.1,0.1-0.2c0.1-1.1,0.1-2.3-0.2-3.4c0-0.1,0-0.2-0.1-0.3
				c-0.1-0.1-0.2-0.1-0.3-0.2C1012,409,1010.6,409.5,1009.4,410.1"/>
		</g>
		<g>
			<path class="st5" d="M1018.3,422.1c-1.3-1.4-2.7-2.8-3.7-4.5c-1-1.6-1.7-3.5-1.8-5.3c0.9,0.8,2,1.5,2.9,2.3c2.1,2,3.2,5,2.8,7.9"
				/>
		</g>
		<g>
			<path class="st5" d="M1011.4,412.2c-1.1-0.2-2.2,0.6-2.9,1.3c-1,1-1.9,2.2-2.5,3.5c-1,2-1.4,4.2-3.1,5.7c1.1,0.1,2.3-0.4,3.2-1.1
				c0.9-0.7,1.6-1.6,2.2-2.5C1009.7,417,1010.7,414.6,1011.4,412.2"/>
		</g>
		<g>
			<path class="st5" d="M1015.2,406.9c-1.4,1.1-2.5,2.6-3.1,4.3c0.8-0.3-0.7,1.6,0.1,1.7c0.2,0,4.9-3.3,5.7-3.4
				c-0.8-0.8-1.7-1.6-2.5-2.4c0,0-0.1-0.1-0.1-0.1c0,0-0.1,0.1,0,0.1"/>
		</g>
		<g>
			<path class="st5" d="M1003.2,406.4c1.9,0.7,4.4,1.9,6.1,2.9c0.9,0.5,0.6,1.2,1.5,1.7c-0.3,0.1-0.5,0.4-0.6,0.6
				c-0.1,0.2-0.1,0.3-0.3,0.4c-0.1,0-0.1,0-0.2,0c-2.9-0.4-5.4-2.1-8.2-2.5C1001.9,408.4,1002.5,407.3,1003.2,406.4
				c0,0,0,0.1-0.1,0.1"/>
		</g>
		<g>
			<path class="st7" d="M986.2,651.3c0,5.6,1.4,25.3,0.3,28.1c-6.5,3.1-13.1,6.5-18.4,11.2c13-1.8,26.1-3.5,39.1-5.2
				c0-11,0.3-21.9,1.2-32.8C1000.9,652.4,993.6,651.9,986.2,651.3c0.4,0.1,0.8,0.1,1.1,0.1"/>
		</g>
		<g>
			<path class="st7" d="M1052.1,651.4c0,5.6-1.3,25.3-0.1,28.1c6.6,3.1,13.1,6.5,18.5,11.1c-13-1.7-26.1-3.3-39.1-5
				c0-11-0.5-21.9-1.3-32.8C1037.3,652.6,1044.7,652.1,1052.1,651.4c-0.4,0.1-0.8,0.1-1.1,0.1"/>
		</g>
	</g>
	<g>
		<g>
			<path class="st6" d="M392.2,425.5c-8.9-5.6-20.3-7.2-30.9-5.5c-10.6,1.7-20.5,6.3-29.3,12.1c-17.7,11.5-31.7,27.9-40.1,46.6
				c-12.5,28.1-12.1,60.6-27.1,87.6c-5.4,9.7-14.1,19.2-25.7,19.8c10,8.2,24.8,8.2,37.8,6c13-2.2,26.1-6.1,39.2-4.2
				c19.5,2.9,37,18.5,56.4,14.8c6.1-1.2,11.6-4.2,17.4-6.3c13.3-4.9,28.5-5,41.9-0.4c6.4,2.2,12.5,5.5,19.2,6.9
				c7.4,1.5,15.3,0.6,22-2.5c5-2.3,10.7-6,15.7-3.5c1.5,0.7,2.7,2,4.1,2.8c4.9,3,12.4,0.6,14.4-4.6c-5.5,1.7-10.3-3.8-12.7-8.8
				c-17.9-37.6-5.1-81.9-14.8-122.1c-3.2-13.1-9.2-26.3-20.5-34.3c-8.9-6.3-20.3-8.9-31.5-9c-11.1-0.1-22.2,2.1-33,4.6"/>
		</g>
		<g>
			<path class="st3" d="M436.8,526.2c13.2,17.7,25.4,36,36.7,54.8c0.5,0.8,1,1.7,1,2.6c0,0.7-0.2,1.5-0.5,2.2
				c-10.4,27.7-34.3,87.4-34.8,87.4c-8.2,0-11.7,0-19.9,0c2.9-12.9,18.5-64.7,24-77.2c0.4-0.8,0.7-1.6,0.6-2.5
				c-0.1-1-0.7-1.9-1.4-2.7c-12.7-16.5-50.8-58.5-53-60.5"/>
		</g>
		<g>
			<path class="st3" d="M407,540.2c-37.4,38.2-107.3,132.5-108.7,134.1c0,0-8.5-0.7-16.9-1.4c7.7-18.4,41.3-77.7,44.8-84
				c3.3-6,6.6-12,10.1-17.8c8.5-14.3,18.3-27.9,29.1-40.7c1.8-2.1,3.7-4.3,6.1-5.7c2.9-1.7,6.3-2.2,9.7-2.7
				c9.8-1.4,19.6-2.8,29.4-4.2c0.7-0.1,1.4-0.2,2,0.3c0.4,0.3,0.5,0.8,0.6,1.2c0.8,3.3,1.5,6.7,2.3,10c0.2,1,0.4,2,0.1,2.9
				c-0.3,0.9-1.1,1.5-1.9,2.1c-2.6,2-5.2,4-7.8,6"/>
		</g>
		<g>
			<path class="st5" d="M397.8,415.7c-0.1,2-0.3,9.4,1.1,10.4c0.8,0.6,1.9,0.7,3,0.8c3.8,0.5,7.5,2,10.5,4.3
				c-4.3,1.4-9,1.3-13.6,1.1c-6.1-0.2-12.2-0.4-18.3-0.5c1-1.7,3.3-2.4,5.3-2.9c2.4-0.6,4.7-1.4,7.1-2.3c0.7-0.3-0.1-9.1-0.3-12.1"
				/>
		</g>
		<g>
			<path class="st5" d="M392,405.2c0.2-1.2,1.4-2.1,2.7-2.3c1.3-0.1,2.6,0.4,3.5,1.3c2.3,2.3,2.1,5.9,1.6,9
				c-0.2,1.6-0.5,3.3-1.8,4.3c-1.9,1.5-5.1,0.5-6.4-1.5c-1.4-2-1.4-4.5-1.2-6.9c0.2-1.7,0.5-3.4,1.7-4.6"/>
		</g>
		<g>
			<path class="st5" d="M399,412.4c0.4-0.4,1.1-0.2,1.5,0.2c0.3,0.4,0.4,1,0.3,1.5c0,0.3-0.1,0.5-0.3,0.7c-0.4,0.6-1.4,0.6-2.1,0.5
				c-0.2,0-0.3-0.1-0.4-0.2c-0.1-0.2,0-0.4,0-0.5c0.3-0.8,0.7-1.6,1-2.4"/>
		</g>
		<g>
			<path class="st5" d="M391.4,412.1c-0.2-0.8-1.4-0.9-2.1-0.5c-0.8,0.5-1.1,1.7-0.5,2.5c0.5,0.8,1.7,1.1,2.6,0.7
				c0-1,0.1-2.1,0.1-3.1"/>
		</g>
		<g>
			<g>
				<path class="st6" d="M397.2,412.7c0.2,0.5,0.4,0.9,0.6,1.4c0,0.1,0.1,0.2,0.1,0.3c0,0.1,0.1,0.1,0.1,0.2c0,0.1,0,0.1,0,0.2
					c-0.1,0.1-0.3,0.1-0.4,0.1c-0.1,0-0.2,0-0.4,0c0,0,0,0.1,0,0.1c0,0,0,0,0.1,0c0.1,0,0-0.2-0.1-0.1c0,0,0,0-0.1,0
					c-0.1,0,0,0.1,0,0.1c0.3,0,0.5,0,0.8-0.1c0.3-0.1,0.1-0.4,0-0.6c-0.2-0.6-0.5-1.1-0.7-1.7C397.3,412.5,397.2,412.6,397.2,412.7
					L397.2,412.7z"/>
			</g>
		</g>
		<g>
			<path class="st6" d="M400.1,410.2c0.5-2.3,0.4-4.8-0.4-7.1c-0.5-1.5-1.5-3-3.1-3.3c-1-0.1-1.9,0.2-2.8,0.5
				c-3.5,1.2-7.3,2-10.8,0.8c1.6,1.2,3.2,2.2,4.9,3.3c-3.3,0-6.8,1.5-9.9,0.3c1.6,0.9,3.4,1.6,5.2,2.2c-2.3,0.8-4.8,1.2-7.3,1.2
				c4.7,1.3,9.6,2.4,14.4,3.1c0.4,1.2,0.7,2.4,1.1,3.5c0.1,0.2,0.2,0.5,0.4,0.3c-0.1-2.1-0.2-4.2-0.4-6.2c2.6-0.1,5.2-0.2,7.8-0.4
				c0.5,1.8,0.1,6.1,0.7,5.4c0-1.5,0.2-3.1,0.2-4.6"/>
		</g>
		<g>
			<g>
				<path class="st6" d="M393.7,412.5c0.1,0.3,0.4,0.6,0.8,0.5c0.3,0,0.5-0.3,0.6-0.6c0-0.1-0.1-0.2-0.1-0.1
					c-0.1,0.2-0.2,0.5-0.5,0.5c-0.3,0-0.5-0.2-0.6-0.4C393.8,412.3,393.7,412.4,393.7,412.5L393.7,412.5z"/>
			</g>
		</g>
		<g>
			<g>
				<path class="st6" d="M398.1,412.2c0,0.2,0.3,0.4,0.5,0.3c0.2,0,0.4-0.2,0.5-0.5c0,0,0-0.1,0-0.1c0,0-0.1,0-0.1,0
					c0,0,0,0-0.1,0.1c0,0,0,0.1,0,0.1c0,0,0.1,0,0.1,0c0,0,0,0,0.1-0.1c0,0-0.1,0-0.1-0.1c0,0.2-0.1,0.3-0.3,0.4
					c-0.1,0-0.3-0.1-0.4-0.2C398.3,412.1,398.2,412.1,398.1,412.2C398.1,412.1,398.1,412.2,398.1,412.2L398.1,412.2z"/>
			</g>
		</g>
		<g>
			<g>
				<path class="st6" d="M394.2,415.9c0.3,0.2,0.6,0.4,1,0.5c0.2,0,0.3,0.1,0.5,0.1c0.1,0,0.2,0,0.3,0c0,0,0.1,0,0.1,0
					c0,0,0.1,0,0.1,0c0,0,0,0,0-0.1c0,0,0,0,0,0c0,0,0,0,0-0.1c0,0,0,0,0,0c0,0,0,0,0.1,0c0,0,0,0,0,0c-0.1-0.1-0.2,0-0.1,0.1
					c0,0,0,0,0,0c0,0,0,0,0.1,0c0.1,0,0.1-0.1,0.1-0.1c0-0.1-0.1-0.1-0.2-0.1c-0.2,0-0.4,0-0.7,0c-0.4-0.1-0.8-0.2-1.2-0.5
					C394.2,415.7,394.2,415.8,394.2,415.9L394.2,415.9z"/>
			</g>
		</g>
		<g>
			<g>
				<path class="st6" d="M394.2,415.9c0.1,0.4,0.3,0.8,0.6,1.1c0,0,0.1-0.1,0.1-0.1c0,0,0,0-0.1-0.1c-0.1-0.1-0.2,0-0.1,0.1
					c0,0,0,0,0.1,0.1c0.1,0.1,0.2,0,0.1-0.1c-0.3-0.3-0.5-0.6-0.6-1C394.4,415.7,394.2,415.8,394.2,415.9L394.2,415.9z"/>
			</g>
		</g>
		<g>
			<path class="st7" d="M389.1,426.4c1,2.5,3.9,4.2,6.7,4c2.8-0.2,5.4-2.4,5.9-5c6.4,0.7,14.2,1.6,19.1,5.6
				c11.7,9.5,17,65.4,17.1,94.6c0,0.6,0,1.2-0.3,1.6c-0.4,0.7-1.4,1-2.2,1.2c-22,5.8-45.5,6.6-68,2.3c-0.5-0.1-1.1-0.2-1.5-0.6
				c-0.4-0.3-0.5-0.8-0.6-1.2c-1.6-5.7-4.2-64.4-2.1-78.3c1-6.7,2.6-13.9,7.9-18.4c4.7-4,11.4-5.1,17.6-6"/>
		</g>
		<g>
			<path class="st7" d="M313.2,657.1c-2.6,6.7-9.3,14.5-12.1,22c4.5,4,8.4,6.6,12.9,10.6c-11.4,1-29.5,0.3-41.5-0.1
				c4.3-11.2,11.5-23.5,16.1-35.7C296.1,654.5,307.2,656.4,313.2,657.1"/>
		</g>
		<g>
			<path class="st7" d="M447.6,657.1c-2.6,7.6-5.8,14-8.6,21.5c4.5,4,9.2,7.8,13.7,11.7c-11.4,1-32.5-0.2-44.5-0.6
				c4.3-11.2,8.2-22,12.8-34.1c7.5,0.6,25.7,1.5,25.7,1.5c0.3,0.1,0.6,0.2,0.7,0.4c0,0.3-0.6,0.3-0.4,0"/>
		</g>
		<g>
			<path class="st2" d="M350.5,541.4c-3.3-2-7.2-3-11.1-3.1c-0.9,0-1.9,0.1-2.4,0.8c-0.4,0.5-0.3,1.2-0.1,1.8
				c1.1,4.1,5.4,7.3,10,7.3c5.3-0.1,9.6-3.9,13.3-7.5c1.1-1.1,2.2-2.2,2.8-3.5c0.5-1.4,0.4-3.1-0.9-4.1c-1.8-1.4-4.5-0.2-6.1,1.5
				c-1.5,1.7-2.5,3.8-4.5,4.9c-0.4,0.2-1.1,0.4-1.4,0c-0.3-0.4,0.7-0.9,0.6-0.4"/>
		</g>
		<g>
			<path class="st7" d="M384.2,426.9c-16.3,0.7-22.7,8.3-25.8,11.2c-18.4,17.4-56.7,41.2-51,50.4c12.5,19,27,36.8,43.3,53
				c2.8-3.9,6-4.6,10.5-6.5c-2.7-3.6-16.1-35.2-21-44.7c10-7,17.4-11.5,27.4-18.5c1.3-0.9,2.2-4.3,2.8-5.7c0.6-1.2,0.7-2.5,0.7-3.8
				c0.4-10.3,5.4-20.2,5.8-30.5c-1-0.7,1.7-1.8,1-0.9"/>
		</g>
		<g>
			<path class="st2" d="M350.5,541.8c-9.7-7.6-18.6-16.2-26.5-25.5c9.5-2.5,18.5-6.7,26.3-12.4c3.1,8.3,6.1,16.6,9.2,24.8
				c0.7,1.9,1.5,3.9,3.1,5.2c-3.7,3.4-7.8,6.4-12.2,9"/>
		</g>
		<g>
			<path class="st7" d="M364.5,531.5c4.9,0.1,33.5,15.5,33.4,18.3c2.4-0.2,7.2-0.6,9.5,0c7.5-10.8,18.7-16.7,31.5-21.3
				c-1.1-1.5-0.8-5.7-1-7.6c-8,0.2-17.1,2.8-25,4.3c-4.8,0.9-9.4,2.3-14.3,3c-11.4,1.6-22.9-0.9-34.1-3.4
				C364.6,526.5,364.4,529.9,364.5,531.5"/>
		</g>
		<g>
			<path class="st16" d="M393.4,424.3c-15-8.3-34.3-9.4-50.3-2.8c-14.4,6-25.4,17.3-35.7,28.5c-3.4,3.7-6.8,7.5-9.5,11.7
				c-2.5,3.9-4.3,8.1-6.2,12.3c-3,6.9-6,13.7-8.5,20.8c-6,17-8.9,34.9-15.5,51.7c-6.6,16.8-18,33-35.3,40.3
				c7.8,10.6,16.4,20.7,25.9,30c23.2-17.3,37.7-44.6,38.7-72.5c0.3-7.8-0.5-15.7-0.2-23.5c0.6-21.2,8.7-42,22.6-58.7
				c13.9-16.6,33.5-28.8,55.1-34.3c4.8-1.2,9.6-2.1,14.5-2.3c2.2-0.1,4.4,0,6.6,0.1"/>
		</g>
		<g>
			<path class="st16" d="M397.7,424.6c7.2-6,21.4-6.7,31-6.4c7.9,0.2,15.9,0.4,23.2,3.1c10,3.7,17.6,11.8,22.5,20.8
				c4.8,9.1,7.1,19.1,9,29.1c3.6,18.7,5.9,37.5,6.9,56.5c0.5,9.6,0.7,19.2,3.1,28.5c3.8,14.5,13.1,27.7,25.8,36.6
				c-9.9,9.5-20.4,18.4-31.5,26.6c-2.1-2.7-3.9-5.6-5.4-8.6c-7.8-15.8-6.6-34-6.9-51.5c-0.2-13.3-1.4-26.5-2.6-39.7
				c-0.9-9.9-1.7-19.8-2.6-29.6c-1.2-13.9-2.5-28-7.6-41.1c-2.5-6.3-6-12.4-11.5-16.6c-4.8-3.6-10.8-5.5-16.7-7
				c-12.5-3.3-24.1-4.6-35.7,0.8"/>
		</g>
		<g>
			<path class="st7" d="M405.7,425.8c42.5-5,62-15.6,81-22.8c11.7-4.5,24.8-9.8,35.4-15.7c2,5.1,3.4,8.9,5.4,14
				c0.3,0.7,0.6,1.6,0.3,2.3c-0.3,0.7-10.3,3.5-11,3.9c-23.5,14-45.5,26.3-63.1,36.3c-10.9,6.2-26.2,13.7-32,18.1
				c-3.5-14.4-10.4-21.7-16-35.5"/>
		</g>
		<g>
			<path class="st2" d="M485.3,401.7c2.9,7.1,7.2,14,11.4,20.5c7.1-4.4,14.2-8.7,21.3-13.1c2.1-1.3,4.3-2.7,6-4.5
				c1.1-1.1,1.9-2.5,3-3.7c3.3-3.9,8.2-6.3,13.2-7.8c2.7-0.8,5.9-1.8,6.9-4.3c0.8-1.9,0-4.1-1.6-5.5c-1.5-1.4-3.7-2-5.8-2.2
				c-6.7-0.6-12.9,2.7-19,5.3C509,391.8,496.9,396.9,485.3,401.7"/>
		</g>
		<g>
			<path class="st17" d="M520.1,407.1c5.9-0.8,11.3-3.4,16.9-5.4c0.6-0.2,1.2-0.5,1.6-1c0.7-1-0.3-2.3-1.4-2.7
				c-1.2-0.4-2.4,0-3.6,0.2c-4,0.8-8.3,0.5-12.2-0.9C521.2,397.3,512,408.2,520.1,407.1z"/>
		</g>
		<g>
			<path class="st16" d="M391.1,423.2c2.8,0.8,10.2,5,12.6,10.1c-2.1-0.7-9.5-6-11.4-6.5c-3.1-0.9-6.4-1.3-9.6-1.1
				c1.9-1.1,4.1-1.6,6.3-2.1c1-0.2,2.1-0.5,3-0.1"/>
		</g>
		<g>
			<path class="st16" d="M398.5,424.2c-3.9,2.1-6.6,6.2-6.8,10.5c1.7-3.9,4.8-7.4,8.7-9.6c-0.3-0.5-0.6-1.1-0.8-1.6
				c-0.1,0.1-0.2,0.1-0.3,0.2"/>
		</g>
		<polygon class="st2" points="418.3,489.5 402.2,483.1 387.5,492 389,475.5 375.5,465 392.5,461.3 398.9,445.9 407.9,460 
			425.4,461 414,473.5 		"/>
	</g>
	<g>
		<g>
			<path class="st18" d="M1572.3,449.5c-8-28.6,23.6-37.5,28.7-27.9c0,0,14.1-18.9,61.7,21.3c14.7,12.4,20.9,32.8,25,51
				c3.1,13.6,6.2,27.2,9.2,40.8c2.5,11.1,5.1,22.3,10.5,32.5c10.9,20.4,47.2,63,31.8,69.4c-11.3,4.7-24.3-1.5-36.6-0.9
				c-9.3,0.4-18,4.9-24.9,10.8c-6,5.1-11.6,11.8-19.6,13c-11,1.6-22.2-7.9-32.5-4.1c-5.8,2.1-10.2,8.1-16.4,7.5
				c-4-0.4-6.9-3.6-9.4-6.5c-5.9-6.9-11.6-13.9-17.3-21c-5.5-6.9-10.8-14-14.1-22.1c-4.7-11.6-4.7-24.3-3.5-36.7
				c1.1-11.5,3.2-22.9,6.3-34.1c3.7-13.5,8.8-26.6,12.6-40c7-25.2,8.9-51.5,10.8-77.5"/>
		</g>
		<g>
			<path class="st19" d="M1568,517.1c-11,15.6-19.5,29.2-30.2,46.4c-0.9,1.4-2.3,5.1-2.6,6.7c-0.4,1.7,0.3,3.5,0.9,5.1
				c12.5,31.8,25.7,63.3,39.6,94.6c0.9,2,1.9,4.1,3.9,5.1c1.3,0.7,2.9,0.7,4.4,0.8c5.3,0.1,10.6,0.2,15.9,0.4
				c3.9-30.2-3.3-61.6-19.9-87.4c-1.4-2.1-2.8-4.3-2.9-6.8c-0.1-2.1,0.8-4.1,1.7-6.1c7.5-16.6,15.3-38.1,22.8-54.7
				c-11.8-1.8-23.7,0.3-35-3.5"/>
		</g>
		<g>
			<path class="st19" d="M1609,430c14.3,5.4,6.7,20.7-4.9,29.9c-10.5,8.3-25.3,13.6-38.1,16.6c-12.7,3.1-24.4,6-37.3,6.1
				c-2.7,0-5.6,0-7.5-1.7c-1.7-1.4-2.3-3.5-2.9-5.6c-5.9-20.8-9.7-42.4-11.5-64.2c7.2-2.3,14.3-4.5,21.5-6.8
				c1.4,8.2,2.8,16.5,4.2,24.7c1.2,7,1.9,14.6,6.4,19.9c5.4,6.4,10.6,4.3,16.5,1.6C1562.2,447.4,1594.6,424.6,1609,430z"/>
		</g>
		<g>
			<path class="st20" d="M1581.3,677.1c-5.1,3-10.2,6-15.3,9.1c-1.2,0.7-2.7,1.9-2.3,3.3c10,0.8,20.1,0.4,29.9-1.3
				c0.3,0,0.6-0.1,0.8-0.3c0.2-0.2,0.3-0.6,0.3-0.9c0.4-3.5,0.6-7.1,0.5-10.6c-4.5,0-8.9,0.1-13.4,0.1c-0.4,0-0.9,0-1.2,0.4
				c-0.3,0.3,0.1,1,0.5,0.8"/>
		</g>
		<g>
			<path class="st12" d="M1599.8,675.5c-7.5,4-14.7,8.5-21.5,13.7c0.8,1.3,2.7,1.5,4.3,1.5c10.7-0.2,21.4-0.3,32.1-0.5
				c0.6,0,1.4,0,1.9-0.4c0.7-0.5,0.7-1.5,0.7-2.4c-0.1-2.7-0.1-5.3-0.2-8c0-1.1-0.1-2.3-0.9-3.1c-0.7-0.7-1.7-0.8-2.7-0.9
				c-4.3-0.5-8.7-0.6-13-0.2"/>
		</g>
		<g>
			<path class="st21" d="M1614.3,424.6c-8.3,2.6-14.4,6.3-24,3.9c0.5-2.2,7.3-8.6,7.9-10.6c0.6-2.1,0-6,0.1-6.7
				c-1.4,0.2-3.1-0.1-4-2.7c-1.2-3.5-0.8-7.3-0.4-11c0.1-0.9,0.2-1.8,0.7-2.6c1-1.6,3.2-2.2,5-1.7c1.8,0.6,3.7,2.1,4.1,3.9l0,0
				c0.6,2.1,1.1,4.3,1.1,6.5c0.3,0.1,0.5,0.3,0.8,0.5c0.5,0.5,1.1,1,1.2,1.7c0.1,0.7-0.5,1.4-1.2,1.8c-0.6,0.3-2,0.4-2,0.4
				c-0.9,3.1,0.1,7.8,0.4,9.2C1604.2,418.6,1609.9,423.8,1614.3,424.6z"/>
		</g>
		<g>
			<path class="st22" d="M1604.6,405.1c0.7-1.5,2.8-3.9,3.4-4.1c2.5-1.2,3.9-4,3.5-6.6c-0.4-2.6-2.3-4.9-4.8-6
				c-2.5-1.2-5.4-1.3-8.1-0.7c-1.9,0.4-3.7,1.3-4.8,2.8c-1.2,1.7-1.2,4-0.5,5.9c0.1,0.4,0,9.7,0.3,9.9c0.3,0.2-0.7-7.6,1.1-8.1
				c2.8-0.8,6.1,0.3,8.4,2.1c0.5,0.5,1.1,1,1.1,1.7c0,0.4-0.2,0.8-0.4,1.1c-0.8,1.5-1.3,3.2-1.5,4.8c0.4,0.2,0.9,0.3,1.2,0.5
				C1603.8,407.3,1604.1,406.2,1604.6,405.1"/>
		</g>
		<g>
			<path class="st22" d="M1603.3,408.4c-0.7,1.6-1.9,2.5-3.6,3.2c-1.7,0.7-4.5,0.5-5.6-0.8c-1.4-1.6-0.9-3.2-0.6-4
				c0.1-0.3,0-0.7,0.3-0.8c0.5,1.1,1.4,2.2,2.7,2.4c2.3,0.5,3.7-1,3.6-1.1c-0.3-0.2-3.7-0.9-5.1-0.6c-0.3,0.1-1.3,0.6-1.5,0.3
				c-0.1-0.3-0.2-1.2,0-1.2c1.5-0.5,4-0.4,5.5,0c0.7,0.2,1.4,0.2,2.1,0.3c0.7,0.1,1.5-0.5,1.8-1.1"/>
		</g>
		<g>
			<g>
				<path class="st22" d="M1601.4,402c-0.4,0.3-0.8,0.6-1.3,0.6c-0.1,0-0.2,0-0.3-0.1c0,0-0.2-0.1-0.2-0.1c0,0-0.1-0.1-0.1-0.1
					c0,0,0,0.1,0,0c0,0,0,0,0-0.1c0,0,0,0,0,0c0,0,0-0.1,0-0.1c0,0,0,0,0,0c0,0,0-0.1,0-0.1c0-0.2-0.2-0.3-0.3-0.3
					c-0.2,0-0.3,0.2-0.3,0.3c0,0.7,0.6,1.2,1.2,1.3c0.7,0.1,1.4-0.3,2-0.7c0.1-0.1,0.1-0.4,0-0.5
					C1601.7,401.9,1601.5,401.9,1601.4,402L1601.4,402z"/>
			</g>
		</g>
		<g>
			<g>
				<path class="st22" d="M1596.2,401.3c-0.2,0.1-0.4,0.2-0.6,0.3c-0.2,0.1-0.4,0.1-0.6,0.1c0,0,0,0-0.1,0c-0.1,0,0,0,0,0
					c0,0-0.1,0-0.1,0c0,0-0.1,0-0.1,0c-0.1,0,0,0,0,0c0,0-0.1,0-0.1-0.1c0,0,0,0-0.1,0c0,0,0,0,0,0c0,0-0.1-0.1-0.1-0.1c0,0,0,0,0,0
					c0,0,0,0,0-0.1c0-0.1,0,0,0,0c0,0,0,0,0-0.1c0-0.2-0.2-0.3-0.4-0.2c-0.2,0-0.3,0.2-0.2,0.4c0.1,0.5,0.7,0.8,1.2,0.9
					c0.6,0.1,1.1-0.2,1.6-0.5c0.1-0.1,0.2-0.3,0.1-0.5C1596.5,401.3,1596.3,401.2,1596.2,401.3L1596.2,401.3z"/>
			</g>
		</g>
		<g>
			<g>
				<path class="st22" d="M1597.2,401.4c0,1.3-0.4,2.6-1.1,3.8c-0.1,0.1,0,0.4,0.1,0.5c0.3,0.1,0.6,0.3,0.9,0.4
					c0.2,0.1,0.4,0,0.5-0.1c0.1-0.1,0-0.4-0.1-0.5c-0.3-0.1-0.6-0.3-0.9-0.4c0,0.2,0.1,0.3,0.1,0.5c0.8-1.2,1.2-2.7,1.2-4.1
					C1597.9,401,1597.2,401,1597.2,401.4L1597.2,401.4z"/>
			</g>
		</g>
		<g>
			<path class="st22" d="M1636.7,520.5c-5.8,52-11.6,103.9-17.5,155.9c-0.1,0.8-0.2,1.8-0.9,2.3c-0.6,0.5-1.5,0.4-2.3,0.4
				c-7-0.5-14.1-1-21.1-1.5c-12.2-50.9-12.2-104.2-13.4-156.4c20.2-3.6,34.2-2.8,54.4,0.1"/>
		</g>
		<g>
			<path class="st22" d="M1639.3,529l-77.5-3.1c-0.2-17.3,2.4-62,6.6-79.9c3.2-13.7,18.3-24.5,27.7-25.8c0,0,6.7,6.5,5.4,6.1
				l7.5-5.6c9.2,1,23.6,12.2,26.5,20.5c2.9,8.3,3.9,15.7,3.4,24.4C1638.3,475.7,1639.9,519,1639.3,529z"/>
		</g>
		<g>
			<path class="st21" d="M1542,518.5c-0.2-0.1-1.1-0.3-1.3-0.4c-3.7-1.6-7.7-2.8-11.7-3.6c-0.4-0.1-0.9-0.2-1.3,0.1
				c-0.8,0.4-0.5,1.6,0.1,2.3c0.6,0.7,3.8,1.6,3.7,2.5c-4.2,0.6-11.1-2.6-14.9-0.7c-0.2,2.3,6.3,2.8,9.5,3.4c0,0-1.9,0-2.9,0
				c-3-0.1-9.1-1-9,1c2.4,3.2,8.3,2,11.4,3.1c-2.2,0.1-4.3,0.2-6.5,0.3c-0.6,0-1.2,0.1-1.5,0.5c-0.6,0.9,0.6,1.8,1.7,2.2
				c2.8,0.9,5.8,1.4,8.8,1.6c0,0,0,0,0,0l0.1,0c-1.7,0.1-5.4,0.5-5.3,1.6c0.8,1.4,1.6,1.5,3.3,1.5c5.8,0.1,12,0.3,17.8-0.1
				C1544,533.7,1543.3,519,1542,518.5z"/>
		</g>
		<g>
			<path class="st21" d="M1523.9,405.3c0-0.2,0-1.1,0.1-1.3c0.8-3.8,1.1-7.7,1-11.6c0-0.4-0.1-0.9-0.4-1.2c-0.6-0.6-1.8-0.1-2.4,0.6
				c-0.6,0.7-0.8,3.8-1.7,4c-1.6-3.7,0.1-10.8-2.7-13.9c-2.4,0.3-1.4,6.5-1.3,9.5c0,0-0.5-1.7-0.7-2.6c-0.6-2.8-1-8.6-3.1-8.1
				c-2.7,2.9-0.2,8.1-0.6,11.2c-0.6-2-1.2-3.9-1.8-5.9c-0.2-0.5-0.4-1.1-0.9-1.3c-1-0.4-1.7,1-1.8,2c-0.3,2.8-0.1,5.6,0.3,8.5
				c0,0,0,0,0,0l0,0.1c-0.5-1.5-1.8-4.8-2.9-4.5c-1.2,1-1.2,1.9-0.8,3.4c1.2,5.4,2.5,11.1,4.2,16.4
				C1508.7,410.6,1523.6,406.6,1523.9,405.3z"/>
		</g>
		<g>
			<path class="st19" d="M1608.2,439.4c7.7-12.9,21.8-4.5,29.1,6.9c6.6,10.3,9.6,24.5,10.6,36.6c1.1,12,2.1,23.1,0.2,35
				c-0.4,2.5-0.9,5.1-2.8,6.9c-1.6,1.4-2.4,4.2-14,6c-21.8,3.5-64.8,8.1-87,8c-1.1-6.8-3.4-16-4.5-22.8c8.5-0.6,46.9-5.1,55.3-5.8
				c7.2-0.6,25.5-4.9,22.1-24.2C1616,479.3,1600.5,452.3,1608.2,439.4z"/>
		</g>
		<g>
			<path class="st23" d="M1601.6,426.6c0.8-3.4,12.5-4.7,16.4-3.7c15.3,3.9,25.8,17.7,30.4,32c4.6,14.3,4.5,29.6,5.9,44.5
				c3,32.8,13.5,65.2,32.4,92.8c18.9,27.6,46.4,50.3,78.8,62.3c3.4-16.2,6.8-32.3,10.2-48.5c-14.9,1.3-28.2-7.3-40.1-15.8
				c-48.6-34.7-38.5-92.3-55.1-129.9c-9.8-22.2-18.1-26.4-23.8-32.3c-5.6-5.7-12.7-10-20.4-12.5c-5.8-1.8-16.2-3.5-25.3,0.1
				C1605.4,417.8,1602.5,420.9,1601.6,426.6"/>
		</g>
		<g>
			<path class="st18" d="M1591.9,418.1c2.5-0.3,4.5-0.1,6,1.8c2,2.5,3.4,4.9,3.9,5.7c0.1,0.2,0.3,0.4,0.4,0.6
				c0.2,0.2,0.6,0.4,0.9,0.6c2.3,1.2,4.2,3.3,4.7,5.7c0.3,1.6,0.1,3.3-0.2,5c-2.6-1.5-4.5-3.8-5.5-6.5c-0.3-0.9-0.5-1.8-0.6-2.7
				c0-0.2-0.1-0.5-0.2-0.7c-0.1-0.2-0.4-0.3-0.6-0.5c-5.5-5-11.3-5-13-4.7c0.7-0.9,3.4-3.5,4-4.4"/>
		</g>
		<g>
			<path class="st23" d="M1605.9,419.2c-2.6,1.8-4.3,4.8-4.5,7.8c-1.6,0.2-3.3,0.5-4.6,1.4c-0.7,0.5-1.2,1.1-1.7,1.7
				c-1.7,2.1-3,4.7-2.2,7.2c3.9-1.9,7-5.2,8.5-9.1c0.2-0.4,0.3-0.7,0.5-1.1c0.2-0.3,0.4-0.5,0.6-0.7c1.6-1.6,3.2-3.3,5.3-4.5
				c-0.2-0.6-0.5-1.2-0.7-1.7c-0.2-0.4-0.4-0.8-0.8-1.1c-0.4-0.2-1-0.1-1.1,0.4"/>
		</g>
	</g>
	<g>
		<g>
			<g>
				<path class="st1" d="M82.6,431.3c0,6.7,0,13.4,0,20c0,1.6,2.5,1.6,2.5,0c0-6.7,0-13.4,0-20C85.1,429.6,82.6,429.6,82.6,431.3
					L82.6,431.3z"/>
			</g>
		</g>
		<g>
			<g>
				<path class="st1" d="M73.9,442.6c6.4-0.3,12.8-0.2,19.2,0.3c1.6,0.1,1.6-2.4,0-2.5c-6.4-0.5-12.8-0.7-19.2-0.3
					C72.3,440.2,72.3,442.7,73.9,442.6L73.9,442.6z"/>
			</g>
		</g>
	</g>
	<g>
		<g>
			<g>
				<path class="st1" d="M1752.8,351.1c0,6.7,0,13.4,0,20c0,1.6,2.5,1.6,2.5,0c0-6.7,0-13.4,0-20
					C1755.3,349.5,1752.8,349.5,1752.8,351.1L1752.8,351.1z"/>
			</g>
		</g>
		<g>
			<g>
				<path class="st1" d="M1744.1,362.4c6.4-0.3,12.8-0.2,19.2,0.3c1.6,0.1,1.6-2.4,0-2.5c-6.4-0.5-12.8-0.7-19.2-0.3
					C1742.5,360,1742.5,362.5,1744.1,362.4L1744.1,362.4z"/>
			</g>
		</g>
	</g>
	<g>
		<g>
			<g>
				<path class="st1" d="M1062.1,484.2c0,6.7,0,13.4,0,20c0,1.6,2.5,1.6,2.5,0c0-6.7,0-13.4,0-20
					C1064.6,482.6,1062.1,482.6,1062.1,484.2L1062.1,484.2z"/>
			</g>
		</g>
		<g>
			<g>
				<path class="st1" d="M1053.4,495.6c6.4-0.3,12.8-0.2,19.2,0.3c1.6,0.1,1.6-2.4,0-2.5c-6.4-0.5-12.8-0.7-19.2-0.3
					C1051.8,493.1,1051.8,495.6,1053.4,495.6L1053.4,495.6z"/>
			</g>
		</g>
	</g>
	<g>
		<g>
			<g>
				<path class="st1" d="M466.4,442.2c0,6.7,0,13.4,0,20c0,1.6,2.5,1.6,2.5,0c0-6.7,0-13.4,0-20C469,440.6,466.4,440.6,466.4,442.2
					L466.4,442.2z"/>
			</g>
		</g>
		<g>
			<g>
				<path class="st1" d="M457.8,453.6c6.4-0.3,12.8-0.2,19.2,0.3c1.6,0.1,1.6-2.4,0-2.5c-6.4-0.5-12.8-0.7-19.2-0.3
					C456.2,451.2,456.2,453.7,457.8,453.6L457.8,453.6z"/>
			</g>
		</g>
	</g>
	<g>
		<path class="st1" d="M751,301.3c1.7-2.4,2-5.9,0.7-8.6c-1.3-2.7-4.2-4.5-7.1-4.4c3.5-6.4,1.2-15.4-4.8-19.2
			c-6-3.8-14.7-1.7-18.4,4.5c-0.4-2.8-2.8-5-5.5-5.2c-2.7-0.2-5.3,1.8-6.1,4.5c-2-1.5-4.3-2.5-6.7-3c-6.7-1.5-14.1,1-18.8,6.3
			c-4.7,5.3-6.4,13.3-4.4,20.2c-0.8-1.5-3-1.1-4.3,0c-1.6,1.3-2.8,3.7-1.8,5.5c0,0,51-0.8,76.7-0.1"/>
	</g>
	<g>
		<path class="st1" d="M767.5,472c-0.3,1.2-0.5,2.3-0.6,3.5c0,0.3,0.2,0.6,0.5,0.7c0.7,0.2,1.3,0.4,2,0.6c1.4,0.4,0.8,0.8,1.2,2.2
			c0.2,0.9,1.6,2.6,1.1,3.1c-0.6,0.7-1.1,1.4-1.7,2c-0.2,0.3-0.1,0.6,0.1,0.8c0.8,0.9,1.6,1.7,2.5,2.4c0.2,0.2,0.6,0.3,0.9,0.1
			c0.6-0.4,1.2-0.7,1.8-1.1c1.4-0.8,1.1-0.1,2.6,0.5c0.8,0.3,3.3,0.6,3.5,1.2c0.2,0.8,0.5,1.7,0.7,2.5c0.1,0.3,0.4,0.5,0.7,0.5
			c1.3,0,2.5-0.1,3.8-0.3c0.3,0,0.5-0.4,0.5-0.7c0.1-0.6,0.1-1.3,0.2-1.9c0.1-1.4,0.7-0.9,2.2-1.5c0.8-0.3,2.6-2,3-1.8
			c0.8,0.4,1.7,0.7,2.5,1.1c0.3,0.1,0.7,0.1,0.9-0.1c0.8-0.9,1.5-1.8,2.1-2.9c0.2-0.3,0.1-0.6-0.1-0.8c-0.7-0.6-1.5-1.3-2.2-1.9
			c0.3-1.3,1.1-5.3,0.7-5.1c0.9-0.4,1.9-0.9,2.8-1.3c0.3-0.1,0.4-0.5,0.3-0.8c-0.3-1.1-0.6-2.1-1.1-3.2c-0.2-0.4-0.5-0.5-0.9-0.5
			c-0.7,0.1-1.3,0.2-2,0.3c-1.7,0.2-0.8-0.5-2-1.6c-0.5-0.5-2.7-2-2.7-2.3c0.2-0.8,0.4-1.6,0.5-2.4c0.1-0.3,0-0.6-0.3-0.8
			c-1.2-0.5-2.3-0.9-3.6-1.3c-0.3-0.1-0.7,0.1-0.8,0.3c-0.3,0.5-0.7,1-1,1.6c-0.8,1.3-2.2,0.5-3.9,0.6c-0.8,0.1-1.9,0.8-2.4,0.3
			c-0.6-0.6-1.1-1.2-1.7-1.9c-0.2-0.2-0.6-0.2-0.9-0.1c-1.1,0.5-2.1,1-3.2,1.7c-0.3,0.2-0.5,0.5-0.3,0.8c0.2,0.6,0.5,1.2,0.7,1.7
			c0.6,1.4-0.2,1-1.2,2.3c-0.4,0.6-1.4,2.8-1.8,2.8c-0.9,0-1.8,0-2.7,0C767.9,471.5,767.6,471.7,767.5,472z M769.6,472.8
			c0.7,0,1.4,0,2.1,0c0.4,0,0.6-0.2,0.7-0.5c0.8-1.8,1.8-3.2,3.3-4.5c0.2-0.2,0.3-0.4,0.2-0.7c-0.2-0.4-0.3-0.7-0.5-1.1
			c-0.5-1.1-0.8-1.1,0-1.6c1.3-0.8,1.2-1.3,2.1-0.2c0.4,0.5,0.9,0.9,1.3,1.4c0.2,0.2,0.5,0.2,0.7,0.2c2.1-0.6,4-0.7,6.2-0.5
			c0.3,0,0.5-0.1,0.6-0.3c0.2-0.3,0.4-0.7,0.7-1c0.2-0.4,0.5-0.7,0.7-1.1c0.2-0.5,0.4-0.5,0.7,0.1c1.9,0.5,1.8-0.2,1.5,1.2
			c-0.1,0.6-0.3,1.2-0.4,1.8c-0.1,0.3,0.1,0.6,0.3,0.8c1.8,1.1,3.1,2.4,4.2,4.1c0.2,0.3,0.5,0.4,0.8,0.3c0.4-0.1,0.9-0.1,1.3-0.2
			c0.5-0.1,0.9-0.1,1.4-0.2c0.6-0.2,0.7,0,0.2,0.5c0.6,1.3,1.1,1.3-0.2,1.9c-0.6,0.3-1.2,0.6-1.8,0.8c-0.2,0.1-0.4,0.4-0.4,0.6
			c0.1,2-0.2,3.8-0.9,5.7c-0.1,0.3,0,0.6,0.2,0.7c0.3,0.3,0.6,0.5,0.9,0.8c0.3,0.3,0.7,0.6,1,0.9c0.5,0.3,0.5,0.5-0.2,0.6
			c-1,1.6-0.1,1.6-1.6,1c-0.6-0.3-1.3-0.5-1.9-0.8c-0.3-0.1-0.6-0.1-0.9,0.1c-1.7,1.4-3.1,2.1-5.2,2.7c-0.3,0.1-0.5,0.3-0.5,0.7
			c0,0.4-0.1,0.8-0.1,1.3c-0.2,2,0.3,1.4-1.8,1.5c-0.9,0.1-0.5,0.4-0.8-0.7c-0.2-0.6-0.3-1.3-0.5-1.9c-0.1-0.2-0.3-0.4-0.5-0.5
			c-2.1-0.4-3.9-0.9-5.7-2c-0.2-0.1-0.5-0.1-0.8,0c-0.4,0.2-0.8,0.5-1.2,0.7c-0.4,0.2-0.8,0.5-1.2,0.7c-0.4,0.4-0.6,0.3-0.6-0.3
			c-1.2-1-1.5-0.8-0.6-1.9c0.4-0.5,0.9-1,1.3-1.5c0.2-0.2,0.1-0.5,0-0.7c-1-1.7-1.6-3.2-1.8-5.1c0-0.3-0.2-0.6-0.5-0.7
			c-0.4-0.1-0.9-0.3-1.3-0.4c-1.9-0.6-1.5,0-1.2-1.8C768.8,472.2,768.1,472.8,769.6,472.8z"/>
		<path class="st1" d="M782.6,478.3c0.1,0,0.1,0.1,0.2,0.1c0.1,0,0.2,0,0.3,0c1.4,0.1,2.7-0.6,3.1-1.9c0.5-1.4-0.6-2.7-2-3.1
			c-1.5-0.4-3,0.6-3.4,1.8C780.4,476.5,781.3,477.8,782.6,478.3z M783.9,474.7c1.7,0.3,1.1,2.6-0.6,2.4
			C781.6,476.6,782.2,474.4,783.9,474.7z"/>
	</g>
	<g>
		<path class="st1" d="M1294.3,335.8c-0.3,1.2-0.5,2.3-0.6,3.5c0,0.3,0.2,0.6,0.5,0.7c0.7,0.2,1.3,0.4,2,0.6
			c1.4,0.4,0.8,0.8,1.2,2.2c0.2,0.9,1.6,2.6,1.1,3.1c-0.6,0.7-1.1,1.4-1.7,2c-0.2,0.3-0.1,0.6,0.1,0.8c0.8,0.9,1.6,1.7,2.5,2.4
			c0.2,0.2,0.6,0.3,0.9,0.1c0.6-0.4,1.2-0.7,1.8-1.1c1.4-0.8,1.1-0.1,2.6,0.5c0.8,0.3,3.3,0.6,3.5,1.2c0.2,0.8,0.5,1.7,0.7,2.5
			c0.1,0.3,0.4,0.5,0.7,0.5c1.3,0,2.5-0.1,3.8-0.3c0.3,0,0.5-0.4,0.5-0.7c0.1-0.6,0.1-1.3,0.2-1.9c0.1-1.4,0.7-0.9,2.2-1.5
			c0.8-0.3,2.6-2,3-1.8c0.8,0.4,1.7,0.7,2.5,1.1c0.3,0.1,0.7,0.1,0.9-0.1c0.8-0.9,1.5-1.8,2.1-2.9c0.2-0.3,0.1-0.6-0.1-0.8
			c-0.7-0.6-1.5-1.3-2.2-1.9c0.3-1.3,1.1-5.3,0.7-5.1c0.9-0.4,1.9-0.9,2.8-1.3c0.3-0.1,0.4-0.5,0.3-0.8c-0.3-1.1-0.6-2.1-1.1-3.2
			c-0.2-0.4-0.5-0.5-0.9-0.5c-0.7,0.1-1.3,0.2-2,0.3c-1.7,0.2-0.8-0.5-2-1.6c-0.5-0.5-2.7-2-2.7-2.3c0.2-0.8,0.4-1.6,0.5-2.4
			c0.1-0.3,0-0.6-0.3-0.8c-1.2-0.5-2.3-0.9-3.6-1.3c-0.3-0.1-0.7,0.1-0.8,0.3c-0.3,0.5-0.7,1-1,1.6c-0.8,1.3-2.2,0.5-3.9,0.6
			c-0.8,0.1-1.9,0.8-2.4,0.3c-0.6-0.6-1.1-1.2-1.7-1.9c-0.2-0.2-0.6-0.2-0.9-0.1c-1.1,0.5-2.1,1-3.2,1.7c-0.3,0.2-0.5,0.5-0.3,0.8
			c0.2,0.6,0.5,1.2,0.7,1.7c0.6,1.4-0.2,1-1.2,2.3c-0.4,0.6-1.4,2.8-1.8,2.8c-0.9,0-1.8,0-2.7,0
			C1294.7,335.3,1294.4,335.5,1294.3,335.8z M1296.4,336.7c0.7,0,1.4,0,2.1,0c0.4,0,0.6-0.2,0.7-0.5c0.8-1.8,1.8-3.2,3.3-4.5
			c0.2-0.2,0.3-0.4,0.2-0.7c-0.2-0.4-0.3-0.7-0.5-1.1c-0.5-1.1-0.8-1.1,0-1.6c1.3-0.8,1.2-1.3,2.1-0.2c0.4,0.5,0.9,0.9,1.3,1.4
			c0.2,0.2,0.5,0.2,0.7,0.2c2.1-0.6,4-0.7,6.2-0.5c0.3,0,0.5-0.1,0.6-0.3c0.2-0.3,0.4-0.7,0.7-1c0.2-0.4,0.5-0.7,0.7-1.1
			c0.2-0.5,0.4-0.5,0.7,0.1c1.9,0.5,1.8-0.2,1.5,1.2c-0.1,0.6-0.3,1.2-0.4,1.8c-0.1,0.3,0.1,0.6,0.3,0.8c1.8,1.1,3.1,2.4,4.2,4.1
			c0.2,0.3,0.5,0.4,0.8,0.3c0.4-0.1,0.9-0.1,1.3-0.2c0.5-0.1,0.9-0.1,1.4-0.2c0.6-0.2,0.7,0,0.2,0.5c0.6,1.3,1.1,1.3-0.2,1.9
			c-0.6,0.3-1.2,0.6-1.8,0.8c-0.2,0.1-0.4,0.4-0.4,0.6c0.1,2-0.2,3.8-0.9,5.7c-0.1,0.3,0,0.6,0.2,0.7c0.3,0.3,0.6,0.5,0.9,0.8
			c0.3,0.3,0.7,0.6,1,0.9c0.5,0.3,0.5,0.5-0.2,0.6c-1,1.6-0.1,1.6-1.6,1c-0.6-0.3-1.3-0.5-1.9-0.8c-0.3-0.1-0.6-0.1-0.9,0.1
			c-1.7,1.4-3.1,2.1-5.2,2.7c-0.3,0.1-0.5,0.3-0.5,0.7c0,0.4-0.1,0.8-0.1,1.3c-0.2,2,0.3,1.4-1.8,1.5c-0.9,0.1-0.5,0.4-0.8-0.7
			c-0.2-0.6-0.3-1.3-0.5-1.9c-0.1-0.2-0.3-0.4-0.5-0.5c-2.1-0.4-3.9-0.9-5.7-2c-0.2-0.1-0.5-0.1-0.8,0c-0.4,0.2-0.8,0.5-1.2,0.7
			c-0.4,0.2-0.8,0.5-1.2,0.7c-0.4,0.4-0.6,0.3-0.6-0.3c-1.2-1-1.5-0.8-0.6-1.9c0.4-0.5,0.9-1,1.3-1.5c0.2-0.2,0.1-0.5,0-0.7
			c-1-1.7-1.6-3.2-1.8-5.1c0-0.3-0.2-0.6-0.5-0.7c-0.4-0.1-0.9-0.3-1.3-0.4c-1.9-0.6-1.5,0-1.2-1.8
			C1295.6,336,1294.9,336.7,1296.4,336.7z"/>
		<path class="st1" d="M1309.4,342.1c0.1,0,0.1,0.1,0.2,0.1c0.1,0,0.2,0,0.3,0c1.4,0.1,2.7-0.6,3.1-1.9c0.5-1.4-0.6-2.7-2-3.1
			c-1.5-0.4-3,0.6-3.4,1.8C1307.2,340.3,1308.1,341.6,1309.4,342.1z M1310.7,338.5c1.7,0.3,1.1,2.6-0.6,2.4
			C1308.4,340.4,1309,338.2,1310.7,338.5z"/>
	</g>
	<path class="st1" d="M499.1,296.1c4.5,4.8,6.9,10.3,7.6,16.5c0,0,0,0,0,0.1c0,0.2,0,0.3,0.2,0.5c-1.2,2.1-1,3.8,0.1,5.1
		c-1.3,2.3-1.1,4.1,0.1,5.4c-3.1,5,1.3,7.7,7.5,8.6c1.8,4.9,14.8,4.4,15.2-0.8c5.7-1.5,9.1-4.2,5.2-7.8c1.9-1.4,2.4-3.3,0.2-5.4
		c1.8-1.5,2.1-3.3-0.2-5.5c1.6-2.3,1.4-5.9,2.4-9.7c1.4-5.3,6.4-10.2,9.2-15c2.1-3.6,3-7.5,3.2-11.5c0.3-8-4.8-17-12-21.5
		c-15.8-10-37.2-4.4-46.1,11c-4.7,8.1-1.7,16.4,2.2,24.1C495,292.3,497.3,294.2,499.1,296.1z M546.7,270.3
		c3.4,9.7-2.4,18.1-7.9,25.9c-1.9,2.7-3.1,5-3.9,8.1c-0.5,2-1.1,8.2-4,8.8c-0.6,0.1-1.3,0.2-2,0.3c-0.4-4.4-0.7-8.8-1.6-13.2
		c-0.2-1.1-0.5-2.5-0.9-4.1c0.1-0.1,0.2-0.3,0.2-0.4c0.9-6.9,4-13.5,4.9-20.4c0.1-0.4-0.1-0.6-0.4-0.8c-0.4-0.5-1.2-0.7-1.9-0.5
		c-0.1-0.1-0.2-0.2-0.3-0.2c-0.6-0.2-1.1-0.2-1.5,0.1c-0.2-0.2-0.5-0.3-0.9-0.3c-0.3,0-0.5,0.1-0.7,0.2c-0.2-0.1-0.5-0.2-0.8-0.2
		c-0.2,0-0.4,0.1-0.6,0.2c-0.4-0.1-0.8-0.1-1.2,0.1c-0.2-0.3-0.6-0.6-1.1-0.6c-0.4,0-0.8,0.1-1.1,0.3c-0.3-0.2-0.7-0.3-1.1-0.3
		c-0.3,0-0.6,0.2-0.8,0.3c-0.5-0.1-1-0.1-1.4,0.1c-0.5-0.2-1.1-0.1-1.6,0.3c-0.6-0.3-1.3-0.3-1.8,0c-0.5-0.1-1-0.1-1.5,0.2
		c-0.8-0.3-1.7,0-2.2,0.6c-0.8-0.3-1.7-0.1-2.2,0.5c-0.6-0.1-1.2,0.1-1.6,0.5c-1-0.2-2.1,0.2-1.9,1.3c0,0.2,0,0.4,0.1,0.6
		c3,5.7,7.1,11.8,8.5,18c0,0.2,0.1,0.3,0.2,0.4c-1.1,6-0.1,14.2,0.4,17.6c-1.9-0.3-3.7-0.9-5.3-1.6c-0.7-5-2.2-9.4-5.2-13.7
		c-2.8-4-6.8-6.9-9-11.3c-10.3-20.1,10.9-39.6,33.4-34.3C537.5,254.9,543.8,262.1,546.7,270.3z M522.6,319.6
		c-3.2,0.1-16.5-0.2-13.9-5.5c6.4,2.6,14.5,1.9,21.2,1.2c1.6-0.2,2.8-0.6,3.7-1.2C538.1,318.4,525.5,319.5,522.6,319.6z
		 M508.4,277.5c0.6,0.3,1.6,0.1,1.5-0.8c0-0.1,0.1-0.2,0.1-0.2c0.1,0.1,0.2,0.2,0.2,0.2c0.1,0.1,0.2,0.1,0.2,0.2
		c2.3,4.3,3.9,9.2,5.4,13.7c-0.5,0.5-0.8,1.1-1.2,1.8c-1.7-5-4.7-9.8-7.2-14.4C507.8,278.1,508.2,277.9,508.4,277.5z M522.7,289.9
		c0.6-4.5-0.1-9.1,0.5-13.6c0.1-0.1,0.2-0.1,0.3-0.2c0.3,0.5,1,0.5,1.5,0.2c0.4,0.4,1,0.4,1.4,0c0,0,0.1,0,0.1,0.1
		c0.3,0.3,0.8,0.5,1.2,0.3c0.3,0.4,1,0.5,1.5,0.2c-0.9,5.4-3,10.5-4.1,15.9C524.5,291.5,523.7,290.5,522.7,289.9z M521.2,276.3
		c-0.5,4.3,0.1,8.6-0.4,12.8c-1.3-0.2-2.3-0.1-3.2,0.2c-1.4-4.3-2.9-8.8-5-12.9c0.4,0.2,0.9,0.1,1.3-0.3c0.4,0.3,1.1,0.3,1.5,0
		c0.1,0,0.1,0.1,0.2,0.1c0.5,0.2,1.2,0.1,1.5-0.4c0.4,0.5,1.2,0.5,1.6,0.1c0.4,0.4,1,0.3,1.4-0.1c0.2,0.2,0.4,0.4,0.7,0.4
		C520.9,276.4,521,276.4,521.2,276.3z M515.2,301.6c0-2.6,2.5-15.4,7.3-9.1c4.3,5.6,3.8,14.6,4.4,21.2c-3.4,0.4-7.2,0.5-10.7,0.1
		C515.6,309.8,515.1,305.7,515.2,301.6z M517.2,332.6c3.4,0.2,7.1,0,10.3-0.6C526,334.1,519.4,334.4,517.2,332.6z M522.6,330.5
		c-3.2,0.1-16.6-0.2-13.9-5.6c5.5,3.2,18.3,2.6,24.5-0.2C538.6,329.3,525.5,330.4,522.6,330.5z M522.6,324.9
		c-3.2,0.1-16.3-0.2-14-5.4c5.5,3.3,18.7,2.7,24.8-0.3C538.2,323.7,525.5,324.8,522.6,324.9z"/>
	<path class="st1" d="M1072.5,314c3-1.8,5.9-3.7,8.9-5.5c0.5-0.3,0.5-0.9,0-1.2c-2.6-1.6-5.3-3.3-7.9-4.9c2.6-1.6,5.3-3.3,7.9-4.9
		c0.5-0.3,0.5-0.9,0-1.2c-2.6-1.6-5.3-3.3-7.9-4.9c2.6-1.6,5.3-3.3,7.9-4.9c0.5-0.3,0.5-0.9,0-1.2c-2.6-1.6-5.3-3.3-7.9-4.9
		c2.6-1.6,5.3-3.3,7.9-4.9c0.5-0.3,0.5-0.9,0-1.2c-3-1.8-5.9-3.7-8.9-5.5c-0.8-0.5-1.5,0.7-0.7,1.2c2.6,1.6,5.3,3.3,7.9,4.9
		c-2.6,1.6-5.3,3.3-7.9,4.9c-0.5,0.3-0.5,0.9,0,1.2c2.6,1.6,5.3,3.3,7.9,4.9c-2.6,1.6-5.3,3.3-7.9,4.9c-0.5,0.3-0.5,0.9,0,1.2
		c2.6,1.6,5.3,3.3,7.9,4.9c-2.6,1.6-5.3,3.3-7.9,4.9c-0.5,0.3-0.5,0.9,0,1.2c2.6,1.6,5.3,3.3,7.9,4.9c-2.6,1.6-5.3,3.3-7.9,4.9
		C1071,313.3,1071.7,314.5,1072.5,314z"/>
	<path class="st1" d="M212.6,391.5c3-1.8,5.9-3.7,8.9-5.5c0.5-0.3,0.5-0.9,0-1.2c-2.6-1.6-5.3-3.3-7.9-4.9c2.6-1.6,5.3-3.3,7.9-4.9
		c0.5-0.3,0.5-0.9,0-1.2c-2.6-1.6-5.3-3.3-7.9-4.9c2.6-1.6,5.3-3.3,7.9-4.9c0.5-0.3,0.5-0.9,0-1.2c-2.6-1.6-5.3-3.3-7.9-4.9
		c2.6-1.6,5.3-3.3,7.9-4.9c0.5-0.3,0.5-0.9,0-1.2c-3-1.8-5.9-3.7-8.9-5.5c-0.8-0.5-1.5,0.7-0.7,1.2c2.6,1.6,5.3,3.3,7.9,4.9
		c-2.6,1.6-5.3,3.3-7.9,4.9c-0.5,0.3-0.5,0.9,0,1.2c2.6,1.6,5.3,3.3,7.9,4.9c-2.6,1.6-5.3,3.3-7.9,4.9c-0.5,0.3-0.5,0.9,0,1.2
		c2.6,1.6,5.3,3.3,7.9,4.9c-2.6,1.6-5.3,3.3-7.9,4.9c-0.5,0.3-0.5,0.9,0,1.2c2.6,1.6,5.3,3.3,7.9,4.9c-2.6,1.6-5.3,3.3-7.9,4.9
		C211.1,390.7,211.8,392,212.6,391.5z"/>
	<path class="st1" d="M1664.1,444.3c3-1.8,5.9-3.7,8.9-5.5c0.5-0.3,0.5-0.9,0-1.2c-2.6-1.6-5.3-3.3-7.9-4.9c2.6-1.6,5.3-3.3,7.9-4.9
		c0.5-0.3,0.5-0.9,0-1.2c-2.6-1.6-5.3-3.3-7.9-4.9c2.6-1.6,5.3-3.3,7.9-4.9c0.5-0.3,0.5-0.9,0-1.2c-2.6-1.6-5.3-3.3-7.9-4.9
		c2.6-1.6,5.3-3.3,7.9-4.9c0.5-0.3,0.5-0.9,0-1.2c-3-1.8-5.9-3.7-8.9-5.5c-0.8-0.5-1.5,0.7-0.7,1.2c2.6,1.6,5.3,3.3,7.9,4.9
		c-2.6,1.6-5.3,3.3-7.9,4.9c-0.5,0.3-0.5,0.9,0,1.2c2.6,1.6,5.3,3.3,7.9,4.9c-2.6,1.6-5.3,3.3-7.9,4.9c-0.5,0.3-0.5,0.9,0,1.2
		c2.6,1.6,5.3,3.3,7.9,4.9c-2.6,1.6-5.3,3.3-7.9,4.9c-0.5,0.3-0.5,0.9,0,1.2c2.6,1.6,5.3,3.3,7.9,4.9c-2.6,1.6-5.3,3.3-7.9,4.9
		C1662.6,443.5,1663.3,444.8,1664.1,444.3z"/>
	<g>
		<path class="st1" d="M84.2,342.4c-1.5-5.3-0.4-9,3.8-12.8c4.1-3.8,11.7-4.3,17.2-2.7c-0.7-3.8,1.4-7.9,5-9.8
			c3.6-1.9,8.4-1.3,11.4,1.3c-1.3-10.5,7-21.2,18-23.2c11-2,22.9,5.1,25.8,15.3c3.8-1.7,8.7-1.1,11.9,1.6c3.2,2.6,4.5,7.1,3.1,11
			c4.5,0.5,8.7,3.3,10.7,7.1c2,3.8,1.9,8.6-0.3,12.4C159.4,342.8,87.9,342.7,84.2,342.4"/>
	</g>
	<g>
		<path class="st1" d="M1538.5,318.5c-1.5-5.3-0.4-9,3.8-12.8c4.1-3.8,11.7-4.3,17.2-2.7c-0.7-3.8,1.4-7.9,5-9.8
			c3.6-1.9,8.4-1.3,11.4,1.3c-1.3-10.5,7-21.2,18-23.2c11-2,22.9,5.1,25.8,15.3c3.8-1.7,8.7-1.1,11.9,1.6c3.2,2.6,4.5,7.1,3.1,11
			c4.5,0.5,8.7,3.3,10.7,7.1c2,3.8,1.9,8.6-0.3,12.4C1613.8,318.9,1542.3,318.8,1538.5,318.5"/>
	</g>
</g>
</svg>
