<?xml version="1.0" encoding="UTF-8"?><svg id="Layer_1" xmlns="http://www.w3.org/2000/svg" viewBox="0 0 1984.78 384.91"><defs><style>.cls-1{fill:#1c2042;}.cls-2{fill:#ec6161;}.cls-3{fill:#fff;}.cls-4{fill:#1fffe9;}.cls-5{fill:#123b45;}.cls-6{fill:#2e68b1;}.cls-7{fill:#ffcc02;}.cls-8{fill:#fccb98;}.cls-9{fill:#1d4f60;}.cls-10{fill:#d04950;}.cls-11{fill:#e4b921;}.cls-12{fill:#283156;}.cls-13{fill:#df5e67;}.cls-14{fill:#fbf8cd;}.cls-15{fill:#d55257;}.cls-16{fill:#1c8bb4;}.cls-17{fill:#d24e54;}.cls-18{fill:#25a8e0;}.cls-19{fill:#8ae9ff;}.cls-20{fill:#f9d33a;}.cls-21{fill:#fbd11d;}.cls-22{fill:#231f20;}.cls-23{fill:#26609e;}.cls-24{fill:#4195d1;}.cls-25{fill:#f9dd60;}</style></defs><path class="cls-19" d="M1984.78,165.98c-11.55,.32-23,2.55-33.45,6.82-29.33,11.99-49.2,39.31-48.86,67.18-29.18-30.1-96.05-19.61-110.93,17.4,12.75-32.32-7.98-71.62-44.7-84.73-36.72-13.11-83.82,1.96-101.57,32.5,2.88-19.81-39.29-27.15-45.64-7.95-29.75-28.04-77.88-40.65-120.81-31.65-42.93,9-78.86,39.24-90.18,75.89-15.65-26.53-49.2-44.56-83.86-45.05-34.65-.49-68.89,16.58-85.55,42.66-40.54-20.53-98.96-8.39-124.07,25.77-36.27-60.29-141.72-78.92-202.8-35.83-6.92-13.69-43.72-10.55-39.01,12.25-19.69-33.51-62.89-55.79-106.62-54.98-43.73,.81-85.77,24.66-103.76,58.86-18.39-36.12-87.33-40.91-112.25-7.8-9.91-33.12-72.99-40.23-92.53-10.43-7.96-37.94-51.67-67.83-96.56-66-44.89,1.82-85.12,35.11-88.86,73.53-14.47-16.49-51.07-9.59-56.16,10.58-24.45-29.54-77.39-38.02-112.62-18.04-35.23,19.98-46.87,65.1-24.77,95.97-12.54-16.19-37.1-24.35-59.22-20.93v82.9H1984.78V165.98Z"/><path class="cls-4" d="M1281.39,235.27c3.22,0,3.22-5,0-5s-3.22,5,0,5h0Z"/><g><path class="cls-15" d="M697.32,95.6c21.59-10.3,48.06,1.38,65.32,17.39,24.05,22.31,38.35,52.37,48.49,82.75,5.04,15.1,9.33,30.77,18.72,43.88,9.39,13.11,25.32,23.41,41.96,21.6-6.38,8.97-18.61,12.23-29.95,13.65-11.33,1.42-23.32,1.83-33.1,7.42-13.66,7.81-21.38,24.85-37.07,27.62-12.45,2.2-24.1-5.75-36.36-8.77-23.34-5.76-46.85,6.55-70.45,11.26-23.46-55.85-4.92-119.53-16.27-178.66-1.72-8.98-4.11-18.37-1.09-27.03,2.95-8.46,11.26-15.02,20.58-16.26,9.33-1.24,19.23,2.91,24.52,10.28"/><path class="cls-18" d="M699.16,83.03c.95-.29,2.03,0,2.78,.62,.75,.62,1.19,1.53,1.35,2.46-.16-.23-.45-.36-.72-.46-.9-.35-1.88-.63-2.56-1.29-.25-.24-.45-.52-.65-.8-.14-.2-.29-.4-.43-.6"/><path class="cls-18" d="M699.02,83.38c.48,.58,.86,1.23,1.11,1.93,.28,.79,.4,1.66,.13,2.46-.26,.77-.87,1.44-.97,2.25-.12-1.26-1.07-2.32-1.36-3.56-.27-1.13,.05-2.36,.84-3.25"/><path class="cls-17" d="M658.88,89.96c1.01,2.4,1.83,4.88,2.44,7.4-2.49,1.92-6.29,5.36-8.95,4.72,.91-4.43,3.52-8.47,5.98-12.33"/><path class="cls-2" d="M652.56,84.96c-2.04,1.81-4.36,3.35-6.85,4.55-.35,.17-.73,.35-.95,.66-.17,.24-.24,.53-.3,.81-.43,2.05-.87,4.11-1.3,6.16-.35,1.64-.63,3.55,.53,4.81,2.34-.23,3.37,.88,5.71,1.14,1.09,.12,1.47-.36,2.47-.78,.51-.22,3.08-1.03,3.5-1.38,1.12-.93,2.24-1.86,3.37-2.79,.13-.11,.26-.22,.34-.37,.1-.2,.09-.43,.08-.65-.16-2.46,.05-4.95,.62-7.35,.04-.16,.08-.34,0-.49-.06-.11-.16-.18-.27-.25-2.22-1.48-4.55-2.81-6.97-3.97"/><path class="cls-2" d="M691.53,84.82c.09,1.93,.3,9.3-1.06,10.28-.82,.59-1.91,.67-2.93,.8-3.78,.49-7.4,1.99-10.35,4.27,4.26,1.37,8.87,1.26,13.36,1.13,6.01-.17,12.01-.35,18.02-.52-1-1.72-3.25-2.34-5.25-2.88-2.36-.63-4.68-1.37-6.96-2.22-.69-.26,.06-8.96,.26-11.88"/><path class="cls-2" d="M699.92,76.97c.39-1.14-.25-2.45-1.32-3.09-1.07-.64-2.46-.66-3.65-.26-3.11,1.04-4.52,4.37-5.57,7.33-.53,1.49-1.05,3.16-.36,4.6,1.01,2.12,4.28,2.5,6.38,1.3,2.11-1.2,3.27-3.44,4.15-5.61,.62-1.53,1.15-3.22,.6-4.77"/><path class="cls-2" d="M690.43,80.53c-.17-.5-.88-.67-1.38-.45-.5,.22-.8,.72-.97,1.21-.08,.24-.15,.5-.1,.75,.12,.71,.97,1.05,1.69,1.27,.15,.04,.31,.09,.45,.02,.17-.09,.21-.3,.22-.49,.06-.84,.12-1.67,.18-2.51"/><path class="cls-2" d="M697.33,83.3c.52-.6,1.64-.26,2.04,.42,.47,.82,.16,1.96-.67,2.46-.83,.5-2.06,.28-2.64-.47,.44-.92,.89-1.84,1.33-2.76"/><path class="cls-1" d="M661.54,181.08c-17.58,15.1-38.09,28.71-50.73,48.63-3.35,5.28,.89,15.28,4,20.69,15.84,27.64,58.31,82.95,58.31,82.95,6.32-1.97,1.52-.45,5.98-1.84-5.43-62.95-24.07-89.68-24.07-89.68,3.57-7.28,29.81-26.28,36.43-32.92,9.29,15.59,27.58,43.21,30.61,46.76,2.11,2.46,42.55,50.12,56.12,71.04,.45,.69,4.18-1.32,4.93-.93,2.45,1.24,6.35-1.59,7.88,.6-4.13-12.24-8.26-24.48-12.39-36.71-4.88-14.45-9.82-29.04-18.01-42.08-1.5-2.4-3.12-4.75-4.18-7.35-1.07-2.61-1.54-5.4-2.17-8.13-3.98-17.2-14.31-32.43-25.24-46.69-1.15-1.5-2.34-3.02-3.95-4.06-2.3-1.48-5.2-1.82-7.98-2.08-18.96-1.76-36.6-.07-55.55,1.8"/><path class="cls-18" d="M668.65,98.9c-14.72,9.66-26.18,23.16-35.85,37.41-3.09,4.55-6.09,9.43-6.52,14.82-.43,5.39,2.51,11.4,7.98,12.97,2.13,.61-1.06,2.81,1.15,2.67,7.64-.5,18.57-1.54,28.24-5.07,1.02-.37,2.27-.47,2.86-1.34,.35-.52,.41-1.15,.47-1.76,1.76-19.58,2.33-39.25,1.71-58.9"/><path class="cls-18" d="M722.66,102.16c5.43,2.88,9.03,8.03,12.24,13.08,7.81,12.27,14.62,25.1,20.35,38.35,1.72,3.99,3.38,8.22,2.81,12.49-.57,4.27-4.14,8.5-8.7,8.48-2.41-.01-4.63-1.16-6.67-2.37-7.89-4.68-14.89-10.8-19.92-18.21-5.04-7.4-8.06-16.11-8.04-24.91,.02-9.71,1.23-19.54,7.92-26.91"/><path class="cls-18" d="M688.49,95.2c.24,1.81,1.82,3.38,3.72,3.71,1.9,.32,3.96-.63,4.86-2.24,.49-.88,1.79-.89,2.83-.77,6.44,.7,13.02,1.43,18.85,4.11,2.37,1.09,4.63,2.53,6.18,4.54,1.55,2.01,2.31,4.46,2.9,6.89,3.62,14.84,2.15,30.34-.16,45.41-1.25,8.17-2.75,16.51-1.15,24.63-12.1,.39-23.6,.35-35.71,.33-12.85-.02-19.08-.22-28.37,0-2.39,.06-10.95-46.01-5.75-65.79,2.54-9.67,6.63-14.39,10.03-16.25,8.05-4.39,21.62-4.48,21.78-4.55"/><path class="cls-21" d="M658.41,170.53c-.29,4.04-.05,9.08-.34,13.12,22.78,5.42,46.98,5.4,69.75-.06-1.29-4.94-1.88-10.05-1.74-15.13-6.46,2.2-13.44,2.46-20.3,2.7-15.8,.56-31.66,1.11-47.36-.62,0,.34,0,.68,.01,1.02"/><path class="cls-18" d="M642.91,101.03c-3.56,10.94-7.89,21.65-12.95,32.05-1.24,2.54-2.52,5.07-3.51,7.71-1.41,3.75-2.2,7.71-2.25,11.69-.03,2.85,.34,5.75,1.63,8.33,1.29,2.58,3.58,4.79,6.47,5.6,3.8,1.06,7.84-.4,11.43-2,2.41-1.07,4.88-2.27,6.51-4.27,1.47-1.8,2.12-4.06,2.58-6.29,3.51-16.99-2.2-34.55-.46-51.78-3.11,.66-6.46,.21-9.25-1.22"/><path class="cls-16" d="M641.19,166.32c7.13-1.34,15.62-.92,11.13-49.29-.19,3.77,4.25,37.81,7.97,41.46,8.9,8.72,24.46,11.14,37.18,12.67-12.28,1.32-26.12,.53-38.44-.43-.08-1.96-.92-4.94-1.03-7.26-6.27,1.92-10.99,1.89-16.81,2.84"/><path class="cls-18" d="M746.52,150.38c2.43,.7,3.24,2.36,5.4,3.63,3.25,1.92,4.33,3.6,5.64,7,1.31,3.4,1.03,7.43-1.19,10.38-2.98,3.98-8.71,5.28-13.85,4.94-6.42-.42-12.53-2.89-17.93-6.21-5.39-3.31-10.15-7.46-14.88-11.58-5.84-5.09-11.68-10.19-17.52-15.28-.32-.28-.66-.59-.73-1-.08-.48,.23-.93,.54-1.31,1.48-1.87,3.17-3.59,5.02-5.14,14.89,8.46,34.36,6.51,49.49,14.57"/><path class="cls-16" d="M720,134.89c.09,1,.13,2.08-.46,2.91-.92,1.29-2.87,1.36-4.51,1.25-5.7-.37-11.36-1.25-16.89-2.62,5.18,2.98,11.25,4.19,17.18,5.35,2.71,.53,24.25,5.92,25.38,6.27,2.97,.93,5.79,2.29,8.34,4.01-4-3.79-9.07-6.56-14.54-7.94-2.84-.72-5.81-1.08-8.49-2.23-2.68-1.15-5.12-3.33-5.44-6.09-.06-.54-.23-1.28-.81-1.26"/><path class="cls-16" d="M695.55,146.73c7.02,6.76,14.05,13.54,21.85,19.48,1.66,1.26,3.42,2.52,5.48,3.03-3.84,1.39-8.27,1.45-12.4,1.73,.65-.4,1.39-1.24,1.74-1.89,.63-1.16,.03-2.55-.61-3.7-2.37-4.2-14.68-16.25-16-18.35"/><path class="cls-18" d="M678.82,127.48c.14,1.52,.68,3.01,.99,4.51,.16,.75,.3,1.51,.43,2.27,.07,.38,.13,.76,.19,1.14,.03,.18,.06,.35,.09,.53,.02,.11,.16,.54,.11,.62l.28-.16,.06,.02,.15,.37v-.04c.07-.41-.56-.59-.62-.17v.04c-.03,.16,.01,.27,.14,.37,.18,.13,.42,.09,.55-.09,.18-.26,.03-.67-.02-.95-.15-.94-.31-1.87-.48-2.8s-.36-1.86-.58-2.78-.55-1.89-.64-2.86c-.04-.41-.69-.42-.65,0h0Z"/><path class="cls-17" d="M689.44,127.42c2.73,.12,5.46,.44,8.14,.95,.83,2.94,1.63,7.79,.56,9.25-3.89-2.61-6.41-6.11-9.12-9.82"/><path class="cls-2" d="M681.65,131.55c.9,2.51,1.43,5.13,1.56,7.78,.02,.38,.04,.77,.24,1.09,.16,.25,.41,.42,.66,.59,1.8,1.22,3.6,2.44,5.4,3.66,1.44,.97,3.16,2,4.86,1.53,.74-2.11,1.74-4.15,2.95-6.06,.57-.89,1.21-1.82,1.21-2.86,0-.53-.16-1.05-.33-1.56-.44-1.35-.87-2.7-1.31-4.05-.05-.16-.1-.32-.21-.44-.15-.17-.38-.25-.6-.33-2.44-.88-4.75-2.08-6.83-3.56-.14-.1-.3-.21-.48-.2-.13,0-.24,.07-.35,.13-2.34,1.3-4.58,2.76-6.7,4.37"/><path class="cls-1" d="M696.51,86.06c2.91-3.89,6.04-7.63,9.36-11.21,.13-.14,.26-.28,.32-.46,.15-.46-.25-.9-.62-1.23-2.16-1.9-4.49-3.64-6.94-5.19-.97-.61-1.97-1.2-3.07-1.57-.57-.19-1.16-.33-1.71-.57-.92-.4-1.68-1.1-2.14-1.95-.38-.71-.54-1.57-.22-2.31,.32-.74,1.21-1.27,2.02-1.05,.81,.22,1.23,1.33,.63,1.89,.58-.9-.11-2.2-1.19-2.49-1.07-.29-2.26,.28-2.87,1.17-.61,.88-.72,2-.57,3.05,.36,2.59,2.12,4.81,4.02,6.72,.2,.2,.42,.42,.47,.7,.05,.28-.08,.55-.21,.8-1.37,2.59-3.61,4.79-4.4,7.58,.48-.89,.96-1.8,1.68-2.54,.72-.74,1.71-1.29,2.77-1.28,1.23,.01,2.32,.77,3.19,1.59,.38,.36,.76,.75,.97,1.23,.47,1.05,.06,2.25-.35,3.32-.48,1.25-.95,2.49-1.43,3.74"/><path class="cls-1" d="M693.72,75.17c-.96,.87-2.05,1.61-3.23,2.19,1.82,.88,3.95,.92,5.99,.94-.47,.45-1.07,.77-1.72,.92,1.44,.75,3.09,1.12,4.74,1.09-.52-.7-1.05-1.39-1.57-2.09-.51-.68-1.03-1.37-1.72-1.89-.69-.52-1.59-.86-2.46-.72"/><path class="cls-18" d="M689.48,79.88c2.49,1.8,6.09,3.37,8.75,4.05,.3-.24,.48-.55,1.03-1.26-2.43-3.76-9.11-4.9-9.16-4.85-.56,.63-.91,1.4-.61,2.05"/><path class="cls-2" d="M692.42,79.83c-.17,.36-.86,.42-1.52,.13-.67-.29-1.07-.81-.89-1.18,.17-.36,.86-.42,1.52-.13,.67,.29,1.06,.81,.89,1.18Z"/><path class="cls-2" d="M696.72,81.69c-.21,.43-1.04,.5-1.86,.15-.82-.35-1.31-.99-1.1-1.43,.21-.43,1.04-.5,1.86-.15,.82,.35,1.31,.99,1.1,1.42Z"/><path class="cls-1" d="M690.58,79.49c.39-.14,.89,.07,1.01,.48,.03,.09,.17,.05,.14-.04-.14-.48-.73-.75-1.19-.59-.09,.03-.05,.17,.04,.14h0Z"/><path class="cls-1" d="M694.31,81.02c.63-.24,1.4,.04,1.63,.69l.12-.07s-.06-.06-.09-.09c-.06-.07-.17,.03-.1,.1,.03,.03,.06,.06,.09,.09,.05,.05,.15,0,.12-.07-.26-.73-1.1-1.07-1.81-.8-.09,.03-.05,.18,.04,.14h0Z"/><path class="cls-1" d="M691.81,81.37c-.46,.41-.93,.82-1.39,1.23-.09,.08-.22,.17-.29,.27s-.01,.2,.07,.28c.18,.18,.4,.31,.64,.4,.08,.03,.11-.07,.07-.12-.01-.02-.02-.03-.04-.05-.06-.07-.16,.03-.1,.1,.01,.02,.02,.03,.04,.05l.07-.12c-.2-.07-.44-.19-.57-.36-.03-.04-.06-.07-.03-.12,.01-.02,.04-.04,.05-.05,.05-.04,.1-.09,.15-.13,.1-.08,.19-.17,.29-.25,.38-.34,.77-.68,1.15-1.02,.07-.06-.03-.17-.1-.1h0Z"/><path class="cls-1" d="M690.49,85.09c1.19,.55,2.56,.42,3.75-.06l-.08-.11c-.13,.29-.34,.5-.61,.65-.08,.04,0,.17,.07,.13,.3-.16,.53-.4,.67-.7,.02-.05-.02-.14-.08-.11-1.15,.47-2.49,.62-3.64,.08-.09-.04-.16,.09-.07,.13h0Z"/><path class="cls-21" d="M661.65,321.19c6.65-1.29,13.35-2.35,20.08-3.2,1,9.11,1.74,18.25,2.23,27.4-9.41,.71-20.78,3.46-30.19,2.79,4.05-2.45,10.35-7.1,14.96-8.41-1.78-5.72-4.7-13.05-7.07-18.57"/><path class="cls-21" d="M767.06,317.59c7.14,.28,14.32-.25,21.33-1.57,2.79,8.5,5.58,16.99,8.37,25.49-8.25,2.75-20.25,6.63-29,6.77,0,0,6.82-5.73,10.94-9.22-4.18-6.91-7.31-14.92-11.64-21.47"/><path class="cls-21" d="M715.01,186.32c5.63,9.06,10.54,18.55,14.63,28.4,1.98,4.77,3.77,9.62,5.37,14.54s2.88,9.69,5.63,13.97,6.01,7.56,8.87,11.44c2.59,3.51,4.96,7.18,7.19,10.92,4.79,8.03,8.96,16.43,12.88,24.92,4.21,9.13,8.09,18.41,12.05,27.65,.16,.38,.72,.05,.56-.33-7.18-16.79-14.13-33.75-23.21-49.63-2.23-3.9-4.6-7.73-7.17-11.42s-5.4-6.98-8.14-10.46c-1.66-2.11-3.17-4.32-4.32-6.75s-1.96-4.94-2.76-7.47c-1.58-4.99-3.27-9.93-5.2-14.79-4.33-10.88-9.64-21.36-15.82-31.31-.22-.35-.78-.03-.56,.33h0Z"/><path class="cls-21" d="M720.12,185.44c4.69,9.97,9.43,19.92,14.05,29.93,2.31,5,4.47,10.08,5.93,15.39,.61,2.23,1.16,4.49,2.15,6.6s2.39,3.97,3.83,5.78c5.56,6.99,10.44,14.32,14.74,22.14s8.43,16.56,12.13,25.07c3.98,9.16,7.66,18.44,11.34,27.72,.15,.38,.78,.22,.63-.17-6.65-16.75-13.29-33.57-21.7-49.53-4.08-7.73-8.58-15.3-13.93-22.23-1.45-1.88-3.02-3.68-4.4-5.62-1.52-2.14-2.6-4.42-3.34-6.93-1.47-4.99-2.98-9.84-5.06-14.62-4.97-11.41-10.52-22.58-15.82-33.84-.18-.38-.74-.05-.56,.33h0Z"/><path class="cls-2" d="M696.89,95.09c7.91-6.71,22.75-7.03,33.12-4.86,11.04,2.31,19.77,6.84,28.98,13.05,5.37,3.61,9.76,8.36,13.78,13.3,23.66,29.08,35.13,65.12,51.71,98.3,5.98,11.97,13.14,24.13,24.86,31.39,9.11,5.64,20.09,7.76,30.77,9.77-6.77,15.78-16.07,30.59-27.49,43.76-39.35-26.67-73.61-131.43-81.7-149.08-4.22-9.21-8.85-18.31-14.84-26.6-13.57-18.8-35.11-30.2-59.02-27.45"/></g><g><path class="cls-15" d="M1262.36,65.25c6.98,.07,12.82,4.7,18.19,8.92,44.88,35.26,101.08,57.46,159.15,62.87-12.69,7.5-20.34,22-19.03,36.09,1.02,11.02,6.98,22.26,2.96,32.65-3.96,10.25-16.06,15.29-27.23,18.05-8.05,1.99-16.26,3.39-24.54,4.17-14.79,1.4-25.75,13.33-34.06,24.98-8.31,11.65-16.43,24.62-29.99,30.36-8.8,3.73-19.47,4.18-26.44,10.48-13.82-49.24-8.27-102.77-28.35-150.05-9.75-22.94-25.2-43.48-34.06-66.74-1.1-2.88,2.5-5.3,5.55-6.34,10.92-3.76,22.67-5.35,34.27-4.65,.77,.05,1.71,.43,1.72,1.16,.01,.73-1.61,.62-1.22-.01"/><path class="cls-15" d="M1241.01,64.95c-6-4.73-16.33-4.52-23.46-1.52-2.47,1.04-4.88,2.39-6.55,4.41-1.49,1.8-2.29,4.01-2.95,6.21,5.2-4.29,12.36-5.6,19.16-6.76,4.6-.78,9.21-1.56,13.81-2.35-.4,0-.79-.02-1.19-.02"/><path class="cls-2" d="M1238.07,55.15c.09,1.87,.29,8.99-1.03,9.93-.79,.57-1.85,.65-2.84,.78-3.65,.48-7.15,1.92-10.01,4.12,4.11,1.33,8.57,1.22,12.92,1.09,5.81-.17,11.61-.34,17.42-.5-.97-1.67-3.14-2.26-5.07-2.78-2.28-.61-4.52-1.33-6.73-2.14-.67-.25,.06-8.66,.25-11.48"/><path class="cls-2" d="M1244.32,46.21c-.04-1.16-1.07-2.16-2.26-2.41-1.19-.25-2.47,.16-3.42,.89-2.47,1.91-2.61,5.37-2.54,8.39,.03,1.52,.13,3.2,1.25,4.3,1.65,1.62,4.76,.96,6.26-.78,1.5-1.74,1.79-4.14,1.84-6.39,.03-1.58-.06-3.28-1.1-4.52"/><path class="cls-2" d="M1236.91,52.37c-.32-.4-1.03-.34-1.41,.02-.38,.36-.48,.9-.46,1.4,0,.24,.04,.5,.16,.71,.35,.61,1.24,.66,1.98,.64,.15,0,.31-.02,.41-.12,.13-.13,.08-.34,.03-.51-.23-.78-.47-1.56-.7-2.34"/><path class="cls-2" d="M1244.14,52.77c.26-.71,1.41-.74,2-.24,.71,.6,.82,1.73,.24,2.44-.59,.71-1.78,.89-2.56,.38,.09-.97,.18-1.95,.26-2.92"/><path class="cls-1" d="M1244.07,51.02c.36,1.59,.33,3.25-.08,4.82,.26,.03,.52,.05,.78,.08,.29-1.94,.91-3.84,1.83-5.6,.81-1.55,1.87-3.07,1.91-4.79,.03-1.35-.59-2.65-1.47-3.7-2.47-2.97-7.16-4.06-10.81-2.52-1.13,.48-2.24,1.2-3.48,1.13-.62-.04-1.22-.27-1.84-.31-1-.06-2.06,.51-2.35,1.42-.28,.91,.44,2.03,1.44,2.05,.49,0,.95-.22,1.43-.31,.48-.09,1.09,0,1.28,.43,.18,.41-.12,.87-.49,1.14-.37,.27-.82,.46-1.12,.8-.3,.34-.34,.95,.06,1.16,.19,.1,.43,.09,.65,.07,1.71-.13,3.41-.26,5.12-.38,2.03-.15,4.39-.19,5.75,1.25,.81,.86,1.19,2.14,1.39,3.27"/><path class="cls-1" d="M1235.16,46.63c.66,2.28,1.29,5.33,.9,8.39,.15,0-.04,0,.28,.09,.06-1.98,.44-3.86,.5-5.84,.03-.97,.07-1.98,.54-2.84"/><path class="cls-24" d="M1236.63,51.52c0,.58,.48,1.05,1.04,1.11s1.11-.33,1.23-.86c.03-.14-.04-.3-.19-.33-.14-.03-.3,.04-.33,.19,0,.02-.01,.05-.02,.07,0,0-.03,.07,0,.02-.02,.04-.04,.08-.07,.12-.03,.05,.03-.02-.02,.02-.01,.01-.03,.03-.04,.04-.02,.02-.04,.03-.05,.05-.02,.02,.03-.02-.01,0s-.08,.05-.13,.07c-.07,.04,.05-.01-.03,.01-.02,0-.05,.02-.07,.02s-.05,.01-.07,.02c-.05,.01,.02,0-.01,0-.05,0-.1,0-.15,0-.03,0,.04,0-.01,0-.02,0-.05-.01-.07-.02s-.05-.01-.07-.02c.05,.02-.02,0-.02-.01-.04-.02-.09-.05-.12-.08,.03,.02,0,0-.01-.01-.02-.02-.04-.03-.05-.05-.01-.01-.03-.03-.04-.04-.04-.05,.01,.03-.02-.02-.02-.04-.05-.08-.07-.12,.03,.05,0-.02,0-.02,0-.02-.01-.05-.02-.07,0,0,0-.07,0-.03,0,.04,0-.05,0-.06,0-.14-.12-.28-.27-.27s-.27,.12-.27,.27h0Z"/><path class="cls-24" d="M1240.76,51.75c.16,.52,.51,1.01,1.1,1.07s.99-.46,1.25-.92c.07-.13,.03-.3-.1-.37s-.3-.03-.37,.1c-.1,.18-.19,.35-.34,.49-.04,.04-.03,.03-.07,.06s-.08,.05-.13,.07c0,0-.06,.02-.1,.03-.05,.01,.05,0-.03,0-.02,0-.05,0-.07,0-.05,0,.05,.01-.03,0-.02,0-.04,0-.06-.01,0,0-.07-.02-.05-.01,.02,0-.04-.02-.05-.02-.09-.05-.12-.07-.19-.15-.11-.12-.18-.29-.23-.47-.04-.14-.19-.23-.33-.19s-.23,.19-.19,.33h0Z"/><path class="cls-24" d="M1239.04,52.05c-.03,.27,0,.55-.02,.82s-.03,.53-.08,.79c-.1,.52-.28,1.02-.52,1.48-.09,.16,0,.34,.16,.4,.19,.06,.39,.1,.6,.1,.35,0,.35-.54,0-.54-.16,0-.3-.03-.45-.08l.16,.4c.27-.51,.47-1.05,.58-1.61,.05-.28,.09-.56,.1-.84,.01-.3-.02-.61,.02-.91,.02-.15-.14-.27-.27-.27-.16,0-.25,.13-.27,.27h0Z"/><path class="cls-24" d="M1239.37,56.89c1.03,.06,2.07-.45,2.63-1.32l-.5-.06c.04,.27,0,.53-.11,.78-.06,.14,.06,.3,.19,.33,.16,.04,.28-.05,.33-.19,.14-.34,.17-.71,.11-1.07-.04-.25-.38-.24-.5-.06-.46,.72-1.32,1.11-2.16,1.05-.15,0-.27,.13-.27,.27,0,.15,.12,.26,.27,.27h0Z"/><path class="cls-18" d="M1236.06,65.58c.15,1.86,1.96,3.47,3.93,3.48,1.97,.02,3.82-1.55,4.01-3.41,5.57-.29,11.23-.58,16.69,.52,5.46,1.1,10.65,4.94,14.35,8.89,7.37,7.87-8.16,62.63,5.35,87.96-7.6,1.57-64.28,4.14-72.79,3.57-5.16-15.7-2.74-70.1,.13-83.23,3.68-16.82,19.62-18.1,28.33-17.79"/><path class="cls-18" d="M1262.77,66.7c11.12,3.28,18.95,12.78,24.11,22.65,7.61,14.55,11,31.05,9.72,47.24-.05,.61-.12,1.26-.56,1.7-.31,.32-.76,.47-1.2,.62-5.77,1.87-12.07,2.91-18.02,1.65-30.74-6.51-66.78-20.61-58.24-19.79,0,0,3.55-1.54,3.08-2.92-.36-1.06,.64-2.09,1.8-1.88,11.57,2.18,39.68,3.83,49.66,4.94,.15-.92-36.21-37.54-10.34-54.22"/><path class="cls-18" d="M1224.53,67.46c-7.23-2.07-21.22,7.7-25.92,13.44-21.79,26.62-18.84,46.18-14.51,52.54,14.78,21.69,65.85-9.19,72.9-11.94-2.34-.88-7.83-8.15-8.5-8.01-11,2.32-27.05,5.68-38.05,8.01-.92-2.09,3.08-21.04,15.66-51.28"/><path class="cls-2" d="M1224.53,115.63c-.31-.15-7.23-2.91-16.2,1.38-.92,.44-1.71,1.18-2.11,2.07-.4,.9-.23,2.09,.63,2.62,.53,.33,1.21,.35,1.84,.32,1.63-.1,3.2-.56,4.81-.81,1.61-.26,6.09-1.98,6.56-1.86,1.78-2.25,2.11-2.01,4.47-3.71-.13,.2-.36,.35-.61,.39"/><path class="cls-16" d="M1218.06,137.89c13.43-1.34,28.25-3,39.58,3.96,17.62,10.82,21.67,21.97,25.89,21.14-3.42-5.51-5.24-21.84-5.84-22.05-10.67-3.74-22.78-7.23-33.45-10.98-1.43-.5-2.93-1.01-4.45-.85-1.36,.14-2.58,.81-3.78,1.44-7.97,4.15-16.71,6.97-25.7,8.29"/><path class="cls-16" d="M1265.13,105.3c1.4,5.01,3.69,9.79,6.73,14.1-2.36,.2-4.77-.07-7.03-.77-.97-.31-1.93-.7-2.94-.79-2.24-.21-4.43,1.02-6.67,.81,4.26-3.95,8.78-8.36,9.43-13.97"/><path class="cls-16" d="M1250.29,112.13c-7.23-.38-23.3,4.77-30.24,6.72,0-.89,2.19-3.23,4.22-3.98,12.32-4.55,25.87-3.32,26.02-2.74,0,0-.12,.09,0,0"/><path class="cls-16" d="M1238.37,129.5c4.98-2,9.7-4.59,14-7.7,1.29-.94,2.6-1.94,4.18-2.33-.76,3.15-3.69,5.36-6.56,7.11-2.87,1.75-6.01,3.42-7.7,6.23-1.11-1.35-2.47-2.51-4-3.43"/><path class="cls-2" d="M1250.29,112.13c12.79-5.19,15.45-1.33,16.87-.19,1.43,1.14,2.47,2.78,2.59,4.54,.08,1.24-.52,2.71-1.81,2.95-1.41,.26-2.53-1.04-3.76-1.74-2.32-1.33-5.48-.46-7.43,1.32-.26,.23-.6,.5-.92,.37-.13-.05-.22-.16-.31-.26-.64-.73-1.27-1.46-1.91-2.2-1.09-1.26-3.06-4.61-3.32-4.79"/><path class="cls-18" d="M1207.6,166.61c7.89,55.13,29.97,166.21,26.89,165.73,0,0,9.18,.36,12.27-.12,.15-22.26-1-132.61-.42-144.38,1.69,2.07,2.24,4.76,2.74,7.34,8.46,43.68,33.46,137.47,34.44,137.29,4.91-.88,8.42,.88,13.33,0-2.52-16.43-13.68-166.33-14.81-172.09-26.65-.96-45.19,.8-71.74,3.25"/><path class="cls-2" d="M1206.01,157.62c.43,4.19,.85,9.62,1.99,13.69,.15,.54,18.34,6.75,36.87,21.76,0,0,2.11-.07,4.66,0,9.12-10.65,20.51-22.17,33.85-27.53,.13-3.5-1.02-8.23-1.67-11.68-1.16,.57-3.38,2.25-4.68,2.23-23.87-.37-47.15,1.6-71.03,1.53"/><path class="cls-7" d="M1204.73,150.14c.41,2.5,1.16,11.56,1.57,14.07,14.58-.44,29.17-.89,43.75-1.33,3.2-.1,6.39-.19,9.59-.34,7.89-.36,15.76-1,23.59-1.94-.64-2.98-1.3-10.46-3.39-13.67-25.04,2.24-50.86,3.21-75.11,3.21"/><path class="cls-21" d="M1252.6,156.85c.82,8.58-3.9,15.99-10.53,16.55-6.64,.57-12.68-5.93-13.5-14.5-.82-8.58,3.9-15.99,10.53-16.55,6.64-.57,12.68,5.93,13.5,14.5Z"/><path class="cls-2" d="M1230.77,313.67c5.72,1.87,11.74,2.89,17.79,2.99-.57,8.29-1.46,16.56-2.67,24.79-10.12,2.6-20.34,4.88-30.63,6.82,4.4-3.4,15.59-14.51,15.47-15.81-.51-5.9,.54-12.9,.03-18.8"/><path class="cls-2" d="M1276.68,316.48c6.64-.43,13.28-.86,19.92-1.3,1.18,5.98,2.37,11.96,3.55,17.95,.19,.95,11.94,10.46,15.04,13.63-11.46-2.5-20.5-2.8-31.96-5.29-.33-.07-6.55-24.99-6.55-24.99"/><path class="cls-2" d="M1242.48,68.77c-1.7-8.69,5.66-8.96,9.12-9.35,9.53-1.07,19.42,.95,27.63,5.66,5.82,3.34,10.82,7.97,17.03,10.61,11.86,5.03,25.71,1.93,38.54,3.94,16.03,2.51,29.3,12.72,43.76,19.74,17.06,8.29,36.44,12.25,55.6,11.37,12.53-.58,25.82-3.05,37.09,2.14-7.36,6.55-11.55,15.84-12.97,25.3-1.42,9.46-.24,19.11,1.9,28.45-5.96-7.87-15.56-13.88-25.77-14.67-65.32-5.03-133.96-46.78-163.47-79.54-10.69-11.87-28.87-4.95-28.45-3.3"/><path class="cls-15" d="M1230.9,61.76c2.8-.23,5.6,1.01,7.52,2.95,1.92,1.94,3.01,4.51,3.46,7.13,.04,.23,.08,.47,.2,.67,.14,.22,.37,.37,.59,.52,2.91,2,5.11,4.93,6.14,8.19,.32,1,.53,2.03,.58,3.07,.08,1.56-.18,3.2,.45,4.65,.32,.73,.85,1.38,1,2.15-1.36-1.11-2.71-2.21-4.07-3.32-.74-.6-1.47-1.2-2.1-1.9-2.46-2.74-2.92-6.59-3.06-10.18-.03-.87-.06-1.76,.12-2.61-2.36-.1-4.64-1.34-5.93-3.22-1-1.47-1.53-3.39-3.15-4.23-1.31-.68-2.92-.42-4.39-.13,.72-1.34,1.45-2.68,2.17-4.02"/><path class="cls-2" d="M1243.97,62.01c-.84,.81-1.55,1.85-1.74,2.97-.41,2.3-.19,4.77-.21,7.1-1.08,.71-2.16,1.42-3.36,1.93-1.21,.51-2.51,.81-3.75,1.25-2.92,1.03-5.58,2.94-6.91,5.6-.51,1.03-.81,2.13-1.07,3.24-.27,1.13-.5,2.26-.7,3.4-.05-1.33,1.34-2.32,2.7-2.65,1.36-.34,2.82-.28,4.12-.79,.68-.26,1.28-.67,1.85-1.12,2.98-2.35,4.82-5.71,6.5-9.01,.27-.52,.53-1.05,.91-1.52,.6-.75,1.45-1.3,2.11-2,.46-.49,.83-1.04,1.25-1.56,1.52-1.93,3.63-3.45,6.01-4.32-2.75-.29-4.99-2.59-7.75-2.59"/><path class="cls-15" d="M1240.02,71.59c-.05,.83,.05,1.67,.31,2.46,.02,.05,.04,.11,.09,.15,.05,.04,.11,.04,.18,.05,.31,.02,.61,.03,.92,.05,.17,0,.35,.02,.52,0,.16-.02,.32-.08,.48-.12,.22-.06,.45-.08,.68-.08,.04,0,.08,0,.11-.03,.02-.02,.02-.05,.02-.08,.02-.84,0-1.69-.07-2.53,0-.11-.02-.23-.11-.29-.08-.06-.19-.05-.29-.04-.97,.07-1.94,.15-2.91,.22"/></g><g><path class="cls-15" d="M1010.15,69.35c-4.32-2.73-15.83-7.8-21.01-8.17-53.27-3.81-35.72,88.77-34.28,110.6,1.4,21.23,9.05,42.41,2.07,62.63-.86,2.48-2.71,5.42-5.42,4.97,14.89,2.54,30.16-3.49,45.19-1.82,8.57,.95,16.85,4.38,25.47,3.93,11.16-.59,21.03-7.6,32.17-8.49,7.71-.62,15.33,1.76,22.54,4.43,5.07,1.87,11.15,3.82,15.61,.87-4.26-2.25-6.35-6.92-7.66-11.36-5.69-19.35-2.03-39.87-.24-59.88,1.57-17.44,1.68-35.07-.89-52.41-1.74-11.74-4.78-23.52-11.15-33.73-6.37-10.22-16.42-18.78-28.58-21.71-12.16-2.93-26.34,.64-33.81,10.17"/><path class="cls-2" d="M1010.78,69.83c-4.31-7.82-25.07-12.2-35.76-9.03-10.69,3.17-19.65,11.2-23.55,21.13-2.12,5.39-2.8,11.19-3.36,16.92-2.39,24.41-2.96,48.98-1.71,73.47,.76,14.87,2.19,29.76,1.21,44.62-.53,8.02-2.03,16.56-7.9,22.37,5.9,2.63,11.8,5.27,17.71,7.9,.47-3.35,2.56-6.27,3.95-9.38,3.51-7.84,2.54-16.75,1.5-25.21-2.47-20.1-4.93-40.2-7.4-60.3-1.51-12.28-3.02-24.65-2.02-36.98,1-12.33,4.67-24.75,12.59-34.59,2.9-3.6,6.37-6.83,10.48-9.14,3.7-2.08,7.85-3.38,12.07-4.21,5.93-1.17,22.37,2.43,22.19,2.43"/><path class="cls-2" d="M1012.51,69.01c0-4.73,10.06-10.21,16.21-11.07,15.89-2.23,32.84,4.45,42.33,16.7,5.9,7.61,8.91,16.85,11.33,26,1.97,7.43,3.61,14.94,4.51,22.55,1.53,12.99,.87,26.11,.2,39.17-.52,10.07-1.03,20.13-1.55,30.2-.42,8.22-.84,16.52,.68,24.62,1.52,8.1,5.18,16.1,11.71,21.54-6.56,3.6-13.77,6.14-21.21,7.49-.55-8.68-3.16-17.13-4.09-25.78-.64-5.94-.48-11.94-.28-17.91,.72-22.52,1.88-45.02,3.47-67.5,.42-5.89,.86-11.8,.44-17.69-.5-6.98-2.21-13.84-4.06-20.62-1.94-7.11-4.16-14.39-8.98-20.15-5.59-6.68-14.27-10.64-23.17-11.98-8.9-1.33-18.79,2.34-27.53,4.4"/><path class="cls-8" d="M1053.65,16.49c-3.29-.99-5.88-3.48-7.59-6.31-1.71-2.83-2.64-6.02-3.52-9.17-.75-.11-1.15,.81-1.25,1.52-.76,5.32-.44,10.77,.94,15.97,.19,.73,.42,1.48,.88,2.1,.71,.95,1.88,1.47,3,1.95,.92,.4,1.84,.79,2.76,1.19,.16,.07,.34,.14,.52,.13,.33-.03,.54-.34,.7-.62,1.32-2.29,2.64-4.57,3.96-6.86"/><path class="cls-8" d="M968.38,15.12c3.32-.89,6-3.29,7.81-6.06,1.81-2.78,2.85-5.93,3.84-9.05,.76-.09,1.12,.84,1.2,1.56,.57,5.34,.05,10.78-1.51,15.93-.22,.73-.47,1.46-.96,2.07-.74,.92-1.93,1.41-3.07,1.85-.93,.37-1.86,.73-2.8,1.1-.17,.07-.34,.13-.52,.11-.33-.04-.53-.36-.68-.64-1.24-2.33-2.48-4.66-3.71-6.99"/><path class="cls-2" d="M991.18,315.95c.5,4.49,1,8.97,1.5,13.46,.02,.15,.04,.3,.13,.42,.14,.17,.39,.21,.61,.23,1.73,.19,3.48,.39,5.22,.26,1.97-.15,4.05-.71,5.85,.07-.86-5.19-1.42-10.42-1.68-15.66-3.79,.36-7.57,.72-11.36,1.08,.2,.05,.4,.1,.6,.14"/><path class="cls-2" d="M1033.97,313.97c.52,4.83,1.05,9.67,1.57,14.5,.02,.14,.03,.29,.13,.4,.12,.13,.32,.17,.5,.2,3.19,.46,6.42,.66,9.65,.6-.41-5-.81-10-1.22-15-.02-.24-.07-.52-.31-.61-.15-.05-.32,0-.47,.05-3.22,1.13-6.68,1.64-10.11,1.49"/><path class="cls-6" d="M973,173.11c5.17,45.96,13.13,103.17,16.66,149.27,6.04,.69,10.41-.83,17.11-1.13-1.7-38.85,4.97-130.21,7.02-130.84,2.86-.88,14.66,93.54,18.54,132.66,4.9-.51,10.01,.21,14.93,.24,5.55-30.44,6.47-136.52,2.96-153.55-15.17-1.42-25.16-2.33-40.17,.21-4.14,.7-8.22,1.69-12.38,2.29-8.15,1.17-16.54,.8-24.53-1.09"/><path class="cls-8" d="M1009.36,56.58c.1,2.05,.32,9.85-1.13,10.88-.87,.62-2.03,.71-3.11,.85-4,.52-7.84,2.11-10.97,4.52,4.51,1.46,9.39,1.33,14.15,1.2,6.36-.18,12.73-.37,19.09-.55-1.06-1.83-3.44-2.48-5.56-3.05-2.5-.67-4.96-1.45-7.37-2.35-.73-.27,.06-9.49,.27-12.58"/><path class="cls-25" d="M1053.74,179.97c-.09-16.09-3.56-91.45-16.6-103.49-6.26-5.78-12.31-6.47-20.87-8.14-1.34,2.12-3.93,3.49-6.55,3.45-2.62-.03-5.16-1.47-6.44-3.62-4.43-1.01-14.95,3.77-19.51,8.79-4.56,5.02-6.12,9.2-8.36,15.47-5.48,15.35-3.59,77.91-3.2,87.17,0,0,30.52,2.48,40.03,2.52,9.52,.04,41.5-2.15,41.5-2.15Z"/><path class="cls-8" d="M1015.48,46.79c-.04-1.27-1.17-2.36-2.48-2.64-1.31-.27-2.71,.17-3.74,.97-2.71,2.09-2.86,5.89-2.78,9.19,.04,1.67,.15,3.51,1.37,4.71,1.81,1.77,5.21,1.05,6.86-.86,1.65-1.91,1.96-4.53,2.02-7,.04-1.73-.07-3.6-1.21-4.96"/><path class="cls-8" d="M1007.36,53.54c-.35-.44-1.13-.37-1.54,.02-.41,.39-.52,.98-.51,1.53,0,.27,.04,.54,.18,.78,.39,.67,1.36,.72,2.17,.7,.16,0,.34-.02,.45-.13,.14-.15,.09-.37,.03-.56-.26-.85-.51-1.71-.77-2.56"/><path class="cls-8" d="M1015.29,53.98c.29-.78,1.54-.81,2.19-.27,.78,.66,.9,1.9,.26,2.68-.64,.78-1.95,.97-2.81,.42,.1-1.07,.19-2.13,.29-3.2"/><path class="cls-6" d="M1010.22,76.79c-1.52,5.16-5.3,22.95-5.3,24.05,0,.88,3.46,23.69,6.22,35.72,2.55-11.02,6.2-33.74,6.17-34.8-.03-1.47-3.9-20.14-5.41-24.97"/><path class="cls-6" d="M1010.36,70.38c-.63,1.09-1.2,2.21-1.69,3.36-.1,.23-.19,.47-.13,.71,.03,.14,.12,.26,.2,.38,.49,.71,1.04,1.38,1.62,2.03,.38-.08,.78-.07,1.16,.03,.08,.02,.16,.04,.23,.02,.07-.02,.12-.08,.16-.13,.48-.57,.97-1.13,1.45-1.7,.05-.06,.1-.12,.11-.19,0-.06,0-.12-.02-.17-.42-1.41-.83-2.81-1.25-4.22-.76-.03-1.53-.06-2.3-.09"/><g><path class="cls-14" d="M1007.53,66.83c-1.06,.15-2.74,.32-3.79,.54,.29,3.07,2.21,5.97,5.02,7.54,.58-1.52,1.17-3.04,1.75-4.55-1.48-.34-3.01-2.5-2.99-3.53"/><path class="cls-22" d="M1007.45,66.54c-1.26,.17-2.54,.29-3.79,.54-.12,.02-.23,.16-.22,.29,.33,3.27,2.33,6.18,5.17,7.8,.18,.1,.37,0,.44-.18,.58-1.52,1.17-3.04,1.75-4.55,.06-.15-.06-.33-.21-.37-.77-.19-1.4-.78-1.89-1.39-.4-.5-.87-1.19-.88-1.85,0-.38-.6-.38-.59,0,0,.8,.51,1.58,.99,2.19,.56,.72,1.31,1.4,2.22,1.63l-.21-.37c-.58,1.52-1.17,3.04-1.75,4.55l.44-.18c-2.65-1.5-4.57-4.23-4.87-7.28l-.22,.29c1.25-.25,2.52-.37,3.79-.54,.38-.05,.22-.63-.16-.57h0Z"/></g><g><path class="cls-14" d="M1011.57,70.3c.42,1.57,.83,3.14,1.25,4.7,1.82-.2,3.57-1.03,4.82-2.29,1.26-1.27,2.02-2.96,2.12-4.69-.87-.24-3.2-.23-4.07-.48-.64,1.57-2.08,2.31-4.13,2.76"/><path class="cls-22" d="M1011.28,70.38c.42,1.57,.83,3.14,1.25,4.7,.03,.11,.16,.23,.29,.22,3.8-.45,6.98-3.38,7.24-7.28,0-.13-.1-.26-.22-.29-1.32-.35-2.75-.13-4.07-.48-.11-.03-.28,.02-.34,.14-.7,1.63-2.32,2.26-3.95,2.62-.37,.08-.22,.66,.16,.57,1.76-.4,3.55-1.13,4.3-2.9l-.34,.14c1.32,.35,2.75,.13,4.07,.48l-.22-.29c-.24,3.56-3.18,6.28-6.65,6.69l.29,.22c-.42-1.57-.83-3.14-1.25-4.7-.1-.37-.67-.21-.57,.16h0Z"/></g><path class="cls-25" d="M993.22,70.46c-4.96,1.55-16.22,7.92-20.62,10.47-16.11,9.33-33.42-21.56-16.73-37.08,11.76-10.94,16.09-13.11,20.43-13.83,0,0-7.28-13.98-8.85-17.43-38.45,10.3-46.43,41.49-46.64,53.05-.24,13.4,8.43,50.17,55.28,44.44,3.14-15.44,10.3-25.28,17.13-39.61"/><path class="cls-25" d="M1020.07,69.06c8.28,.21,24.22,7.5,28.58,10.23,15.97,9.97,42.4-12.78,22.72-34.27-7.4-8.08-11.89-8.59-25.07-15.47,3.17-5.75,4.23-15.04,7.44-19.16,47.71,14.64,49.94,42.95,49.63,59.66-.24,13.57-12.11,45.95-59.32,38.63-2.62-15.73-18.07-26.83-20-30.56-2.08-4.03-3.97-7.09-3.98-9.05"/><path class="cls-7" d="M1006.53,57.23c-.85-3.38-.92-11.15,.09-14.48,.38-1.25,.93-2.52,1.97-3.38,1.04-.86,2.68-1.18,3.82-.44,.67,.44,1.12,1.19,1.9,1.39,1.79,.45,2.94-2.33,4.79-2.24,1.12,.05,1.82,1.12,2.45,2,.63,.88,1.72,1.77,2.74,1.33,.6-.26,.92-.91,1.51-1.18,.98-.44,2.07,.35,2.78,1.13,1.04,1.14,1.97,2.87,.97,4.05-.67,.79-1.92,.89-2.97,.69-1.05-.2-2.06-.64-3.13-.68-1.07-.04-2.3,.48-2.51,1.47-.13,.59,.13,1.2,.15,1.8,.02,.61-.4,1.34-1.03,1.26-.21-.03-.39-.14-.57-.25-.65-.4-1.31-.8-1.96-1.2-.83,3.29-1.42,6.64-1.76,10.01,.02-2.2,.03-4.39,.05-6.59-2.42-.46-4.89-.71-7.36-.74-.46,0-.95,0-1.3,.28-.41,.31-.5,.87-.54,1.37-.13,1.46-.16,2.93-.09,4.4"/><path class="cls-22" d="M1007.84,53.54s.03-.08,0-.02c.01-.02,.02-.04,.03-.06s.03-.04,.04-.06c.03-.05-.02,.02,0,0,.03-.03,.06-.06,.09-.09,.06-.05-.05,.03,.02-.01,.02-.01,.04-.03,.06-.04,.02-.01,.04-.02,.05-.03,.01,0,.02-.01,.03-.02-.03,.01-.04,.01-.02,0,.04-.01,.08-.03,.13-.04,.02,0,.05,0,.07-.01-.05,0-.01,0,.02,0,.02,0,.04,0,.06,0,0,0,.09,0,.05,0s.02,0,.03,0c.02,0,.05,.01,.07,.02,.01,0,.08,.04,.02,0,.02,0,.04,.02,.05,.03,.04,.02,.08,.04,.11,.07-.05-.04,0,0,.01,.01,.02,.02,.03,.03,.05,.05,.01,.01,.05,.07,.01,.01,.01,.02,.02,.03,.03,.05,.02,.04,.04,.07,.06,.11-.03-.06,0,0,0,.02,0,.02,.01,.04,.02,.07,.02,.06,0-.06,0,.01,0,.02,0,.05,0,.07,0,.16,.14,.3,.3,.3s.3-.13,.3-.3c0-.56-.45-1.05-1-1.12s-1.12,.26-1.29,.8c-.05,.15,.06,.33,.21,.37,.16,.04,.31-.05,.37-.21h0Z"/><path class="cls-22" d="M1012.2,53.77s.05-.07,.07-.11-.04,.05,0,0c.01-.02,.03-.03,.04-.05,.03-.03,.06-.06,.09-.09,.01-.01,.03-.03,.05-.04,.03-.02-.04,.03,0,0,.03-.02,.07-.04,.1-.06,.02-.01,.04-.02,.06-.03-.04,.02-.02,0,0,0,.04-.01,.08-.02,.11-.03,.02,0,.04,0,.06-.01-.07,.01,0,0,.02,0,.02,0,.04,0,.06,0,.06,0,0,.01,0,0,0,.01,.09,.02,.11,.02,0,0,.06,.02,.06,.02,0-.01-.05-.02,0,0,.03,.02,.06,.04,.09,.06s-.04-.04,0,0c.02,.01,.03,.03,.05,.04,0,0,.04,.06,.02,.02s0,.01,.01,.02c0,0,.03,.04,.03,.05,0,0-.02-.06,0-.01,0,0,.02,.06,.01,.06v-.04s0,.03,0,.04c0,.16,.14,.3,.3,.3s.3-.13,.3-.3c0-.51-.49-.88-.98-.89s-.93,.32-1.18,.73c-.08,.13-.03,.33,.11,.41s.32,.04,.41-.11h0Z"/><path class="cls-22" d="M1009.98,53.47c.03,1.12-.02,2.23-.14,3.34-.01,.1,.06,.21,.15,.26,.19,.1,.4,.13,.61,.07,.36-.11,.21-.69-.16-.57-.06,.02-.1,.02-.15,0l.15,.26c.12-1.11,.17-2.23,.14-3.34,0-.38-.6-.38-.59,0h0Z"/><path class="cls-22" d="M1008.19,58.08c1.17,1.03,3.05,1.16,4.34,.26,.31-.22,.01-.73-.3-.51-1.06,.74-2.64,.7-3.62-.17-.29-.25-.71,.17-.42,.42h0Z"/><path class="cls-2" d="M1009.4,67.69c-.07,.85,.24,2.07,.46,2.9,.06,.22,.15,.47,.36,.58,.14,.07,.3,.07,.46,.06,.91-.02,1.83-.05,2.74-.07,.1,0,.21-.01,.27-.08,.05-.05,.06-.13,.06-.2,.1-1.13,.05-2.28-.16-3.4-.02-.1-.04-.2-.1-.28-.07-.09-.19-.14-.3-.18-1.24-.42-2.6,.12-3.8,.66"/><path class="cls-2" d="M1018.29,79.71c-1.35-1.39-2.65-2.84-3.66-4.47-1.01-1.63-1.73-3.45-1.82-5.34,.92,.82,1.97,1.5,2.85,2.34,2.13,2.03,3.19,5.03,2.78,7.87"/><path class="cls-2" d="M1011.39,69.78c-1.11-.16-2.15,.55-2.94,1.32-1.03,1.01-1.89,2.18-2.51,3.46-.96,1.95-1.43,4.22-3.08,5.71,1.14,.06,2.26-.39,3.16-1.06,.9-.67,1.59-1.55,2.2-2.46,1.44-2.15,2.49-4.53,3.09-7.01"/><path class="cls-2" d="M1015.19,64.49c-1.43,1.12-2.52,2.62-3.12,4.28,.8-.26-.73,1.61,.12,1.72,.25,.03,4.86-3.34,5.67-3.43-.83-.8-1.66-1.61-2.5-2.41-.04-.03-.08-.07-.13-.06-.05,0-.06,.1-.01,.1"/><path class="cls-2" d="M1003.21,63.98c1.89,.65,4.37,1.86,6.05,2.91,.87,.54,.64,1.17,1.51,1.7-.27,.13-.5,.36-.61,.62-.07,.15-.13,.34-.3,.38-.05,.01-.11,0-.17,0-2.86-.37-5.37-2.1-8.23-2.49,.46-1.1,1.04-2.14,1.74-3.12-.02,.05-.04,.09-.06,.14"/><path class="cls-21" d="M986.16,308.91c0,5.59,1.44,25.33,.28,28.12-6.55,3.14-13.06,6.53-18.44,11.24,13.03-1.76,26.06-3.49,39.1-5.18-.03-10.95,.35-21.9,1.15-32.83-7.34-.26-14.68-.7-21.99-1.32,.35,.03,.7,.06,1.05,.09"/><path class="cls-21" d="M1052.07,309.01c.04,5.59-1.29,25.34-.11,28.12,6.56,3.1,13.09,6.46,18.5,11.14-13.04-1.69-26.08-3.35-39.13-4.97-.03-10.95-.48-21.9-1.34-32.82,7.34-.3,14.67-.78,21.99-1.43-.35,.03-.7,.06-1.04,.1"/></g><g><path class="cls-1" d="M392.25,83.14c-8.94-5.65-20.34-7.18-30.95-5.52-10.61,1.65-20.49,6.28-29.34,12.05-17.66,11.52-31.74,27.88-40.07,46.57-12.55,28.11-12.14,60.58-27.12,87.61-5.37,9.7-14.13,19.23-25.69,19.83,10,8.19,24.8,8.19,37.82,6.01,13.03-2.18,26.15-6.1,39.22-4.18,19.54,2.87,36.98,18.5,56.36,14.83,6.11-1.16,11.61-4.18,17.42-6.31,13.3-4.9,28.49-5.05,41.89-.41,6.45,2.23,12.52,5.53,19.22,6.93,7.36,1.54,15.27,.64,22.04-2.51,5.04-2.34,10.73-5.97,15.72-3.52,1.51,.74,2.69,1.97,4.11,2.84,4.89,2.99,12.44,.55,14.37-4.64-5.47,1.73-10.3-3.83-12.67-8.81-17.88-37.58-5.11-81.89-14.79-122.07-3.15-13.09-9.19-26.25-20.53-34.32-8.91-6.34-20.32-8.91-31.47-9.01-11.15-.09-22.17,2.13-33.01,4.57"/><path class="cls-18" d="M436.81,183.86c13.16,17.68,25.4,35.97,36.68,54.77,.49,.81,.98,1.66,1.02,2.59,.03,.75-.24,1.47-.5,2.17-10.39,27.75-34.33,87.36-34.79,87.35-8.16-.02-11.72,.02-19.88,0,2.94-12.93,18.54-64.73,23.97-77.16,.35-.81,.72-1.65,.64-2.52-.09-1.01-.74-1.88-1.37-2.69-12.7-16.51-50.85-58.47-53.03-60.54"/><path class="cls-18" d="M406.99,197.78c-37.42,38.25-107.31,132.53-108.67,134.15,0,0-8.51-.74-16.9-1.41,7.7-18.41,41.34-77.68,44.82-84,3.3-5.98,6.59-11.96,10.09-17.84,8.51-14.27,18.25-27.89,29.09-40.68,1.8-2.12,3.67-4.26,6.13-5.67,2.89-1.66,6.34-2.17,9.68-2.65,9.81-1.4,19.63-2.81,29.44-4.21,.67-.1,1.45-.17,1.95,.26,.36,.3,.48,.78,.58,1.22,.77,3.35,1.53,6.69,2.3,10.03,.22,.95,.43,1.96,.09,2.88-.34,.89-1.15,1.53-1.92,2.13-2.59,2-5.18,4-7.77,6"/><path class="cls-2" d="M397.78,73.33c-.09,1.96-.3,9.44,1.08,10.43,.83,.6,1.94,.68,2.98,.82,3.83,.5,7.51,2.02,10.51,4.33-4.32,1.4-9,1.28-13.56,1.15-6.1-.18-12.19-.35-18.29-.53,1.02-1.75,3.29-2.37,5.32-2.92,2.39-.64,4.75-1.39,7.06-2.25,.7-.26-.06-9.09-.26-12.05"/><path class="cls-2" d="M392.03,62.84c.18-1.2,1.38-2.13,2.65-2.27,1.28-.13,2.56,.43,3.46,1.29,2.35,2.26,2.08,5.88,1.64,9.02-.22,1.58-.52,3.33-1.82,4.35-1.92,1.51-5.08,.49-6.44-1.49-1.36-1.98-1.37-4.51-1.15-6.86,.15-1.65,.46-3.42,1.69-4.6"/><path class="cls-2" d="M399.02,70.06c.39-.38,1.12-.24,1.47,.17,.35,.41,.39,.99,.32,1.51-.04,.25-.1,.51-.25,.72-.44,.6-1.38,.56-2.14,.45-.15-.02-.32-.05-.42-.17-.12-.15-.05-.36,.03-.54,.34-.79,.68-1.58,1.01-2.37"/><path class="cls-2" d="M391.43,69.7c-.19-.77-1.38-.93-2.06-.47-.82,.55-1.07,1.72-.54,2.52,.53,.8,1.75,1.12,2.63,.67,.02-1.03,.05-2.05,.08-3.08"/><path class="cls-1" d="M397.23,70.29c.19,.47,.39,.95,.58,1.42,.05,.11,.09,.22,.14,.33,.03,.06,.05,.13,.08,.19,.03,.07,.04,.12-.04,.17-.09,.06-.25,.07-.36,.09-.12,.02-.24,.02-.37,0l.04,.14s.04-.02,.06-.03c.09-.04,.01-.17-.08-.13-.02,0-.04,.02-.06,.03-.07,.03-.03,.14,.04,.14,.27,.02,.55,0,.8-.11,.26-.11,.09-.38,.01-.57-.23-.57-.47-1.14-.7-1.72-.04-.09-.18-.05-.14,.04h0Z"/><path class="cls-1" d="M400.14,67.85c.52-2.33,.38-4.8-.4-7.07-.5-1.46-1.48-3-3.09-3.25-.95-.15-1.9,.2-2.81,.52-3.46,1.2-7.32,1.98-10.79,.8,1.57,1.16,3.19,2.24,4.86,3.26-3.34-.03-6.8,1.51-9.91,.35,1.64,.92,3.4,1.65,5.23,2.15-2.32,.83-4.81,1.22-7.29,1.16,4.73,1.33,9.55,2.36,14.42,3.08,.35,1.18,.71,2.36,1.06,3.54,.06,.2,.25,.46,.44,.35-.12-2.08-.24-4.16-.36-6.23,2.61-.12,5.22-.24,7.83-.36,.5,1.76,.08,6.11,.73,5.45,0-1.5,.17-3.06,.18-4.56"/><path class="cls-1" d="M393.74,70.09c.14,.29,.41,.55,.76,.52,.32-.03,.49-.31,.62-.57,.04-.09-.09-.16-.13-.08-.1,.21-.24,.46-.49,.5-.3,.04-.51-.2-.63-.44-.04-.09-.17-.01-.13,.08h0Z"/><path class="cls-1" d="M398.13,69.85c.04,.23,.3,.35,.51,.32,.24-.03,.42-.25,.46-.48,0-.03,0-.07-.03-.08-.03-.02-.07-.01-.09,.01-.02,.02-.03,.04-.05,.06-.03,.03-.03,.08,0,.11,.03,.03,.08,.03,.11,0,.02-.02,.03-.04,.05-.06l-.13-.07c-.03,.17-.15,.34-.33,.37-.15,.03-.33-.06-.36-.21,0-.04-.06-.06-.09-.05-.04,.01-.06,.05-.05,.09h0Z"/><path class="cls-1" d="M394.25,73.52c.29,.21,.61,.37,.96,.46,.17,.05,.34,.08,.52,.09,.09,0,.18,.01,.27,.01,.04,0,.09,0,.13,0,.02,0,.12-.02,.13-.01l-.02-.05h0s.01-.02,.02-.04h0s.05,0,.07,.01h0c-.06-.09-.16,.02-.11,.1h0s.05,.03,.07,.03c.06-.01,.1-.07,.07-.13-.03-.08-.13-.06-.2-.06-.22,.02-.45,0-.67-.03-.43-.07-.84-.24-1.19-.5-.08-.06-.15,.07-.08,.13h0Z"/><path class="cls-1" d="M394.23,73.49c.1,.42,.33,.8,.64,1.11l.11-.11s-.04-.04-.06-.06c-.07-.06-.18,.04-.11,.11,.02,.02,.04,.04,.06,.06,.07,.06,.18-.04,.11-.11-.29-.28-.5-.64-.6-1.04-.02-.09-.17-.05-.14,.04h0Z"/><path class="cls-21" d="M389.12,83.98c1.02,2.5,3.91,4.21,6.74,3.97,2.83-.23,5.36-2.38,5.91-5.02,6.35,.69,14.2,1.64,19.05,5.58,11.72,9.52,17.01,65.45,17.11,94.64,0,.56,0,1.16-.3,1.65-.44,.72-1.36,1.01-2.2,1.23-22.04,5.82-45.54,6.61-67.96,2.28-.54-.1-1.11-.23-1.51-.59-.35-.32-.51-.79-.64-1.24-1.64-5.69-4.17-64.44-2.07-78.29,1.01-6.68,2.56-13.85,7.86-18.38,4.7-4.02,11.36-5.09,17.63-5.99"/><path class="cls-21" d="M313.19,314.77c-2.58,6.66-9.31,14.47-12.12,21.97,4.5,3.96,8.42,6.64,12.92,10.6-11.43,1.03-29.47,.34-41.5-.11,4.34-11.17,11.46-23.51,16.08-35.67,7.54,.57,18.67,2.48,24.63,3.21"/><path class="cls-21" d="M447.55,314.69c-2.62,7.61-5.77,13.96-8.58,21.47,4.5,3.96,9.17,7.76,13.67,11.72-11.43,1.03-32.45-.2-44.48-.65,4.34-11.17,8.21-21.97,12.83-34.12,7.54,.57,25.7,1.46,25.7,1.46,.29,.06,.63,.17,.66,.44,.03,.27-.58,.28-.44,.04"/><path class="cls-15" d="M350.51,199.07c-3.3-1.95-7.16-3.05-11.05-3.13-.87-.02-1.88,.08-2.36,.76-.37,.53-.29,1.23-.13,1.85,1.09,4.15,5.44,7.31,9.97,7.25,5.29-.07,9.56-3.9,13.26-7.48,1.09-1.06,2.21-2.16,2.75-3.54,.54-1.38,.36-3.14-.86-4.06-1.8-1.37-4.55-.18-6.06,1.48-1.51,1.65-2.55,3.78-4.54,4.89-.45,.25-1.11,.4-1.41,0-.3-.4,.69-.86,.64-.37"/><path class="cls-21" d="M384.17,84.53c-16.31,.73-22.69,8.32-25.75,11.22-18.37,17.37-56.66,41.25-51.03,50.36,12.5,19,27.03,36.8,43.32,53.04,2.82-3.89,5.95-4.56,10.52-6.46-2.67-3.65-16.06-35.25-21-44.73,10-6.98,17.43-11.48,27.43-18.46,1.26-.88,2.15-4.35,2.84-5.67,.61-1.17,.67-2.51,.72-3.81,.4-10.3,5.36-20.24,5.76-30.54-.96-.69,1.72-1.85,.99-.94"/><path class="cls-15" d="M350.52,199.38c-9.72-7.61-18.62-16.16-26.5-25.48,9.51-2.46,18.5-6.71,26.29-12.43,3.07,8.28,6.14,16.55,9.21,24.83,.71,1.9,1.47,3.89,3.08,5.21-3.75,3.37-7.85,6.39-12.22,8.99"/><path class="cls-21" d="M364.51,189.09c4.85,.15,33.53,15.55,33.42,18.33,2.38-.18,7.18-.59,9.49,0,7.47-10.75,18.73-16.73,31.46-21.27-1.1-1.55-.81-5.7-1.01-7.55-8.04,.22-17.11,2.79-24.98,4.33-4.78,.93-9.45,2.34-14.27,3.03-11.38,1.61-22.91-.88-34.11-3.37,.09,1.54-.09,4.96,0,6.5"/><path class="cls-12" d="M393.38,81.91c-15.03-8.32-34.3-9.4-50.26-2.8-14.4,5.95-25.39,17.31-35.72,28.5-3.42,3.71-6.84,7.45-9.55,11.66-2.49,3.87-4.35,8.08-6.19,12.27-3.02,6.86-6.04,13.73-8.53,20.78-6.01,17-8.88,34.91-15.51,51.7-6.63,16.79-17.98,33.05-35.32,40.29,7.75,10.62,16.41,20.65,25.86,29.96,23.19-17.32,37.73-44.57,38.68-72.5,.27-7.84-.48-15.68-.24-23.52,.64-21.15,8.68-42.05,22.55-58.65,13.87-16.61,33.51-28.84,55.13-34.33,4.75-1.21,9.62-2.1,14.54-2.31,2.2-.09,4.41-.05,6.61,.14"/><path class="cls-12" d="M397.7,82.19c7.23-5.98,21.35-6.67,30.95-6.44,7.86,.19,15.91,.42,23.23,3.13,9.99,3.7,17.64,11.78,22.47,20.84,4.83,9.06,7.14,19.11,9.05,29.09,3.56,18.66,5.86,37.54,6.88,56.47,.52,9.57,.72,19.23,3.14,28.54,3.78,14.54,13.1,27.73,25.85,36.61-9.87,9.49-20.39,18.39-31.46,26.61-2.09-2.71-3.89-5.61-5.38-8.65-7.77-15.82-6.59-34.04-6.88-51.47-.22-13.26-1.39-26.48-2.56-39.69-.87-9.88-1.74-19.75-2.62-29.63-1.23-13.89-2.5-27.98-7.63-41.05-2.47-6.29-5.97-12.44-11.53-16.61-4.8-3.6-10.79-5.45-16.69-7.03-12.48-3.33-24.06-4.62-35.66,.85"/><path class="cls-21" d="M405.67,83.39c42.54-5.05,62.03-15.61,80.97-22.85,11.68-4.46,24.79-9.76,35.36-15.67,1.99,5.13,3.43,8.86,5.42,13.99,.29,.75,.58,1.57,.3,2.31-.27,.73-10.27,3.53-10.96,3.94-23.53,14.03-45.53,26.3-63.09,36.29-10.85,6.17-26.23,13.69-32.03,18.08-3.49-14.38-10.38-21.68-15.98-35.45"/><path class="cls-15" d="M485.33,59.31c2.92,7.06,7.23,14.03,11.39,20.51,7.08-4.37,14.17-8.74,21.25-13.11,2.14-1.32,4.32-2.67,6.02-4.48,1.08-1.15,1.95-2.46,2.98-3.65,3.34-3.86,8.23-6.27,13.25-7.81,2.71-.83,5.87-1.75,6.9-4.26,.77-1.87-.04-4.1-1.59-5.48-1.55-1.38-3.7-2.01-5.81-2.2-6.65-.6-12.9,2.67-18.96,5.35-11.75,5.2-23.87,10.31-35.44,15.13"/><path class="cls-13" d="M520.09,64.72c5.88-.77,11.3-3.44,16.86-5.42,.6-.21,1.23-.46,1.57-.97,.66-.98-.27-2.34-1.44-2.69-1.17-.35-2.43-.03-3.64,.19-4.05,.76-8.31,.45-12.19-.87,0,0-9.27,10.82-1.16,9.76Z"/><path class="cls-12" d="M391.06,80.85c2.83,.78,10.18,5.02,12.58,10.05-2.11-.68-9.49-5.99-11.4-6.55-3.11-.92-6.39-1.3-9.65-1.14,1.93-1.08,4.15-1.6,6.33-2.1,1.01-.23,2.1-.46,3.05-.07"/><path class="cls-12" d="M398.46,81.8c-3.93,2.11-6.59,6.21-6.79,10.49,1.71-3.95,4.79-7.35,8.65-9.56-.28-.54-.55-1.08-.83-1.62-.11,.07-.23,.15-.34,.22"/><polygon class="cls-15" points="418.35 147.15 402.24 140.72 387.5 149.61 389 133.15 375.5 122.65 392.52 118.9 398.92 103.52 407.95 117.67 425.4 118.66 413.95 131.16 418.35 147.15"/></g><g><path class="cls-11" d="M1572.29,107.09c-8-28.62,23.62-37.46,28.73-27.87,0,0,14.09-18.85,61.67,21.31,14.71,12.42,20.85,32.75,24.98,50.99,3.08,13.61,6.16,27.23,9.24,40.84,2.51,11.1,5.08,22.34,10.5,32.47,10.91,20.38,47.21,62.99,31.85,69.4-11.31,4.72-24.27-1.51-36.62-.92-9.3,.45-18.01,4.85-24.91,10.76-6.01,5.15-11.56,11.81-19.57,13.01-11,1.65-22.17-7.91-32.55-4.1-5.76,2.12-10.21,8.13-16.36,7.5-3.98-.41-6.92-3.56-9.43-6.5-5.89-6.91-11.64-13.92-17.26-21.04-5.45-6.92-10.83-14.03-14.09-22.09-4.68-11.56-4.7-24.33-3.5-36.66,1.11-11.5,3.23-22.91,6.31-34.09,3.72-13.47,8.84-26.57,12.56-40.05,6.96-25.25,8.89-51.45,10.79-77.48"/><path class="cls-5" d="M1567.97,174.74c-11,15.63-19.46,29.23-30.2,46.4-.9,1.44-2.29,5.06-2.64,6.72-.37,1.73,.29,3.48,.94,5.12,12.52,31.79,25.72,63.33,39.6,94.59,.88,1.99,1.91,4.12,3.89,5.12,1.33,.67,2.88,.72,4.37,.75,5.29,.12,10.58,.24,15.86,.36,3.86-30.22-3.27-61.63-19.86-87.44-1.36-2.12-2.83-4.34-2.95-6.84-.09-2.11,.8-4.13,1.68-6.07,7.51-16.58,15.25-38.13,22.76-54.71-11.82-1.8-23.71,.34-35.01-3.48"/><path class="cls-5" d="M1608.99,87.6c14.35,5.4,6.68,20.73-4.88,29.87-10.46,8.27-25.35,13.57-38.09,16.64-12.74,3.07-24.41,5.99-37.3,6.09-2.67,.02-5.56-.03-7.54-1.66-1.65-1.36-2.33-3.54-2.92-5.62-5.88-20.84-9.75-42.37-11.52-64.23,7.16-2.26,14.33-4.51,21.5-6.77,1.41,8.23,2.81,16.46,4.22,24.7,1.2,7,1.93,14.63,6.42,19.95,5.44,6.44,10.64,4.33,16.49,1.61,6.81-3.16,39.28-25.98,53.62-20.58Z"/><path class="cls-23" d="M1581.32,334.69c-5.1,3.02-10.21,6.04-15.31,9.06-1.24,.74-2.67,1.89-2.28,3.25,9.98,.79,20.06,.36,29.93-1.27,.28-.05,.59-.1,.8-.3,.25-.23,.31-.59,.34-.92,.42-3.51,.59-7.06,.51-10.59-4.47,.04-8.93,.08-13.4,.12-.44,0-.95,.04-1.21,.38-.26,.34,.14,.99,.51,.76"/><path class="cls-6" d="M1599.75,333.17c-7.55,3.95-14.74,8.53-21.5,13.66,.8,1.34,2.71,1.48,4.3,1.45,10.69-.17,21.39-.34,32.08-.51,.65-.01,1.35-.04,1.85-.44,.69-.54,.72-1.54,.7-2.4-.07-2.67-.14-5.35-.22-8.02-.03-1.11-.11-2.33-.92-3.12-.68-.66-1.7-.83-2.66-.94-4.32-.51-8.69-.59-13.02-.24"/><path class="cls-10" d="M1614.29,82.26c-8.3,2.59-14.43,6.25-24.01,3.93,.53-2.2,7.26-8.57,7.91-10.63,.65-2.06,0-6.03,.05-6.68-1.39,.21-3.08-.12-3.98-2.7-1.22-3.48-.81-7.32-.4-10.96,.1-.91,.25-1.84,.73-2.64,.95-1.56,3.17-2.23,4.98-1.68,1.81,.55,3.7,2.11,4.07,3.88h0c.56,2.12,1.12,4.3,1.05,6.47,.29,.12,.55,.33,.79,.53,.54,.45,1.1,.98,1.17,1.66,.07,.74-.51,1.43-1.22,1.75-.61,.28-1.99,.43-1.99,.43-.85,3.13,.12,7.81,.44,9.21,.31,1.4,6.05,6.6,10.42,7.42Z"/><path class="cls-9" d="M1604.59,62.68c.72-1.51,2.77-3.87,3.38-4.15,2.49-1.16,3.88-3.99,3.5-6.6-.38-2.6-2.34-4.88-4.83-6.05-2.49-1.17-5.43-1.31-8.14-.7-1.87,.42-3.74,1.25-4.82,2.75-1.22,1.7-1.21,3.98-.48,5.91,.14,.37-.02,9.75,.33,9.94,.31,.17-.68-7.59,1.07-8.08,2.81-.78,6.15,.29,8.35,2.11,.55,.45,1.09,1.03,1.06,1.71-.01,.39-.21,.75-.39,1.11-.78,1.52-1.29,3.16-1.51,4.84,.38,.19,.86,.34,1.24,.52,.45-1.12,.79-2.21,1.25-3.33"/><path class="cls-9" d="M1603.34,66.01c-.69,1.63-1.9,2.51-3.62,3.18-1.72,.67-4.46,.53-5.65-.82-1.37-1.56-.87-3.23-.63-4.03,.09-.3,.03-.71,.34-.81,.48,1.12,1.43,2.18,2.68,2.42,2.33,.45,3.72-.98,3.6-1.06-.35-.23-3.71-.86-5.08-.63-.34,.06-1.25,.65-1.52,.32-.1-.35-.24-1.15-.03-1.22,1.46-.5,4.01-.37,5.51,.03,.68,.18,1.41,.24,2.11,.3,.71,.06,1.47-.49,1.84-1.06"/><path class="cls-9" d="M1601.39,59.65c-.38,.31-.84,.59-1.34,.57-.06,0-.18-.03-.27-.07-.03-.01-.19-.1-.22-.13-.04-.04-.09-.08-.12-.12s.03,.06-.02-.03c-.01-.02-.02-.04-.03-.06-.03-.05,0,0-.01-.03,0-.03-.02-.05-.02-.08,0-.02,0-.05,0-.01,0-.03,0-.07,0-.1,.01-.18-.16-.33-.33-.33-.19,0-.32,.15-.33,.33-.04,.67,.59,1.18,1.21,1.27,.74,.11,1.42-.29,1.97-.74,.14-.11,.12-.35,0-.47-.14-.14-.33-.11-.47,0h0Z"/><path class="cls-9" d="M1596.17,58.94c-.18,.12-.38,.25-.56,.32s-.38,.13-.58,.12c-.02,0-.04,0-.06,0-.05,0,.05,0,0,0-.05,0-.09-.02-.14-.03-.03,0-.05-.02-.08-.02-.05-.02,.04,.02,0,0-.04-.02-.08-.04-.12-.07-.02-.01-.03-.02-.05-.03,.04,.03,0,0-.02-.01-.03-.03-.06-.06-.08-.09-.02-.03,.02,.04,0-.02,0-.02-.02-.03-.03-.05-.03-.05,0,.02,0-.02,0-.02-.01-.05-.02-.07-.04-.17-.24-.28-.41-.23-.18,.05-.27,.23-.23,.41,.13,.54,.66,.84,1.18,.89,.57,.06,1.12-.22,1.57-.53,.15-.1,.21-.29,.12-.45-.09-.15-.3-.22-.45-.12h0Z"/><path class="cls-9" d="M1597.2,59.02c0,1.34-.4,2.64-1.12,3.77-.09,.14-.04,.38,.12,.45,.29,.13,.58,.26,.87,.39,.16,.07,.35,.05,.45-.12,.08-.14,.04-.38-.12-.45-.29-.13-.58-.26-.87-.39l.12,.45c.78-1.23,1.2-2.65,1.21-4.11,0-.42-.66-.43-.66,0h0Z"/><path class="cls-9" d="M1636.73,178.17c-5.82,51.97-11.64,103.94-17.45,155.91-.09,.83-.24,1.76-.92,2.27-.62,.46-1.48,.43-2.26,.37-7.05-.51-14.09-1.01-21.14-1.52-12.17-50.93-12.16-104.15-13.36-156.45,20.17-3.56,34.17-2.81,54.43,.12"/><path class="cls-9" d="M1639.32,186.59l-77.53-3.11c-.24-17.25,2.45-62.01,6.59-79.86,3.18-13.71,18.3-24.53,27.68-25.79,0,0,6.68,6.54,5.38,6.09l7.54-5.57c9.22,1.05,23.56,12.19,26.5,20.51,2.94,8.32,3.91,15.65,3.41,24.41-.58,10.01,1.01,53.31,.43,63.32Z"/><path class="cls-10" d="M1542.03,176.1c-.19-.08-1.15-.28-1.34-.37-3.74-1.59-7.68-2.79-11.7-3.56-.44-.09-.93-.16-1.33,.06-.8,.44-.49,1.63,.09,2.31,.59,.68,3.75,1.62,3.71,2.5-4.22,.64-11.14-2.58-14.93-.74-.19,2.25,6.34,2.77,9.47,3.39,0,0-1.88,.04-2.86,0-3-.11-9.07-1.03-9,.98,2.37,3.19,8.29,2.03,11.36,3.09-2.17,.1-4.33,.2-6.5,.3-.55,.03-1.18,.09-1.5,.52-.62,.85,.63,1.81,1.66,2.15,2.82,.94,5.79,1.42,8.82,1.63-.01,0-.03,0-.04,0l.14,.02c-1.68,.07-5.39,.51-5.33,1.59,.77,1.35,1.64,1.49,3.26,1.53,5.8,.13,12.02,.26,17.84-.14,.12,0-.54-14.71-1.82-15.27Z"/><path class="cls-10" d="M1523.92,62.9c.04-.2,.03-1.12,.07-1.32,.78-3.81,1.11-7.7,.98-11.58-.01-.43-.05-.9-.36-1.21-.64-.63-1.79-.08-2.35,.62-.56,.7-.81,3.82-1.72,3.99-1.63-3.73,.1-10.84-2.67-13.91-2.36,.34-1.4,6.47-1.31,9.49,0,0-.48-1.72-.66-2.63-.57-2.79-1.02-8.58-3.08-8.06-2.74,2.92-.18,8.09-.57,11.16-.6-1.97-1.2-3.94-1.8-5.91-.15-.5-.37-1.07-.88-1.26-1.02-.38-1.72,.99-1.84,2.02-.32,2.81-.13,5.65,.34,8.49,0-.01,0-.03,0-.04l.02,.13c-.46-1.53-1.77-4.84-2.86-4.53-1.22,1.02-1.16,1.85-.82,3.35,1.2,5.37,2.49,11.12,4.24,16.38,.04,.11,15.03-3.87,15.3-5.18Z"/><path class="cls-5" d="M1608.15,97.06c7.67-12.85,21.78-4.54,29.1,6.89,6.61,10.34,9.56,24.54,10.61,36.58,1.05,12.04,2.13,23.08,.19,35.02-.4,2.47-.91,5.15-2.85,6.85-1.62,1.42-2.43,4.18-13.96,6.04-21.82,3.51-64.84,8.05-86.98,7.96-1.12-6.81-3.4-15.97-4.53-22.78,8.45-.65,46.87-5.13,55.32-5.78,7.19-.55,25.53-4.91,22.14-24.2-1.18-6.75-16.72-33.73-9.05-46.58Z"/><path class="cls-20" d="M1601.62,84.24c.75-3.41,12.52-4.71,16.36-3.72,15.29,3.95,25.82,17.68,30.44,32.01,4.62,14.33,4.52,29.57,5.9,44.49,3.02,32.78,13.54,65.18,32.45,92.8,18.91,27.63,46.42,50.29,78.84,62.27,3.42-16.17,6.83-32.34,10.25-48.51-14.94,1.27-28.18-7.29-40.15-15.84-48.63-34.73-38.48-92.28-55.08-129.93-9.78-22.18-18.07-26.38-23.82-32.26-5.57-5.69-12.67-10.03-20.44-12.51-5.79-1.84-16.2-3.47-25.35,.14-5.64,2.23-8.46,5.34-9.39,11.04"/><path class="cls-11" d="M1591.88,75.72c2.51-.29,4.49-.13,6.02,1.76,2.01,2.49,3.4,4.89,3.89,5.74,.13,.22,.26,.45,.45,.63,.24,.24,.57,.4,.87,.56,2.3,1.23,4.2,3.29,4.72,5.73,.35,1.64,.07,3.34-.2,5-2.56-1.48-4.54-3.85-5.46-6.55-.3-.88-.5-1.8-.61-2.72-.03-.25-.06-.51-.2-.72-.14-.21-.42-.3-.61-.48-5.54-5.05-11.28-5.05-12.95-4.73,.67-.88,3.35-3.49,4.02-4.37"/><path class="cls-20" d="M1605.88,76.78c-2.57,1.85-4.26,4.76-4.52,7.8-1.61,.22-3.3,.46-4.62,1.37-.67,.46-1.22,1.06-1.72,1.68-1.67,2.06-3.04,4.71-2.25,7.2,3.87-1.92,6.96-5.2,8.53-9.06,.15-.37,.29-.75,.52-1.08,.17-.26,.39-.48,.61-.71,1.6-1.64,3.23-3.3,5.25-4.46-.24-.58-.47-1.16-.71-1.75-.17-.41-.36-.85-.75-1.07-.4-.22-1.05-.07-1.1,.37"/></g><g><path class="cls-3" d="M82.61,88.88v20.05c0,1.61,2.51,1.62,2.51,0v-20.05c0-1.61-2.51-1.62-2.51,0h0Z"/><path class="cls-3" d="M73.93,100.22c6.41-.32,12.83-.22,19.22,.33,1.61,.14,1.6-2.37,0-2.51-6.39-.54-12.82-.65-19.22-.33-1.61,.08-1.62,2.59,0,2.51h0Z"/></g><g><path class="cls-3" d="M1752.79,8.7V28.75c0,1.61,2.51,1.62,2.51,0V8.7c0-1.61-2.51-1.62-2.51,0h0Z"/><path class="cls-3" d="M1744.12,20.04c6.41-.32,12.83-.22,19.22,.33,1.61,.14,1.6-2.37,0-2.51-6.39-.54-12.82-.65-19.22-.33-1.61,.08-1.62,2.59,0,2.51h0Z"/></g><g><path class="cls-3" d="M1062.07,141.84v20.05c0,1.61,2.51,1.62,2.51,0v-20.05c0-1.61-2.51-1.62-2.51,0h0Z"/><path class="cls-3" d="M1053.39,153.18c6.41-.32,12.83-.22,19.22,.33,1.61,.14,1.6-2.37,0-2.51-6.39-.54-12.81-.65-19.22-.33-1.61,.08-1.62,2.59,0,2.51h0Z"/></g><g><path class="cls-3" d="M466.45,99.86v20.05c0,1.61,2.51,1.62,2.51,0v-20.05c0-1.61-2.51-1.62-2.51,0h0Z"/><path class="cls-3" d="M457.77,111.2c6.41-.32,12.83-.22,19.22,.33,1.61,.14,1.6-2.37,0-2.51-6.39-.54-12.82-.65-19.22-.33-1.61,.08-1.62,2.59,0,2.51h0Z"/></g><g><path class="cls-3" d="M764.89,164.91c-.35,1.16-.49,2.31-.58,3.5-.02,.31,.25,.57,.55,.66,.66,.2,1.32,.39,1.99,.58,1.41,.42,.84,.82,1.15,2.2,.2,.89,1.58,2.61,1.14,3.14-.57,.68-1.14,1.36-1.71,2.05-.22,.26-.07,.61,.12,.83,.77,.89,1.56,1.67,2.47,2.45,.24,.2,.62,.28,.91,.11,.59-.36,1.19-.72,1.78-1.08,1.38-.84,1.06-.12,2.62,.47,.85,.32,3.33,.6,3.49,1.16,.23,.84,.46,1.68,.69,2.52,.08,.29,.39,.5,.72,.5,1.31,0,2.52-.09,3.81-.27,.34-.05,.52-.38,.55-.66,.06-.65,.13-1.29,.19-1.94,.14-1.38,.72-.93,2.17-1.52,.79-.32,2.62-1.97,3.02-1.8,.84,.35,1.69,.71,2.53,1.06,.28,.12,.69,.15,.91-.11,.81-.93,1.5-1.84,2.15-2.88,.16-.26,.13-.61-.12-.83-.73-.63-1.46-1.27-2.19-1.9,.32-1.32,1.13-5.33,.68-5.12,.95-.44,1.89-.87,2.84-1.31,.3-.14,.42-.49,.34-.77-.29-1.1-.64-2.11-1.11-3.17-.17-.38-.48-.53-.92-.48-.67,.08-1.34,.17-2.01,.25-1.66,.21-.84-.46-2.04-1.63-.51-.5-2.72-1.97-2.65-2.27,.18-.78,.36-1.57,.54-2.35,.06-.28-.03-.63-.34-.77-1.19-.52-2.34-.92-3.61-1.27-.32-.09-.68,.05-.84,.31-.34,.52-.68,1.05-1.02,1.57-.82,1.26-2.23,.48-3.94,.61-.83,.07-1.91,.8-2.37,.3-.57-.62-1.13-1.24-1.7-1.86-.22-.25-.62-.23-.91-.11-1.13,.5-2.15,1.04-3.18,1.7-.26,.16-.47,.47-.34,.77,.24,.58,.48,1.15,.72,1.73,.58,1.39-.23,1.02-1.16,2.29-.43,.59-1.41,2.77-1.84,2.78-.91,.02-1.82,.03-2.74,.05-.33,0-.63,.2-.72,.5Zm2.06,.84c.69-.01,1.38-.02,2.07-.04,.36,0,.59-.21,.72-.5,.8-1.78,1.83-3.16,3.33-4.49,.17-.16,.28-.44,.19-.66-.15-.37-.31-.75-.47-1.12-.46-1.1-.79-1.14-.05-1.6,1.28-.81,1.18-1.26,2.1-.25,.43,.47,.86,.94,1.28,1.41,.16,.18,.49,.24,.73,.18,2.11-.58,4.04-.71,6.2-.47,.25,.03,.52-.15,.65-.34,.22-.34,.44-.68,.66-1.02,.23-.35,.46-.7,.69-1.06,.18-.54,.41-.5,.68,.12,1.94,.52,1.78-.25,1.45,1.19-.14,.59-.27,1.19-.41,1.78-.07,.32,.05,.59,.34,.77,1.79,1.14,3.05,2.39,4.17,4.08,.19,.29,.5,.36,.85,.31,.43-.06,.87-.11,1.3-.16,.45-.06,.9-.11,1.35-.17,.6-.2,.66-.04,.19,.47,.59,1.33,1.13,1.31-.19,1.91-.61,.28-1.22,.56-1.82,.84-.22,.1-.38,.36-.37,.59,.12,1.99-.16,3.82-.94,5.68-.14,.32,0,.56,.24,.7,.31,.27,.63,.54,.94,.81,.34,.29,.68,.59,1.02,.88,.54,.28,.47,.47-.23,.57-1.01,1.62-.12,1.65-1.65,1.01-.64-.27-1.27-.54-1.91-.8-.32-.14-.63-.11-.91,.11-1.7,1.38-3.07,2.09-5.23,2.73-.34,.1-.52,.34-.55,.66-.04,.42-.08,.84-.13,1.26-.19,1.97,.34,1.36-1.84,1.51-.89,.06-.53,.38-.84-.74-.17-.64-.35-1.27-.52-1.91-.06-.21-.28-.43-.52-.48-2.12-.37-3.87-.95-5.7-2.04-.21-.13-.55-.13-.75,0-.39,.23-.77,.47-1.15,.7-.4,.24-.8,.48-1.2,.72-.41,.42-.6,.32-.57-.3-1.17-.99-1.52-.79-.62-1.87,.43-.52,.86-1.03,1.3-1.55,.16-.19,.12-.49,0-.69-1-1.65-1.56-3.22-1.77-5.12-.04-.32-.21-.56-.55-.66-.43-.13-.86-.25-1.29-.38-1.92-.56-1.5-.01-1.24-1.77,.22-1.44-.56-.8,.95-.82Z"/><path class="cls-3" d="M780.02,171.2c.06,.03,.13,.06,.22,.07,.11,.03,.22,.04,.31,.03,1.44,.13,2.68-.58,3.13-1.89,.47-1.38-.62-2.74-2.03-3.13-1.51-.42-3,.55-3.43,1.84-.44,1.31,.5,2.6,1.8,3.07Zm1.23-3.6c1.69,.31,1.06,2.65-.62,2.36-1.62-.46-1.08-2.66,.62-2.36Z"/></g><g><path class="cls-3" d="M1309.21,147.53c-.35,1.16-.49,2.31-.58,3.5-.02,.31,.25,.57,.55,.66,.66,.2,1.32,.39,1.99,.58,1.41,.42,.84,.82,1.15,2.2,.2,.89,1.58,2.61,1.14,3.14-.57,.68-1.14,1.36-1.71,2.05-.22,.26-.07,.61,.12,.83,.77,.89,1.56,1.67,2.47,2.45,.24,.2,.62,.28,.91,.11,.59-.36,1.19-.72,1.78-1.08,1.38-.84,1.06-.12,2.62,.47,.85,.32,3.33,.6,3.49,1.16,.23,.84,.46,1.68,.69,2.52,.08,.29,.39,.5,.72,.5,1.31,0,2.52-.09,3.81-.27,.34-.05,.52-.38,.55-.66,.06-.65,.13-1.29,.19-1.94,.14-1.38,.72-.93,2.17-1.52,.79-.32,2.62-1.97,3.02-1.8,.84,.35,1.69,.71,2.53,1.06,.28,.12,.69,.15,.91-.11,.81-.93,1.5-1.84,2.15-2.88,.16-.26,.13-.61-.12-.83-.73-.63-1.46-1.27-2.19-1.9,.32-1.32,1.13-5.33,.68-5.12,.95-.44,1.89-.87,2.84-1.31,.3-.14,.42-.49,.34-.77-.29-1.1-.64-2.11-1.11-3.17-.17-.38-.48-.53-.92-.48-.67,.08-1.34,.17-2.01,.25-1.66,.21-.84-.46-2.04-1.63-.51-.49-2.72-1.97-2.65-2.27,.18-.79,.36-1.57,.54-2.35,.06-.28-.03-.64-.34-.77-1.19-.52-2.34-.92-3.61-1.27-.32-.09-.68,.05-.85,.31-.34,.52-.68,1.05-1.02,1.57-.82,1.26-2.23,.48-3.94,.61-.83,.07-1.91,.8-2.37,.3-.57-.62-1.13-1.24-1.7-1.86-.22-.25-.62-.23-.91-.11-1.13,.5-2.15,1.04-3.18,1.7-.26,.16-.47,.47-.34,.77,.24,.58,.48,1.15,.72,1.73,.58,1.39-.23,1.02-1.16,2.28-.43,.59-1.41,2.77-1.84,2.78-.91,.02-1.82,.03-2.74,.05-.33,0-.63,.2-.72,.5Zm2.06,.84c.69-.01,1.38-.02,2.07-.04,.36,0,.59-.21,.72-.5,.8-1.79,1.83-3.16,3.33-4.49,.18-.16,.28-.44,.19-.66-.15-.37-.31-.75-.47-1.12-.46-1.1-.79-1.14-.05-1.6,1.28-.81,1.18-1.26,2.1-.25,.43,.47,.86,.94,1.28,1.41,.16,.18,.49,.24,.73,.18,2.11-.58,4.04-.71,6.2-.47,.25,.03,.52-.15,.65-.34,.22-.34,.44-.68,.66-1.02,.23-.35,.46-.7,.69-1.06,.18-.54,.41-.5,.68,.12,1.93,.52,1.78-.25,1.45,1.19-.14,.59-.27,1.19-.41,1.78-.07,.32,.05,.58,.34,.77,1.79,1.14,3.05,2.39,4.17,4.08,.19,.29,.5,.36,.85,.31,.43-.06,.87-.11,1.3-.16,.45-.06,.9-.11,1.35-.17,.6-.2,.66-.04,.19,.47,.59,1.33,1.13,1.31-.19,1.91-.61,.28-1.22,.56-1.82,.84-.22,.1-.38,.36-.37,.59,.12,1.99-.16,3.82-.94,5.68-.14,.32,0,.57,.24,.7,.31,.27,.63,.54,.94,.81,.34,.29,.68,.59,1.02,.88,.54,.28,.47,.47-.23,.57-1.01,1.62-.12,1.65-1.65,1.01-.64-.27-1.27-.53-1.91-.8-.32-.14-.63-.11-.91,.11-1.7,1.38-3.07,2.09-5.23,2.73-.34,.1-.52,.34-.55,.66-.04,.42-.08,.84-.12,1.26-.19,1.97,.34,1.36-1.84,1.51-.89,.06-.53,.38-.84-.74-.17-.64-.35-1.27-.52-1.91-.06-.21-.28-.43-.52-.48-2.12-.37-3.87-.95-5.7-2.04-.21-.13-.55-.13-.75,0-.39,.23-.77,.47-1.15,.7-.4,.24-.8,.48-1.2,.72-.41,.42-.6,.32-.57-.3-1.17-.99-1.52-.79-.62-1.87,.43-.52,.86-1.03,1.3-1.55,.16-.19,.12-.49,0-.69-1-1.65-1.56-3.22-1.77-5.11-.03-.32-.21-.56-.55-.66-.43-.13-.86-.25-1.29-.38-1.92-.56-1.5-.01-1.24-1.77,.22-1.44-.56-.8,.95-.82Z"/><path class="cls-3" d="M1324.35,153.81c.06,.03,.13,.06,.22,.07,.11,.03,.22,.04,.31,.03,1.44,.13,2.68-.58,3.13-1.89,.47-1.38-.62-2.74-2.03-3.13-1.51-.42-3,.55-3.43,1.84-.44,1.31,.5,2.6,1.8,3.07Zm1.23-3.6c1.69,.31,1.06,2.65-.62,2.36-1.62-.46-1.08-2.66,.62-2.36Z"/></g><path class="cls-3" d="M1082.15,324.36c2.97-1.83,5.95-3.66,8.92-5.5,.47-.29,.47-.95,0-1.24-2.64-1.63-5.28-3.25-7.92-4.88,2.64-1.63,5.28-3.25,7.92-4.88,.47-.29,.47-.95,0-1.24-2.64-1.63-5.28-3.25-7.92-4.88,2.64-1.63,5.28-3.25,7.92-4.88,.47-.29,.47-.95,0-1.24-2.64-1.63-5.28-3.25-7.92-4.88,2.64-1.63,5.28-3.25,7.92-4.88,.47-.29,.47-.95,0-1.24-2.97-1.83-5.95-3.67-8.92-5.5-.8-.49-1.53,.75-.74,1.24,2.64,1.63,5.28,3.25,7.92,4.88-2.64,1.63-5.28,3.25-7.92,4.88-.47,.29-.47,.95,0,1.24,2.64,1.63,5.28,3.25,7.92,4.88-2.64,1.63-5.28,3.25-7.92,4.88-.47,.29-.47,.95,0,1.24,2.64,1.63,5.28,3.25,7.92,4.88-2.64,1.63-5.28,3.25-7.92,4.88-.47,.29-.47,.95,0,1.24,2.64,1.63,5.28,3.25,7.92,4.88-2.64,1.63-5.28,3.25-7.92,4.88-.79,.49-.06,1.73,.74,1.24Z"/><path class="cls-3" d="M212.61,49.1c2.98-1.83,5.95-3.66,8.92-5.5,.47-.29,.47-.95,0-1.24-2.64-1.63-5.28-3.25-7.92-4.88,2.64-1.63,5.28-3.25,7.92-4.88,.47-.29,.47-.95,0-1.24-2.64-1.63-5.28-3.25-7.92-4.88,2.64-1.63,5.28-3.25,7.92-4.88,.47-.29,.47-.95,0-1.24-2.64-1.63-5.28-3.25-7.92-4.88,2.64-1.63,5.28-3.25,7.92-4.88,.47-.29,.47-.95,0-1.24-2.97-1.83-5.95-3.67-8.92-5.5-.8-.49-1.53,.75-.74,1.24,2.64,1.63,5.28,3.25,7.92,4.88-2.64,1.63-5.28,3.25-7.92,4.88-.47,.29-.47,.95,0,1.24,2.64,1.63,5.28,3.25,7.92,4.88-2.64,1.63-5.28,3.25-7.92,4.88-.47,.29-.47,.95,0,1.24,2.64,1.63,5.28,3.25,7.92,4.88-2.64,1.63-5.28,3.25-7.92,4.88-.47,.29-.47,.95,0,1.24,2.64,1.63,5.28,3.25,7.92,4.88-2.64,1.63-5.28,3.25-7.92,4.88-.79,.49-.06,1.73,.74,1.24Z"/><path class="cls-3" d="M1664.15,101.91c2.97-1.83,5.95-3.66,8.92-5.5,.47-.29,.47-.95,0-1.24-2.64-1.63-5.28-3.25-7.92-4.88,2.64-1.63,5.28-3.25,7.92-4.88,.47-.29,.47-.95,0-1.24-2.64-1.63-5.28-3.25-7.92-4.88,2.64-1.63,5.28-3.25,7.92-4.88,.47-.29,.47-.95,0-1.24-2.64-1.63-5.28-3.25-7.92-4.88,2.64-1.63,5.28-3.25,7.92-4.88,.47-.29,.47-.95,0-1.24-2.97-1.83-5.95-3.67-8.92-5.5-.8-.49-1.53,.75-.74,1.24,2.64,1.63,5.28,3.25,7.92,4.88-2.64,1.63-5.28,3.25-7.92,4.88-.47,.29-.47,.95,0,1.24,2.64,1.63,5.28,3.25,7.92,4.88-2.64,1.63-5.28,3.25-7.92,4.88-.47,.29-.47,.95,0,1.24,2.64,1.63,5.28,3.25,7.92,4.88-2.64,1.63-5.28,3.25-7.92,4.88-.47,.29-.47,.95,0,1.24,2.64,1.63,5.28,3.25,7.92,4.88-2.64,1.63-5.28,3.25-7.92,4.88-.79,.49-.06,1.73,.74,1.24Z"/><path class="cls-3" d="M93.78,352.77c-1.47-5.28-.37-9,3.77-12.79,4.15-3.79,11.7-4.29,17.22-2.72-.68-3.81,1.42-7.92,5-9.78,3.58-1.86,8.38-1.32,11.4,1.27-1.31-10.48,7.02-21.24,17.98-23.22,10.96-1.98,22.89,5.12,25.76,15.32,3.82-1.73,8.7-1.09,11.88,1.56,3.18,2.65,4.47,7.15,3.15,10.95,4.51,.53,8.66,3.3,10.69,7.14,2.04,3.84,1.91,8.64-.34,12.38-31.26,.26-102.77,.16-106.53-.1"/><path class="cls-3" d="M1398.43,311.31c-1.47-5.28-.37-9,3.77-12.79,4.15-3.79,11.7-4.29,17.22-2.72-.68-3.81,1.42-7.92,5-9.78,3.58-1.86,8.38-1.32,11.4,1.27-1.31-10.48,7.02-21.24,17.98-23.22,10.96-1.98,22.89,5.12,25.76,15.32,3.82-1.73,8.7-1.09,11.88,1.56,3.18,2.65,4.47,7.15,3.15,10.95,4.51,.53,8.66,3.3,10.69,7.14,2.04,3.84,1.91,8.64-.34,12.38-31.26,.26-102.77,.16-106.53-.1"/></svg>