<?xml version="1.0" encoding="UTF-8"?><svg xmlns="http://www.w3.org/2000/svg" viewBox="0 0 497.76 284.92"><defs><style>.cls-1{fill:#4e486a;}.cls-2{opacity:.7;}.cls-3{fill:#fff;}.cls-4,.cls-5,.cls-6,.cls-7,.cls-8,.cls-9{opacity:.3;}.cls-4,.cls-10{fill:#e6e6e6;}.cls-4,.cls-6,.cls-9{mix-blend-mode:multiply;}.cls-11{fill:#fad552;}.cls-12{fill:#88d1fb;}.cls-13{fill:#124c6e;}.cls-5,.cls-14,.cls-15,.cls-7,.cls-8{mix-blend-mode:screen;}.cls-5,.cls-16{fill:#b8b8b8;}.cls-14{fill:#b9b9b9;}.cls-14,.cls-15{opacity:.5;}.cls-17,.cls-9{fill:#f75467;}.cls-18{fill:#eac452;}.cls-19{isolation:isolate;}.cls-20{fill:#f5fbff;}.cls-21,.cls-6{fill:#ed996f;}.cls-22{fill:#1b6e9e;}.cls-23{fill:#e6f0f6;}.cls-24{fill:#e1e1e1;}.cls-25{fill:#2ca6ee;}.cls-26{fill:#a3d9fb;}.cls-27{fill:#35a0de;}.cls-28{fill:#236896;}.cls-15{fill:#e8e8e8;}.cls-29{fill:#d3d3d3;}.cls-30{fill:#d5d5d5;}.cls-31{fill:#268bc5;}.cls-7{fill:#dadada;}.cls-32{fill:#2770a1;}.cls-33{fill:#c2c2c2;}.cls-8{fill:#f1f1f1;}.cls-34{fill:#e2f5fb;}.cls-35{fill:#5bbbf5;}.cls-36{fill:#c6c6c6;}.cls-37{fill:#d0d0d0;}</style></defs><g class="cls-19"><g id="Layer_1"><g><g class="cls-2"><g><path class="cls-36" d="M431.49,228.44c-.11,0-.21-.06-.26-.16-.07-.14,0-.31,.14-.38,12.31-5.79,21.83-12.54,29.1-20.62,14.7-16.33,21.38-39.54,27.28-60.02,.04-.15,.2-.23,.35-.2,.15,.04,.24,.2,.2,.35-5.91,20.54-12.61,43.81-27.4,60.25-7.33,8.14-16.9,14.93-29.28,20.76-.04,.02-.08,.03-.12,.03Z"/><path class="cls-29" d="M492.23,156.03c-2.76,1.49-5.32,.53-6.16,.14-.17-.08-.27-.28-.24-.48,.18-.94,.91-3.66,3.68-5.15,2.66-1.43,6.4-1.29,7.88-1.16,.29,.02,.47,.38,.32,.64-.76,1.32-2.81,4.58-5.47,6.01Z"/><path class="cls-29" d="M489.12,166.55c-3.01,.85-5.37-.62-6.13-1.19-.16-.12-.22-.33-.15-.52,.35-.87,1.58-3.35,4.59-4.2,2.9-.81,6.58,.12,8.02,.56,.29,.09,.4,.47,.2,.69-.99,1.12-3.63,3.84-6.53,4.65Z"/><path class="cls-29" d="M485.13,149.82c1.33,3.17,.41,5.81,.03,6.67-.08,.18-.27,.26-.45,.2-.87-.31-3.37-1.44-4.7-4.61-1.28-3.05-1.09-7.07-.95-8.65,.03-.31,.36-.46,.6-.26,1.21,.98,4.19,3.61,5.46,6.66Z"/><path class="cls-29" d="M480.42,158.46c2.18,2.59,2.12,5.46,2.02,6.42-.02,.2-.17,.34-.36,.35-.9,0-3.56-.21-5.74-2.8-2.1-2.49-3.12-6.44-3.47-8.01-.07-.31,.2-.57,.48-.46,1.42,.52,4.97,2.02,7.07,4.51Z"/><path class="cls-29" d="M476.97,168.59c2.18,2.59,2.12,5.46,2.02,6.42-.02,.2-.17,.34-.36,.35-.9,0-3.56-.21-5.74-2.8-2.1-2.49-3.12-6.44-3.47-8.01-.07-.31,.2-.57,.48-.46,1.42,.52,4.97,2.02,7.07,4.51Z"/><path class="cls-29" d="M473.76,176.47c2.18,2.59,2.12,5.46,2.02,6.42-.02,.2-.17,.34-.36,.35-.9,0-3.56-.21-5.74-2.8-2.1-2.49-3.12-6.44-3.47-8.01-.07-.31,.2-.57,.48-.46,1.42,.52,4.97,2.02,7.07,4.51Z"/><path class="cls-29" d="M469.5,185.48c2.18,2.59,2.12,5.46,2.02,6.42-.02,.2-.17,.34-.36,.35-.9,0-3.56-.21-5.74-2.8-2.1-2.49-3.12-6.44-3.47-8.01-.07-.31,.2-.57,.48-.46,1.42,.52,4.97,2.02,7.07,4.51Z"/><path class="cls-29" d="M464.9,195.32c1.29,3.19,.34,5.82-.05,6.67-.08,.18-.27,.26-.45,.19-.86-.32-3.35-1.49-4.64-4.67-1.24-3.06-1-7.08-.84-8.66,.03-.31,.36-.45,.6-.26,1.2,1,4.15,3.66,5.39,6.73Z"/><path class="cls-29" d="M459.99,201.36c1.29,3.19,.34,5.82-.05,6.67-.08,.18-.27,.26-.45,.19-.86-.32-3.35-1.49-4.64-4.67-1.24-3.06-1-7.08-.84-8.66,.03-.31,.36-.45,.6-.26,1.2,1,4.15,3.66,5.39,6.73Z"/><path class="cls-29" d="M454.27,208.26c.6,3.38-.9,5.67-1.46,6.4-.12,.15-.32,.18-.48,.07-.78-.52-2.99-2.26-3.59-5.64-.58-3.25,.51-7.06,1-8.53,.1-.29,.46-.35,.65-.1,.97,1.26,3.31,4.55,3.89,7.8Z"/><path class="cls-29" d="M448.23,213.14c.6,3.38-.9,5.67-1.46,6.4-.12,.15-.32,.18-.48,.07-.78-.52-2.99-2.26-3.59-5.64-.58-3.25,.51-7.06,1-8.53,.1-.29,.46-.35,.65-.1,.97,1.26,3.31,4.55,3.89,7.8Z"/><path class="cls-29" d="M441.8,218.55c-.26,3.38-2.3,5.12-3.03,5.64-.15,.11-.36,.08-.49-.07-.64-.72-2.36-3.02-2.1-6.4,.25-3.25,2.26-6.54,3.11-7.8,.17-.25,.53-.2,.66,.1,.64,1.47,2.1,5.28,1.85,8.53Z"/><path class="cls-29" d="M464.09,213.76c-2.96-1.37-4.06-4.05-4.36-4.98-.06-.19,0-.4,.17-.49,.78-.43,3.21-1.48,6.17-.11,2.84,1.32,5.33,4.48,6.26,5.77,.18,.26,.06,.62-.23,.65-1.46,.18-5.17,.47-8.01-.84Z"/><path class="cls-29" d="M470.87,205.89c-3.16-.23-5.01-2.4-5.58-3.19-.12-.16-.12-.39,0-.53,.59-.7,2.5-2.59,5.66-2.36,3.04,.22,6.32,2.35,7.59,3.24,.25,.18,.25,.57,0,.71-1.29,.71-4.62,2.35-7.66,2.12Z"/><path class="cls-29" d="M477.21,195.4c-3.16-.23-5.01-2.4-5.58-3.19-.12-.16-.12-.39,0-.53,.59-.7,2.5-2.59,5.66-2.36,3.04,.22,6.32,2.35,7.59,3.24,.25,.18,.25,.57,0,.71-1.29,.71-4.62,2.35-7.66,2.12Z"/><path class="cls-29" d="M481.69,186.4c-3.16-.23-5.01-2.4-5.58-3.19-.12-.16-.12-.39,0-.53,.59-.7,2.5-2.59,5.66-2.36,3.04,.22,6.32,2.35,7.59,3.24,.25,.18,.25,.57,0,.71-1.29,.71-4.62,2.35-7.66,2.12Z"/><path class="cls-29" d="M485.32,178.98c-3.16-.23-5.01-2.4-5.58-3.19-.12-.16-.12-.39,0-.53,.59-.7,2.5-2.59,5.66-2.36,3.04,.22,6.32,2.35,7.59,3.24,.25,.18,.25,.57,0,.71-1.29,.71-4.62,2.35-7.66,2.12Z"/><path class="cls-29" d="M492.2,143.53c-.97,3.19-3.35,4.35-4.18,4.67-.17,.07-.37-.01-.47-.19-.47-.85-1.69-3.48-.72-6.67,.94-3.06,3.61-5.73,4.72-6.73,.22-.2,.57-.06,.63,.26,.32,1.57,.96,5.59,.02,8.66Z"/></g><g><path class="cls-10" d="M121.78,238.19c-58.61-74.26-24.95-178.44-24.95-178.44,0,0,144.87,46.57,122.74,193.58,0,0-6.65,10.04-18.58,16.65-17.01,9.43-44.75,11.87-79.21-31.79Z"/><path class="cls-3" d="M199.63,269.19c-.72-.05-1.38-.51-1.64-1.27-3.57-10.33-7.37-20.55-11.3-30.71l-78.77-20.09c-.79-1.44-1.5-2.9-2.23-4.36,.45-.27,.98-.38,1.48-.25l77.56,19.78c-6.08-15.45-12.48-30.74-19.37-45.75l-75.01-20.94c-.25-1.43-.48-2.84-.69-4.26,.3-.07,.6-.23,.91-.12l72.35,20.19c-5.49-11.78-11.26-23.4-17.24-34.88l-58.11-30.44c.07-1.46,.16-2.9,.26-4.32,.29,0,.57-.09,.84,.05l53.56,28.06c-14.14-26.61-29.54-52.41-46.23-77.25,.52-1.86,.85-2.88,.85-2.88,0,0,1.1,.36,2.97,1.05,16.79,25.05,32.28,51.08,46.5,77.91l7.45-46.52c.06-.39,.31-.63,.52-.9,1.08,.82,2.15,1.7,3.23,2.56l-8.14,50.78c5.79,11.13,11.37,22.38,16.71,33.78l12.98-62.76c.09-.45,.39-.78,.69-1.08,.98,1.07,1.93,2.18,2.9,3.29l-13.75,66.46c6.66,14.52,12.86,29.29,18.77,44.22l16.17-76.45c.13-.63,.54-1.1,1.04-1.42,.8,1.57,1.54,3.18,2.29,4.8l-16.85,79.68c3.98,10.28,7.83,20.63,11.45,31.09,.37,1.07-.17,2.32-1.21,2.78-.3,.13-.62,.18-.92,.16Z"/><path class="cls-4" d="M200.99,269.98C181.39,193.25,96.83,59.75,96.83,59.75c0,0,144.87,46.57,122.74,193.58,0,0-15.23,29.77-18.58,16.65Z"/></g><g><path class="cls-10" d="M358.9,209.83c27.6-64.92,107.81-80.19,107.81-80.19,0,0,21.38,111.44-82.72,149.57,0,0-8.95-.76-17.54-6.2-12.25-7.76-23.78-25.03-7.55-63.19Z"/><path class="cls-3" d="M366.48,271.85c-.23-.49-.16-1.08,.25-1.53,5.48-6.03,10.81-12.18,16.04-18.38l-15.05-58.72c.66-1.03,1.36-2.02,2.05-3.02,.34,.2,.6,.5,.69,.88l14.82,57.82c7.93-9.51,15.64-19.17,23-29.05l-13.15-56.56c.84-.67,1.69-1.33,2.54-1.98,.16,.17,.36,.31,.4,.55l12.68,54.56c5.74-7.81,11.28-15.74,16.65-23.77l-.88-48.91c.98-.47,1.95-.93,2.92-1.38,.1,.19,.26,.34,.27,.57l.81,45.08c12.35-18.77,23.72-38.08,33.99-57.89,1.4-.32,2.19-.47,2.19-.47,0,0,.16,.85,.37,2.32-10.38,19.95-21.86,39.4-34.33,58.3l33.1-11.77c.28-.1,.53-.02,.78,.02-.15,1-.34,2.02-.52,3.03l-36.14,12.85c-5.21,7.77-10.57,15.45-16.12,23.02l45.7-13.96c.33-.1,.65-.02,.96,.07-.35,1.02-.74,2.05-1.12,3.07l-48.4,14.79c-7.11,9.55-14.56,18.9-22.21,28.11l55.8-16.78c.46-.14,.92-.04,1.3,.17-.74,1.08-1.53,2.15-2.32,3.22l-58.16,17.49c-5.3,6.29-10.7,12.51-16.24,18.62-.57,.63-1.58,.72-2.26,.2-.2-.15-.34-.34-.44-.54Z"/><path class="cls-4" d="M366.46,273.02c43.18-40.28,100.26-143.38,100.26-143.38,0,0,21.38,111.44-82.72,149.57,0,0-24.93,.69-17.54-6.2Z"/></g><g><path class="cls-10" d="M188.91,226.54c-30.86-84.52,30.54-168.63,30.54-168.63,0,0,119.73,95.9,56,222.12,0,0-13.22,3.68-28.26,2.31-18.42-1.67-40.14-6.12-58.28-55.81Z"/><path class="cls-3" d="M250.02,277.71c-.64-.26-1.09-.87-1.1-1.64-.16-10.39-.55-20.76-1.07-31.1l-65.19-41.58c-.28-1.54-.49-3.07-.72-4.6,.49-.11,1-.05,1.41,.22l64.18,40.94c-.9-15.77-2.13-31.48-3.89-47.1l-61.53-41.23c.2-1.36,.42-2.71,.64-4.06,.3,.03,.61-.03,.85,.16l59.35,39.76c-1.46-12.28-3.22-24.49-5.2-36.64l-43.44-44.79c.5-1.3,1.01-2.57,1.52-3.83,.26,.09,.54,.09,.74,.29l40.03,41.28c-4.86-28.24-11.09-56.14-18.78-83.54,1.03-1.52,1.63-2.35,1.63-2.35,0,0,.89,.65,2.37,1.84,7.72,27.63,13.97,55.74,18.83,84.22l20.57-39.8c.17-.33,.47-.48,.74-.66,.73,1.06,1.44,2.18,2.16,3.27l-22.46,43.46c1.92,11.77,3.62,23.6,5.04,35.48l30.4-52.83c.22-.38,.58-.59,.95-.77,.56,1.26,1.1,2.55,1.64,3.83l-32.19,55.94c1.7,15.1,2.9,30.29,3.81,45.53l37.35-64.25c.31-.53,.82-.84,1.36-.97,.26,1.65,.45,3.34,.65,5.02l-38.93,66.97c.54,10.47,.94,20.97,1.09,31.49,.02,1.08-.85,2.05-1.93,2.15-.31,.03-.61-.02-.88-.13Z"/></g><g><path class="cls-10" d="M409.82,235.04c28.09-37.02,81.78-33.86,81.78-33.86,0,0-4.29,74.63-76.92,82.23,0,0-5.59-1.93-10.21-6.78-6.58-6.93-11.16-19.82,5.35-41.58Z"/><path class="cls-3" d="M404.67,275.88c-.07-.35,.07-.72,.4-.94,4.47-2.97,8.86-6.04,13.21-9.16l-.16-39.94c.59-.55,1.2-1.07,1.8-1.6,.18,.18,.3,.42,.3,.67l.16,39.32c6.6-4.8,13.08-9.73,19.37-14.85l.71-38.25c.65-.29,1.29-.58,1.94-.85,.07,.14,.18,.26,.17,.42l-.69,36.89c4.92-4.06,9.74-8.24,14.46-12.5l7.31-31.39c.7-.14,1.4-.28,2.09-.41,.03,.14,.11,.26,.08,.41l-6.74,28.93c10.91-10,21.28-20.51,31.04-31.5,.95,.02,1.47,.05,1.47,.05,0,0-.04,.57-.14,1.54-9.84,11.07-20.31,21.65-31.32,31.71l23.04-2.19c.19-.02,.34,.07,.49,.14-.26,.61-.54,1.23-.82,1.85l-25.15,2.39c-4.58,4.12-9.24,8.17-14,12.11l31.44-1.56c.23-.01,.42,.09,.6,.2-.39,.6-.8,1.19-1.21,1.78l-33.3,1.65c-6.08,4.96-12.35,9.73-18.71,14.38l38.35-1.73c.31-.01,.59,.12,.8,.32-.65,.57-1.32,1.13-2,1.68l-39.97,1.81c-4.4,3.16-8.85,6.27-13.37,9.28-.46,.31-1.13,.2-1.47-.23-.1-.13-.16-.27-.19-.42Z"/><path class="cls-4" d="M404.47,276.62c34.07-18.77,87.13-75.44,87.13-75.44,0,0-4.29,74.63-76.92,82.23,0,0-16.03-3.57-10.21-6.78Z"/></g><g><path class="cls-24" d="M159.07,216.52c-23.35-105.72-108.58-113.39-125.39-113.87-1.78-.05-3.26,1.1-3.87,3.03-25.4,80.84,9.17,146.88,43.88,176.24h85.79c5.45-12.95,6.64-33.45-.42-65.4Z"/><path class="cls-15" d="M135.44,268.77l16.87-75.87c-.38-1.07-.77-2.13-1.17-3.18l-17.08,76.83-13.69-21.95c.06-.06,.11-.13,.15-.21,.02-.04,.03-.07,.05-.11,.01-.04,.04-.07,.05-.11l16.66-82.27c-.47-.74-.94-1.47-1.42-2.19l-16.77,82.83-14.36-23.01,14.08-80.51c-.52-.51-1.05-1.01-1.57-1.51l-13.94,79.72-13.61-21.82,10.13-71.67c-.55-.36-1.11-.72-1.66-1.07l-9.95,70.37-13.2-21.16,4.4-58.96c-.57-.24-1.14-.47-1.71-.7l-4.27,57.13-13.94-22.35-.09-40.69c-.58-.14-1.15-.28-1.72-.41l.08,38.33-25.72-41.23c-.5,.23-.94,.57-1.32,1.02l25.86,41.46-33.56-10.55c-.1,.68-.2,1.35-.29,2.02l35.49,11.16,13.99,22.44-51.17-10.56c0,.71,0,1.41,0,2.12l52.67,10.88,13.29,21.31-63.55-4.51c.12,.72,.25,1.44,.39,2.16l64.56,4.58,13.7,21.96-71.29-.63c.26,.73,.52,1.44,.79,2.16l71.85,.64,13.75,22.05-73.34,3.09c.42,.71,.84,1.42,1.27,2.12l73.4-3.09,14.41,23.1-70.11,3.56c.65,.71,1.31,1.4,1.96,2.08l69.47-3.52,7.4,11.86h1.95l-8.21-13.15Z"/><path class="cls-8" d="M30.71,104.02c-.38,.46-.69,1.01-.9,1.66-25.4,80.84,9.17,146.88,43.88,176.24h69.07C124.07,252.4,30.61,104.81,30.71,104.02Z"/></g><g><path class="cls-37" d="M112.47,263.55c-5.95-16.66-39.57-43.04-78.81-27.92-.75,.29-1.14,.94-1.06,1.71,.67,5.81,4.89,30.43,28.39,44.63h54.21c2.33-8.18-2.73-18.42-2.73-18.42Z"/><path class="cls-7" d="M33.03,236.04c-.33,.34-.48,.8-.42,1.31,.67,5.81,4.89,30.43,28.39,44.63h46.47c-13.96-8.66-74.29-46.09-74.43-45.93Z"/><path class="cls-14" d="M102.64,279.39l4.22,2.58h1.31l-5.06-3.09-1.31-30.15c-.3-.28-.6-.55-.9-.83l1.32,30.43-9.75-5.96-1.63-31.85c-.3-.18-.59-.35-.89-.52l1.63,31.83-9.31-5.69-3.06-31.13c-.3-.11-.59-.21-.89-.32l3.03,30.89-9.27-5.67-4.34-27.93c-.29-.05-.58-.1-.88-.14l4.27,27.49-9-5.5-6.38-22.7c-.28,0-.56,.01-.84,.02l6.2,22.05-9.47-5.79-5.82-15.25c-.26,.05-.53,.1-.79,.15l5.5,14.42-17.5-10.7c-.16,.17-.28,.36-.36,.58l17.4,10.64-15.25,.44c.07,.24,.15,.49,.23,.74l16.19-.47,9.43,5.76-22.56,2.56c.11,.24,.23,.49,.34,.73l23.28-2.64,8.93,5.46-27.6,5.18c.16,.24,.32,.47,.49,.71l28.11-5.28,9.21,5.63-31.16,7.03c.22,.22,.44,.44,.66,.66l31.47-7.1,9.71,5.94-32.29,8.3c.3,.2,.61,.39,.93,.59l32.07-8.24s.03-.02,.04-.02c.02,0,.03-.01,.04-.02,.03-.02,.06-.04,.08-.07l9.26,5.66-11.28,3.15h2.98l9.23-2.58Z"/></g><g><g><g><path class="cls-30" d="M15.22,184.6c-.05,.94-.86,1.66-1.8,1.6-.94-.05-1.66-.86-1.6-1.8,.05-.94,.86-1.66,1.8-1.6,.94,.05,1.66,.86,1.6,1.8Zm-2.58-.15c-.03,.49,.35,.91,.84,.93,.49,.03,.91-.35,.93-.83,.03-.49-.35-.91-.83-.93-.49-.03-.91,.35-.94,.83Z"/><path class="cls-30" d="M3.4,184.66c-.05,.94-.86,1.66-1.8,1.6-.94-.05-1.66-.86-1.6-1.8,.05-.94,.86-1.66,1.8-1.6,.94,.05,1.66,.86,1.6,1.8Zm-2.58-.15c-.03,.49,.35,.91,.83,.93,.49,.03,.91-.35,.93-.83,.03-.49-.35-.91-.83-.93-.49-.03-.91,.35-.93,.83Z"/><path class="cls-30" d="M10.74,187.12c.71,.04,1.26,.65,1.22,1.37-.04,.71-.65,1.26-1.36,1.22-.71-.04-1.26-.65-1.22-1.36,.04-.71,.65-1.26,1.36-1.22Z"/><path class="cls-30" d="M7.58,190.96c.71,.04,1.26,.65,1.22,1.37-.04,.71-.65,1.26-1.37,1.22-.71-.04-1.26-.65-1.22-1.36,.04-.71,.65-1.26,1.36-1.22Z"/><path class="cls-30" d="M12.32,208.26c.71,.04,1.26,.65,1.22,1.36s-.65,1.26-1.36,1.22c-.71-.04-1.26-.65-1.22-1.36,.04-.71,.65-1.26,1.36-1.22Z"/><path class="cls-30" d="M21.72,204.38c.71,.04,1.26,.65,1.22,1.36-.04,.71-.65,1.26-1.36,1.22-.71-.04-1.26-.65-1.22-1.36,.04-.71,.65-1.26,1.36-1.22Z"/><path class="cls-30" d="M11.07,178.07c.71,.04,1.26,.65,1.22,1.36-.04,.71-.65,1.26-1.36,1.22-.71-.04-1.26-.65-1.22-1.37,.04-.71,.65-1.26,1.37-1.22Z"/><path class="cls-30" d="M11.84,170.59c.71,.04,1.26,.65,1.22,1.37-.04,.71-.65,1.26-1.37,1.22-.71-.04-1.26-.65-1.22-1.36,.04-.71,.65-1.26,1.36-1.22Z"/><path class="cls-30" d="M6.63,193.96c.71,.04,1.26,.65,1.22,1.36-.04,.71-.65,1.26-1.36,1.22-.71-.04-1.26-.65-1.22-1.36,.04-.71,.65-1.26,1.37-1.22Z"/><path class="cls-30" d="M18.24,164.64c.71,.04,1.26,.65,1.22,1.36-.04,.71-.65,1.26-1.36,1.22-.71-.04-1.26-.65-1.22-1.36,.04-.71,.65-1.26,1.36-1.22Z"/><path class="cls-30" d="M12.32,192.74c1.12,.06,1.97,1.02,1.91,2.14-.06,1.12-1.02,1.97-2.14,1.91-1.12-.06-1.97-1.02-1.91-2.14,.06-1.12,1.02-1.97,2.14-1.91Z"/><path class="cls-30" d="M18.87,213.71c1.12,.06,1.97,1.02,1.91,2.14-.06,1.12-1.02,1.97-2.14,1.91-1.12-.06-1.97-1.02-1.91-2.14,.06-1.12,1.02-1.97,2.14-1.91Z"/><path class="cls-30" d="M25.79,209.92c1.12,.06,1.97,1.02,1.91,2.14-.06,1.12-1.02,1.97-2.14,1.91-1.12-.06-1.97-1.02-1.91-2.14,.06-1.12,1.02-1.97,2.14-1.91Z"/><path class="cls-30" d="M4.38,187.12c.84,.05,1.49,.77,1.44,1.61-.05,.84-.77,1.49-1.61,1.44-.84-.05-1.49-.77-1.44-1.61,.05-.84,.77-1.49,1.61-1.44Z"/><path class="cls-30" d="M23.68,165.9c.84,.05,1.49,.77,1.44,1.61-.05,.84-.77,1.49-1.61,1.44-.84-.05-1.49-.77-1.44-1.61,.05-.84,.77-1.49,1.61-1.44Z"/><path class="cls-30" d="M7.97,180.86c1.12,.06,1.97,1.02,1.91,2.14-.06,1.12-1.02,1.97-2.14,1.91-1.12-.06-1.97-1.02-1.91-2.14,.06-1.12,1.02-1.97,2.14-1.91Z"/><path class="cls-30" d="M17.54,173.32c1.12,.06,1.97,1.02,1.91,2.14-.06,1.12-1.02,1.97-2.14,1.91-1.12-.06-1.97-1.02-1.91-2.14,.06-1.12,1.02-1.97,2.14-1.91Z"/><path class="cls-30" d="M30.93,167.21c1.12,.06,1.97,1.02,1.91,2.14-.06,1.12-1.02,1.97-2.14,1.91-1.12-.06-1.97-1.02-1.91-2.14,.06-1.12,1.02-1.97,2.14-1.91Z"/><path class="cls-30" d="M2.68,190.16c1.12,.06,1.97,1.02,1.91,2.14-.06,1.12-1.02,1.97-2.14,1.91s-1.97-1.02-1.91-2.14c.06-1.12,1.02-1.97,2.14-1.91Z"/><path class="cls-30" d="M4.55,208.62c1.12,.06,1.97,1.02,1.91,2.14-.06,1.12-1.02,1.97-2.14,1.91-1.12-.06-1.97-1.02-1.91-2.14,.06-1.12,1.02-1.97,2.14-1.91Z"/><path class="cls-30" d="M18.29,199.75c-.05,.8-.73,1.41-1.53,1.37-.8-.05-1.41-.73-1.37-1.53,.05-.8,.73-1.41,1.53-1.37,.8,.05,1.41,.73,1.37,1.53Zm-2.2-.13c-.02,.42,.3,.77,.71,.8,.42,.02,.77-.29,.8-.71,.02-.42-.3-.77-.71-.8-.42-.02-.77,.3-.8,.71Z"/><path class="cls-30" d="M8.73,176.83c-.05,.8-.73,1.41-1.53,1.37-.8-.05-1.42-.73-1.37-1.53,.05-.8,.73-1.41,1.53-1.37,.8,.05,1.41,.73,1.37,1.53Zm-2.21-.13c-.02,.42,.3,.77,.71,.8,.42,.02,.77-.3,.8-.71,.02-.42-.3-.77-.71-.8-.42-.02-.78,.3-.8,.71Z"/><path class="cls-30" d="M29.57,164.63c-.05,.8-.73,1.41-1.53,1.37-.8-.05-1.42-.73-1.37-1.53,.05-.8,.73-1.41,1.53-1.37,.8,.05,1.41,.73,1.37,1.53Zm-2.21-.13c-.02,.42,.3,.77,.71,.8,.42,.02,.77-.3,.8-.71,.02-.42-.3-.77-.71-.8-.42-.02-.78,.3-.8,.71Z"/><path class="cls-30" d="M11.5,199.37c-.05,.8-.73,1.41-1.53,1.37-.8-.05-1.41-.73-1.37-1.53,.05-.8,.73-1.41,1.53-1.37,.8,.05,1.42,.73,1.37,1.53Zm-2.21-.13c-.02,.42,.3,.77,.71,.8,.42,.02,.78-.29,.8-.71,.02-.42-.3-.77-.71-.8-.42-.02-.77,.29-.8,.71Z"/><path class="cls-30" d="M6.32,199.78c-.05,.8-.73,1.41-1.53,1.37-.8-.05-1.41-.73-1.37-1.53,.05-.8,.73-1.41,1.53-1.37,.8,.05,1.42,.73,1.37,1.53Zm-2.21-.13c-.02,.42,.3,.77,.71,.8,.42,.02,.78-.29,.8-.71,.02-.42-.3-.77-.71-.8-.42-.02-.77,.29-.8,.71Z"/><path class="cls-30" d="M20.5,210.16c-.05,.8-.73,1.41-1.53,1.37-.8-.05-1.41-.73-1.37-1.53,.05-.8,.73-1.41,1.53-1.37,.8,.05,1.42,.73,1.37,1.53Zm-2.21-.13c-.02,.42,.3,.77,.71,.8,.42,.02,.78-.29,.8-.71,.02-.42-.3-.77-.71-.8-.42-.02-.77,.29-.8,.71Z"/></g><g><path class="cls-33" d="M95.74,256.37c-.14,0-.29-.08-.36-.22-14.94-28.17-39.33-51.05-68.68-64.44-.21-.09-.29-.34-.2-.54,.09-.2,.34-.29,.54-.2,29.52,13.47,54.04,36.48,69.07,64.81,.11,.2,.03,.44-.17,.55-.06,.03-.13,.05-.19,.05Z"/><path class="cls-33" d="M16.42,194.08c-.57,0-1.14-.02-1.71-.07-.15-.01-.26-.14-.25-.29,.01-.15,.15-.28,.29-.25,4,.3,8.01-.49,11.59-2.28,.13-.07,.3-.01,.36,.12,.07,.14,.01,.3-.12,.36-3.16,1.58-6.64,2.4-10.16,2.4Z"/><path class="cls-33" d="M26.52,191.54s-.04,0-.06,0c-4.12-.97-8.33-1.61-12.53-1.9-.15,0-.26-.14-.25-.29,.01-.15,.14-.28,.29-.25,4.22,.3,8.47,.94,12.62,1.92,.15,.03,.24,.18,.2,.33-.03,.13-.14,.21-.26,.21Z"/><path class="cls-33" d="M26.54,191.49c-.06,0-.12-.02-.17-.06-3.07-2.54-6.53-4.51-10.27-5.86-.14-.05-.21-.21-.16-.35,.05-.14,.21-.22,.35-.16,3.81,1.37,7.32,3.38,10.44,5.95,.12,.1,.13,.27,.04,.38-.05,.07-.13,.1-.21,.1Z"/><path class="cls-33" d="M26.64,191.5c-.13,0-.24-.09-.27-.22-.42-2.37-1.47-4.57-3.05-6.38-1.58-1.81-3.63-3.15-5.91-3.88-.14-.05-.22-.2-.18-.34,.05-.14,.2-.22,.34-.18,2.38,.76,4.51,2.16,6.16,4.04,1.64,1.88,2.74,4.18,3.18,6.65,.03,.15-.07,.29-.22,.31-.02,0-.03,0-.05,0Z"/><path class="cls-33" d="M26.87,191.65s-.08,0-.13-.03c-.13-.07-.18-.23-.12-.37,1.75-3.37,2.93-6.93,3.42-10.29,.48-3.34,.26-6.35-.65-8.7-.05-.14,.02-.3,.16-.35,.14-.05,.3,.02,.35,.16,.94,2.44,1.18,5.54,.68,8.97-.5,3.42-1.7,7.04-3.48,10.46-.05,.09-.14,.15-.24,.15Z"/><path class="cls-33" d="M26.87,191.65h-.01c-.15,0-.27-.13-.26-.28,.13-2.74,.26-5.58-.03-8.42-.29-2.81-1.58-9.42-2.92-11.51-.08-.13-.05-.29,.08-.37,.13-.08,.29-.05,.37,.08,1.41,2.19,2.71,8.81,3.01,11.75,.3,2.89,.16,5.74,.04,8.5,0,.14-.13,.26-.27,.26Z"/><path class="cls-33" d="M15.1,205.54c-.13,0-.25-.1-.27-.23-.02-.15,.08-.28,.23-.31,5.44-.76,10.99-10.39,11.69-13.55,.03-.15,.18-.24,.32-.21,.15,.03,.24,.18,.21,.32-.68,3.06-6.23,13.15-12.15,13.97-.01,0-.03,0-.04,0Z"/><path class="cls-33" d="M20.36,196.71c-.11,0-.21-.07-.26-.18-.05-.14,.02-.3,.16-.35,2.59-.93,4.85-2.71,6.37-5,.08-.13,.25-.16,.38-.08,.13,.08,.16,.25,.08,.38-1.59,2.39-3.94,4.24-6.63,5.21-.03,.01-.06,.02-.09,.02Z"/><path class="cls-33" d="M28.17,209.08s-.08,0-.12-.03c-.14-.06-.19-.22-.13-.36,2.09-4.45,1.29-13.34-1.5-16.7-.1-.12-.08-.29,.03-.38,.12-.1,.29-.08,.38,.03,2.95,3.55,3.78,12.59,1.58,17.28-.05,.1-.14,.16-.25,.16Z"/></g></g><g><path class="cls-33" d="M80.4,233.05c-.08,0-.16-.04-.21-.1-5.75-7.3-9.2-16.36-9.74-25.52-.53-9.16,1.85-18.55,6.71-26.43,.08-.13,.25-.17,.37-.09,.13,.08,.17,.25,.09,.37-4.8,7.79-7.15,17.07-6.62,26.12,.53,9.05,3.95,18,9.62,25.21,.09,.12,.07,.29-.05,.38-.05,.04-.11,.06-.17,.06Z"/><g><path class="cls-16" d="M61.86,187.96s.4,4.86,4.61,6.98c3.01,1.52,4.98-.76,4.98-.76-2-9.52-9.59-6.22-9.59-6.22Z"/><path class="cls-5" d="M61.86,187.96l9.59,6.22c-2-9.52-9.59-6.22-9.59-6.22Z"/></g><g><path class="cls-16" d="M60.67,198.12s.4,4.86,4.61,6.98c3.01,1.51,4.98-.76,4.98-.76-2-9.52-9.59-6.22-9.59-6.22Z"/><path class="cls-5" d="M60.67,198.12l9.59,6.22c-2-9.52-9.59-6.22-9.59-6.22Z"/></g><g><path class="cls-16" d="M61.84,210.26s.4,4.86,4.61,6.98c3.01,1.51,4.98-.76,4.98-.76-2-9.52-9.59-6.22-9.59-6.22Z"/><path class="cls-5" d="M61.84,210.26l9.59,6.22c-2-9.52-9.59-6.22-9.59-6.22Z"/></g><g><path class="cls-16" d="M82.18,174.3s-4.87,.33-7.05,4.51c-1.56,2.99,.69,4.99,.69,4.99,9.55-1.86,6.36-9.5,6.36-9.5Z"/><path class="cls-5" d="M82.18,174.3l-6.36,9.5c9.55-1.86,6.36-9.5,6.36-9.5Z"/></g><g><path class="cls-16" d="M72.75,194.38s4.58,1.67,8.27-1.26c2.63-2.1,1.39-4.84,1.39-4.84-9.48-2.17-9.66,6.1-9.66,6.1Z"/><path class="cls-5" d="M72.75,194.38l9.66-6.1c-9.48-2.17-9.66,6.1-9.66,6.1Z"/></g><g><path class="cls-16" d="M71.2,204.38s4.58,1.67,8.27-1.26c2.63-2.1,1.39-4.84,1.39-4.84-9.48-2.17-9.66,6.1-9.66,6.1Z"/><path class="cls-5" d="M71.2,204.38l9.66-6.1c-9.48-2.17-9.66,6.1-9.66,6.1Z"/></g><g><path class="cls-16" d="M72.76,216.25s4.58,1.67,8.27-1.26c2.63-2.1,1.39-4.84,1.39-4.84-9.48-2.17-9.66,6.11-9.66,6.11Z"/><path class="cls-5" d="M72.76,216.25l9.66-6.1c-9.48-2.17-9.66,6.1-9.66,6.1Z"/></g></g><g><path class="cls-33" d="M83.04,236.45s-.1-.01-.14-.04c-7.61-4.64-15.42-7.12-23.23-7.36-.43-.01-.87-.02-1.3-.02-8.63,0-17.33,2.59-24.62,7.37-.12,.08-.29,.05-.38-.08-.08-.13-.05-.29,.08-.38,7.75-5.08,17.08-7.71,26.24-7.44,7.9,.24,15.81,2.74,23.5,7.44,.13,.08,.17,.24,.09,.37-.05,.08-.14,.13-.23,.13Z"/><g><path class="cls-16" d="M39.98,220.46s4.87,.26,7.11,4.41c1.6,2.96-.62,5-.62,5-9.57-1.73-6.49-9.41-6.49-9.41Z"/><path class="cls-5" d="M39.98,220.46l6.49,9.41c-9.57-1.73-6.49-9.41-6.49-9.41Z"/></g><g><path class="cls-16" d="M50.1,219s4.87,.26,7.11,4.41c1.6,2.96-.62,5-.62,5-9.57-1.73-6.49-9.41-6.49-9.41Z"/><path class="cls-5" d="M50.1,219l6.49,9.41c-9.57-1.73-6.49-9.41-6.49-9.41Z"/></g><g><path class="cls-16" d="M62.27,219.83s4.87,.26,7.11,4.41c1.6,2.96-.62,5-.62,5-9.57-1.73-6.49-9.41-6.49-9.41Z"/><path class="cls-5" d="M62.27,219.83l6.49,9.41c-9.57-1.73-6.49-9.41-6.49-9.41Z"/></g><g><path class="cls-16" d="M26.89,241.15s.19-4.87,4.31-7.17c2.94-1.64,5.01,.55,5.01,.55-1.59,9.6-9.32,6.62-9.32,6.62Z"/><path class="cls-5" d="M26.89,241.15l9.32-6.62c-1.59,9.6-9.32,6.62-9.32,6.62Z"/></g><g><path class="cls-16" d="M46.69,231.17s1.8,4.53-1.03,8.3c-2.02,2.69-4.8,1.53-4.8,1.53-2.44-9.42,5.83-9.83,5.83-9.83Z"/><path class="cls-5" d="M46.69,231.17l-5.83,9.83c-2.44-9.42,5.83-9.83,5.83-9.83Z"/></g><g><path class="cls-16" d="M56.65,229.34s1.8,4.53-1.03,8.3c-2.02,2.69-4.8,1.53-4.8,1.53-2.43-9.42,5.83-9.83,5.83-9.83Z"/><path class="cls-5" d="M56.65,229.34l-5.83,9.83c-2.43-9.42,5.83-9.83,5.83-9.83Z"/></g><g><path class="cls-16" d="M68.56,230.58s1.8,4.53-1.03,8.3c-2.02,2.69-4.8,1.53-4.8,1.53-2.44-9.42,5.83-9.83,5.83-9.83Z"/><path class="cls-5" d="M68.56,230.58l-5.83,9.83c-2.44-9.42,5.83-9.83,5.83-9.83Z"/></g></g></g></g><g><rect class="cls-31" x="290.52" y="23.39" width="154.5" height="256.7" rx="4.76" ry="4.76"/><rect class="cls-23" x="285.94" y="27.71" width="151.51" height="252.37" rx="4.66" ry="4.66"/><rect class="cls-27" x="266.12" y="23.39" width="154.5" height="256.7" rx="4.76" ry="4.76"/><path class="cls-35" d="M297.71,53.75h91.33c2.43,0,4.4,1.97,4.4,4.4v50.11c0,2.43-1.97,4.4-4.4,4.4h-91.33c-2.43,0-4.4-1.97-4.4-4.4V58.15c0-2.43,1.97-4.4,4.4-4.4Z"/></g><g><g><path class="cls-26" d="M415.95,219.62c-3.33-.9-.11-10.49-4.01-7.96-5.18,3.35,1.85-12.47-3.74-8.17-.8,.61-2.7,.34-2.6-3.24,.09-3.66-2.08-3.64-2.72-3.01-2.74,2.72-2.44-3.41-4.27-4.03-3.48-1.18-.3,8.61-.3,8.72-.05,1.46-1.53,.62-1.96,.72-1.75,.43,.66,5.06,2.75,6.89,2.32,2.02,2,3.3,.27,3.73-.47,.11-.7,.66-.47,1.08,2.59,4.85,7.77,3.79,4.83,6.53-1.49,1.39,3.59,3.6,4.37,4.23,2.52,2.05,3.93,5.53,5.52,5.9,3.91,.9,4.92-10.7,2.33-11.4Z"/><path class="cls-20" d="M413.84,227.46c1.38-2.19,2.35-4.62,2.89-7.14-.12-.21-.26-.38-.42-.5-.49,2.54-1.44,4.99-2.81,7.2-1.56-2.05-3.06-4.15-4.41-6.33,1.41-1.1,2.12-2.83,2.67-4.55,.51-1.6,.92-3.24,1.26-4.9-.16,0-.34,.04-.55,.13-.32,1.55-.72,3.1-1.2,4.6-.52,1.63-1.18,3.25-2.46,4.27-.04-.06-.08-.12-.12-.19-1.59-2.62-2.95-5.36-4.17-8.15,2.54-2.41,4.53-5.35,5.86-8.57-.08-.24-.19-.42-.36-.51-1.28,3.22-3.23,6.16-5.73,8.57-.59-1.37-1.15-2.76-1.68-4.15,0-.05-.02-.08-.05-.12-.42-1.11-.82-2.23-1.21-3.35,1.53-1.92,2.65-4.17,3.28-6.55-.15-.11-.31-.19-.47-.24-.58,2.24-1.6,4.37-3.01,6.2-1.14-3.34-2.16-6.72-3.17-10.06-.19,.02-.35,.09-.48,.2,1.33,4.43,2.7,8.92,4.32,13.32-1.31-.76-2.62-1.57-3.77-2.56-.51-.44-.95-.91-1.35-1.4-.14-.03-.27-.05-.35-.03-.09,.02-.17,.06-.24,.11,.46,.59,.98,1.17,1.6,1.7,1.35,1.17,2.9,2.07,4.41,2.94,.56,1.49,1.17,2.97,1.8,4.43-.02,.08,0,.16,.05,.22,.02,.02,.04,.03,.06,.04,.42,.97,.87,1.93,1.33,2.88-2.19-.01-4.37-.54-6.33-1.52-.13,.12-.2,.29-.22,.47,2.1,1.05,4.46,1.6,6.81,1.57,.81,1.64,1.67,3.25,2.62,4.82,.09,.15,.19,.29,.28,.44,0,0,0,.01,0,.02,0,0,0,0,.01,.01,.49,.79,.99,1.56,1.51,2.33-2.01,.07-4-.7-5.77-1.39l-.82-.32c-.01,.21,.06,.42,.21,.64l.42,.17c1.91,.75,4.07,1.6,6.3,1.42,.91,1.32,1.86,2.62,2.84,3.89-.02,.1,0,.21,.09,.27,.04,.03,.09,.03,.14,.03,.67,.87,1.34,1.72,2.02,2.57,.12-.12,.23-.26,.34-.41-.67-.83-1.33-1.67-1.98-2.52Z"/></g><g><path class="cls-35" d="M429.47,165.06c-2.63-1.69,3.38-12.7-.45-10.5-4.83,2.78,1.68-10.9-4.02-10.33-2.84,.28-2.28,4.51-2.73,5.81-.77,2.24-3.41,3.23-4.74,5.19-2.96,4.33,1.74,11.84-2.24,12.97-.81,.23-2.3-.19-2.56,2.64-.58,6.22,2.44,8.68,.6,10.8-.95,1.09-8.32,1.19-1.61,16.3,3.56,8.02-2.56,5.7-3.9,6.86-1.42,1.22-.18,3.33,3.52,13.46-1.08-1.39-4,.08-2.73,2.95,.98,2.21,5,4.79,7.16,8,.7,1.04,.87,2.79,5.86-.32,6.72-4.18,8.13-12.26,6.78-13.76-.45-.5-1.46-.49-1.67,.15,.46-2.35,7.09-9.83,1.94-11.54-4.04-1.34,3.37-8.22,3.04-11.44-.12-1.19-1.56-.71-2.7-1.09-1.63-.55,3.34-6.71,3.78-10.48,.22-1.9-2.93-2.01-3.08-3.92-.19-2.46,4.61-8.06,2.99-12.3-.29-.76-2.56,.98-3.24,.54Z"/><path class="cls-20" d="M422.13,164.4c3.06-2.86,5.81-6.01,8.21-9.41-.01-.29-.08-.49-.21-.61-2.31,3.31-4.94,6.38-7.88,9.19,.94-6.6,2.06-13.04,3.31-19.34-.17-.01-.34-.01-.54,0-1.09,5.47-2.08,11.04-2.93,16.74-1.19-2.47-2.02-5.11-2.49-7.8-.16,.13-.31,.26-.46,.39,.53,2.85,1.44,5.63,2.76,8.23,.01,.03,.04,.04,.06,.05-.12,.8-.22,1.6-.34,2.4,0,.02,0,.03,0,.05-.54,3.83-1.02,7.7-1.45,11.61-.06,.08-.08,.17-.03,.26,0,0,0,0,0,0-.12,1.06-.23,2.12-.34,3.18-2.81-3.03-4.95-6.66-6.33-10.55-.14,.13-.26,.31-.37,.53,1.44,3.94,3.67,7.6,6.56,10.65,.02,.02,.04,.03,.07,.04-.33,3.32-.61,6.68-.87,10.05-.09,.08-.12,.21-.06,.32,0,.01,.02,.01,.03,.02-.16,2.22-.31,4.45-.44,6.69-2.37-3.02-5.02-6.61-7.12-10.6-.45-.86-.85-1.71-1.23-2.57-.12,.16-.23,.33-.34,.51,.34,.76,.71,1.53,1.11,2.3,2.22,4.23,5.05,8,7.53,11.14,0,0,0,0,0,0-.04,.8-.09,1.6-.13,2.4-.04,.07-.06,.15-.02,.23,0,0,0,0,0,0-.19,3.72-.33,7.46-.43,11.21-.06,.07-.09,.16-.05,.26,0,.02,.03,.03,.04,.05-.04,1.58-.06,3.16-.08,4.75-4.1-3.23-7.5-7.29-9.99-11.86-.14,.15-.25,.31-.32,.49,2.57,4.64,6.08,8.76,10.3,12.02-.03,2.63-.05,5.26-.04,7.89,0,0,0,0,0,0-.06,.04-.1,.1-.12,.17-.02-.02-.03-.06-.06-.07-3.27-1.81-6.18-4.23-8.6-7.08-.12,.13-.22,.28-.3,.44,2.45,2.85,5.38,5.28,8.66,7.09,.06,.03,.13,.04,.19,.02,.07-.02,.13-.06,.17-.13,.01-.02,0-.05,0-.07,.02,.03,.05,.06,.08,.07,0,1.61,.03,3.23,.06,4.85,.16-.01,.33-.04,.52-.09-.03-1.64-.05-3.29-.06-4.93,4.21-2.47,7.81-6.05,10.42-10.21-.05-.1-.1-.2-.17-.27-.05-.06-.12-.11-.18-.15-2.51,4.07-6,7.57-10.07,10.03-.01-2.49,0-4.98,.03-7.46,0,0,.02,0,.02-.02,.07-.1,.05-.22-.02-.31,.02-1.74,.05-3.47,.09-5.2,4.27-1.87,8.15-4.49,11.47-7.71-.13-.11-.28-.2-.44-.29-3.2,3.08-6.92,5.6-11.01,7.41,.09-3.65,.24-7.28,.42-10.89,4.72-2.19,9.06-5.12,12.86-8.65-.1-.16-.24-.26-.42-.33-3.68,3.4-7.86,6.24-12.41,8.38,.17-3.22,.38-6.43,.61-9.61,4.73-3.01,9.09-6.75,12.84-10.97-.13-.11-.27-.22-.41-.32-3.63,4.08-7.83,7.69-12.38,10.64,.35-4.55,.76-9.06,1.25-13.51,4.8-2.6,9.01-6.22,12.32-10.54-.03-.24-.08-.47-.15-.7-3.24,4.33-7.36,7.98-12.11,10.6,.42-3.75,.89-7.47,1.4-11.14Z"/></g><g><path class="cls-12" d="M412.8,214.63c-1.53-9.99,7.34,.18,5.62-11.91-.63-4.47,.27-17.86,4.67-14.14,1.3,1.1,4.57,1.2,4.25-5-.28-5.52,2.5-15.56,5.74-15.21,1.42,.15,3.06,3.15,5.26,.51,1.23-1.47,2.88-10.17,9.63-10.55,3.58-.2-.59,6.57,.13,9.84,1.02,4.63,6.99,.27,1.7,8.67-5.76,9.13,6.74,5.74-3.91,14.75-4.7,3.97-4.07,5.76-1.24,5.4,5.29-.68-3.65,9.08-5.34,10.93-3.35,3.67-.55,3.05,.57,6.55,.94,2.97-20.79,20.12-23.45,10.4-.97-3.55-3.05-6.5-3.63-10.26Z"/><path class="cls-20" d="M451.88,171.69c-3.6,2.91-7.73,5.11-12.19,6.46l8.25-19.8c-.21,.01-.4,.05-.6,.08l-3.76,9.03c-.1-2.56,.05-5.14,.45-7.68-.21,.16-.41,.32-.61,.5-.38,2.64-.5,5.33-.33,7.98h.16s-7,16.79-7,16.79c-2.49-5.15-3.57-10.96-3.19-16.67-.18-.01-.35,0-.52,.04-.38,5.86,.76,11.82,3.35,17.08l.22-.11-2.54,6.09s-.05,.02-.08,.03l.03,.09-1.78,4.28c-2.82-6.65-3.89-14.01-3.12-21.18-.29,.96-.53,1.97-.73,2.97-.23,6.45,.97,12.96,3.57,18.88l-3.47,8.33s-.04,.01-.06,.02l.02,.08-1.22,2.93c-3.06-6.15-4.96-12.96-5.59-19.85-.17,.07-.34,.18-.49,.32,.67,7.01,2.65,13.93,5.81,20.17l-5.94,14.26c-2.95-3.86-5.08-8.37-6.27-13.11-.17,.05-.33,.11-.49,.19,1.23,4.88,3.44,9.52,6.52,13.47l-1.72,4.12c.16,.07,.32,.13,.49,.18l4.28-10.28c1.27-.03,2.54-.12,3.81-.28,4.26-.55,8.41-1.85,12.24-3.79-.09-.16-.18-.31-.27-.45-4.81,2.43-10.15,3.83-15.54,3.99l4.8-11.53c6.35-1.42,12.42-3.92,17.94-7.34,.01-.21-.02-.4-.1-.55-5.41,3.37-11.36,5.86-17.59,7.29l5.34-12.82c5.63-1.78,10.95-4.26,15.91-7.38-.1-.14-.2-.28-.31-.42-4.78,3.01-9.91,5.42-15.33,7.17l5.2-12.49c4.58-1.33,8.83-3.55,12.54-6.49,.02-.24-.01-.43-.08-.6Z"/></g><path class="cls-17" d="M425.35,245.72c.19,0,.36-.11,.44-.28,1.89-4.27,3.06-10.05,3.06-16.4,0-1.31-.06-2.6-.15-3.85-.02-.25-.23-.44-.48-.44h-20.98c-.25,0-.46,.19-.48,.44-.1,1.25-.15,2.54-.15,3.85,0,6.36,1.16,12.13,3.06,16.4,.08,.17,.25,.28,.44,.28h15.25Z"/></g><g><rect class="cls-11" x="312.2" y="244.99" width="88.49" height="35.17"/><path class="cls-20" d="M398.88,246.59h47.75v31.97h-47.75c-4.29,0-7.78-3.49-7.78-7.78v-16.41c0-4.29,3.49-7.78,7.78-7.78Z"/><path class="cls-18" d="M446.64,280.15h-48.14c-4.96,0-8.99-4.03-8.99-8.99v-17.18c0-4.96,4.03-8.99,8.99-8.99h48.14c.88,0,1.6,.71,1.6,1.6s-.71,1.6-1.6,1.6h-48.14c-3.2,0-5.8,2.6-5.8,5.8v17.18c0,3.2,2.6,5.8,5.8,5.8h48.14c.88,0,1.6,.71,1.6,1.6s-.71,1.6-1.6,1.6Z"/><path class="cls-32" d="M374.26,271.16v-17.18c0-4.96,4.03-8.99,8.99-8.99h-12.52c-4.96,0-8.99,4.03-8.99,8.99v17.18c0,4.96,4.03,8.99,8.99,8.99h12.52c-4.96,0-8.99-4.03-8.99-8.99Z"/><path class="cls-17" d="M413.43,274.03c1.03-3.82,1.52-11.46-.29-14.75h-7.37c1.93,3.73,1.33,13.66,.83,15.24,0,0,2.98-1.63,4.35-3.29,1.04,.83,2.48,2.8,2.48,2.8Z"/></g><g><path class="cls-22" d="M262.52,280.15h-107.84c-1.99,0-3.61-1.62-3.61-3.61h0c0-1.99,1.62-3.61,3.61-3.61h107.84c1.99,0,3.61,1.62,3.61,3.61h0c0,1.99-1.62,3.61-3.61,3.61Z"/><rect class="cls-13" x="189.95" y="257.27" width="37.29" height="16.51"/><rect class="cls-22" x="96.42" y="121.74" width="224.36" height="136.3" rx="8.76" ry="8.76"/><rect class="cls-34" x="144.98" y="82.24" width="127.24" height="215.3" rx="5.07" ry="5.07" transform="translate(398.49 -18.7) rotate(90)"/></g><g><path class="cls-31" d="M164.65,149.58c-1.16,1.85-11.89,3.87-10.98,7.99,1.88,8.54-5.03,12.42,2.1,20.24,1.81,1.99,11.28,6.41,9.64,10.79-.88,2.36-12.05,2.02-14.84,7.21-2.79,5.2-13.68,9.19-10.39,16.22,3.29,7.04-.13,13.45,1.77,17.39,3.95,8.16,23.45,13.57,36.25,.69,12.8-12.88,7.42-27.68,7.71-31.88,.28-4.2-6.56-6.74-7.71-9.14-1.14-2.41-.49-4.67,0-5.75,.93-2.04,10.26-6.83,11.17-9.17,2.02-5.2-4.05-20.5-10.23-26.77-2.52-2.55-11.02-3.33-14.48,2.19Z"/><path class="cls-17" d="M162.78,196.32s-14.58,5.25-16.18,7.42c-1.6,2.17-12.85,49.77-12.85,49.77h9.99l11-26.76,6.51,26.76h26.18l2.39-20.07s3.17-2.48,4.04-4.93c1.31-3.67,.49-8.06,.49-8.06,0,0,18.37,19.34,20.64,19.34,3.86,0,34.03-24.54,35.83-29.4,1.49-4.03-2.4-4.47-4.93-1.9-2.53,2.57-29.57,16.66-30.24,16.43-.67-.23-17.58-23.93-19.18-24.87-1.6-.93-16.51-6.26-16.51-6.26l-17.18,2.53Z"/><path class="cls-21" d="M165.88,176.48c0,6.51-.5,12.92-1.7,17.31-.54,1.99-2.94,2.99-2.94,2.99,0,0,3.94,7.93,10.33,7.93s8.39-10.92,8.39-10.92c0,0-2.43-.83-2.8-2.43-.64-2.8-.13-17.28-.13-17.28l-11.15,2.4Z"/><path class="cls-6" d="M165.88,176.48c0,5.3-.34,10.52-1.11,14.65,2.27,3.13,5.08,5.34,8.15,5.34,2.24,0,4.35-1.19,6.21-3.05-.74-.39-1.74-1.08-1.97-2.06-.64-2.8-.13-17.28-.13-17.28l-11.15,2.4Z"/><path class="cls-21" d="M181.79,169.6c0,7.89-4.55,20.94-10.16,20.94s-10.16-13.04-10.16-20.94c0,0,1.1-4.15,4.61-4.91,3.92-.85,5.54-4.8,5.54-4.8,5.61,0,10.16,1.82,10.16,9.72Z"/><path class="cls-31" d="M173.34,161.96c4.58,1.49,7.95,6.43,7.86,8.03-.08-5.17-1.42-6.47-3.23-7.86-2.97-2.27-4.23-4.07-5.34-4.11-5.26-.2-1.39,3.26,.7,3.94Z"/><path class="cls-21" d="M246.69,208.49c-.3-4.42,1.93-6.22,8.59-6.02,5.33,.16,13.52-2.75,12.72-.48-.8,2.27-7.4,6.99-10.56,6.5-3.16-.49-4.76,1.1-6.62,1.9s-4.05-.77-4.13-1.9Z"/><path class="cls-9" d="M178.2,230.11c-3.26,5.68-15.2,5.12-18.25-.74-1.89-3.62-6-9.82-6-9.82l-14.04,33.96h3.84l11-26.76,6.51,26.76h4.85l-.9-15.21c10.79-1.4,13-8.19,13-8.19Z"/></g><rect class="cls-12" x="100.94" y="241.69" width="215.3" height="5.71"/><g><rect class="cls-11" x="82.95" y="263.97" width="16.12" height="16.12" rx="1.01" ry="1.01" transform="translate(363.04 181.02) rotate(90)"/><rect class="cls-11" x="98.99" y="247.85" width="16.12" height="16.12" rx="1.01" ry="1.01" transform="translate(362.96 148.86) rotate(90)"/><rect class="cls-17" x="98.99" y="231.73" width="16.12" height="16.12" rx="1.01" ry="1.01" transform="translate(346.84 132.74) rotate(90)"/><rect class="cls-28" x="98.99" y="263.97" width="16.12" height="16.12" rx="1.01" ry="1.01" transform="translate(379.08 164.98) rotate(90)"/><rect class="cls-27" x="66.83" y="263.97" width="16.12" height="16.12" rx="1.01" ry="1.01" transform="translate(346.92 197.14) rotate(90)"/><rect class="cls-27" x="66.83" y="231.73" width="16.12" height="16.12" rx="1.01" ry="1.01" transform="translate(314.68 164.89) rotate(90)"/><rect class="cls-28" x="82.95" y="247.85" width="16.12" height="16.12" rx="1.01" ry="1.01" transform="translate(346.92 164.89) rotate(90)"/><rect class="cls-17" x="66.83" y="247.85" width="16.12" height="16.12" rx="1.01" ry="1.01" transform="translate(330.8 181.02) rotate(90)"/><rect class="cls-11" x="82.95" y="231.73" width="16.12" height="16.12" rx="1.01" ry="1.01" transform="translate(330.8 148.77) rotate(90)"/></g><g><g><rect class="cls-3" x="270.12" y="221.61" width="83.83" height="58.54" rx="1.06" ry="1.06"/><path class="cls-11" d="M352.87,221.61h-81.67c-.6,0-1.08,.42-1.08,.95v14.04h83.83v-14.04c0-.52-.48-.95-1.08-.95Z"/><g><g><path class="cls-12" d="M283.63,246.44c0,.61-.52,1.11-1.16,1.11h-6.77c-.64,0-1.16-.5-1.16-1.11v-3.65c0-.61,.52-1.11,1.16-1.11h6.77c.64,0,1.16,.5,1.16,1.11v3.65Z"/><path class="cls-12" d="M297.01,246.44c0,.61-.52,1.11-1.15,1.11h-6.77c-.64,0-1.16-.5-1.16-1.11v-3.65c0-.61,.52-1.11,1.16-1.11h6.77c.64,0,1.15,.5,1.15,1.11v3.65Z"/><path class="cls-12" d="M310.4,246.44c0,.61-.52,1.11-1.15,1.11h-6.77c-.64,0-1.15-.5-1.15-1.11v-3.65c0-.61,.52-1.11,1.15-1.11h6.77c.64,0,1.15,.5,1.15,1.11v3.65Z"/><path class="cls-12" d="M323.78,246.44c0,.61-.52,1.11-1.15,1.11h-6.77c-.64,0-1.16-.5-1.16-1.11v-3.65c0-.61,.52-1.11,1.16-1.11h6.77c.64,0,1.15,.5,1.15,1.11v3.65Z"/><path class="cls-11" d="M337.17,246.44c0,.61-.52,1.11-1.15,1.11h-6.77c-.64,0-1.16-.5-1.16-1.11v-3.65c0-.61,.52-1.11,1.16-1.11h6.77c.64,0,1.15,.5,1.15,1.11v3.65Z"/><path class="cls-17" d="M350.55,246.44c0,.61-.52,1.11-1.16,1.11h-6.77c-.64,0-1.16-.5-1.16-1.11v-3.65c0-.61,.52-1.11,1.16-1.11h6.77c.64,0,1.16,.5,1.16,1.11v3.65Z"/></g><g><path class="cls-12" d="M283.63,256.16c0,.61-.52,1.11-1.16,1.11h-6.77c-.64,0-1.16-.5-1.16-1.11v-3.65c0-.61,.52-1.11,1.16-1.11h6.77c.64,0,1.16,.5,1.16,1.11v3.65Z"/><path class="cls-12" d="M297.01,256.16c0,.61-.52,1.11-1.15,1.11h-6.77c-.64,0-1.16-.5-1.16-1.11v-3.65c0-.61,.52-1.11,1.16-1.11h6.77c.64,0,1.15,.5,1.15,1.11v3.65Z"/><path class="cls-12" d="M310.4,256.16c0,.61-.52,1.11-1.15,1.11h-6.77c-.64,0-1.15-.5-1.15-1.11v-3.65c0-.61,.52-1.11,1.15-1.11h6.77c.64,0,1.15,.5,1.15,1.11v3.65Z"/><path class="cls-12" d="M323.78,256.16c0,.61-.52,1.11-1.15,1.11h-6.77c-.64,0-1.16-.5-1.16-1.11v-3.65c0-.61,.52-1.11,1.16-1.11h6.77c.64,0,1.15,.5,1.15,1.11v3.65Z"/><path class="cls-11" d="M337.17,256.16c0,.61-.52,1.11-1.15,1.11h-6.77c-.64,0-1.16-.5-1.16-1.11v-3.65c0-.61,.52-1.11,1.16-1.11h6.77c.64,0,1.15,.5,1.15,1.11v3.65Z"/><path class="cls-17" d="M350.55,256.16c0,.61-.52,1.11-1.16,1.11h-6.77c-.64,0-1.16-.5-1.16-1.11v-3.65c0-.61,.52-1.11,1.16-1.11h6.77c.64,0,1.16,.5,1.16,1.11v3.65Z"/></g><g><path class="cls-12" d="M283.63,265.88c0,.61-.52,1.11-1.16,1.11h-6.77c-.64,0-1.16-.5-1.16-1.11v-3.65c0-.61,.52-1.11,1.16-1.11h6.77c.64,0,1.16,.5,1.16,1.11v3.65Z"/><path class="cls-12" d="M297.01,265.88c0,.61-.52,1.11-1.15,1.11h-6.77c-.64,0-1.16-.5-1.16-1.11v-3.65c0-.61,.52-1.11,1.16-1.11h6.77c.64,0,1.15,.5,1.15,1.11v3.65Z"/><path class="cls-12" d="M310.4,265.88c0,.61-.52,1.11-1.15,1.11h-6.77c-.64,0-1.15-.5-1.15-1.11v-3.65c0-.61,.52-1.11,1.15-1.11h6.77c.64,0,1.15,.5,1.15,1.11v3.65Z"/><path class="cls-12" d="M323.78,265.88c0,.61-.52,1.11-1.15,1.11h-6.77c-.64,0-1.16-.5-1.16-1.11v-3.65c0-.61,.52-1.11,1.16-1.11h6.77c.64,0,1.15,.5,1.15,1.11v3.65Z"/><path class="cls-11" d="M337.17,265.88c0,.61-.52,1.11-1.15,1.11h-6.77c-.64,0-1.16-.5-1.16-1.11v-3.65c0-.61,.52-1.11,1.16-1.11h6.77c.64,0,1.15,.5,1.15,1.11v3.65Z"/><path class="cls-17" d="M350.55,265.88c0,.61-.52,1.11-1.16,1.11h-6.77c-.64,0-1.16-.5-1.16-1.11v-3.65c0-.61,.52-1.11,1.16-1.11h6.77c.64,0,1.16,.5,1.16,1.11v3.65Z"/></g><g><path class="cls-12" d="M283.63,275.6c0,.61-.52,1.11-1.16,1.11h-6.77c-.64,0-1.16-.5-1.16-1.11v-3.65c0-.61,.52-1.11,1.16-1.11h6.77c.64,0,1.16,.5,1.16,1.11v3.65Z"/><path class="cls-12" d="M297.01,275.6c0,.61-.52,1.11-1.15,1.11h-6.77c-.64,0-1.16-.5-1.16-1.11v-3.65c0-.61,.52-1.11,1.16-1.11h6.77c.64,0,1.15,.5,1.15,1.11v3.65Z"/><path class="cls-12" d="M310.4,275.6c0,.61-.52,1.11-1.15,1.11h-6.77c-.64,0-1.15-.5-1.15-1.11v-3.65c0-.61,.52-1.11,1.15-1.11h6.77c.64,0,1.15,.5,1.15,1.11v3.65Z"/><path class="cls-12" d="M323.78,275.6c0,.61-.52,1.11-1.15,1.11h-6.77c-.64,0-1.16-.5-1.16-1.11v-3.65c0-.61,.52-1.11,1.16-1.11h6.77c.64,0,1.15,.5,1.15,1.11v3.65Z"/><path class="cls-11" d="M337.17,275.6c0,.61-.52,1.11-1.15,1.11h-6.77c-.64,0-1.16-.5-1.16-1.11v-3.65c0-.61,.52-1.11,1.16-1.11h6.77c.64,0,1.15,.5,1.15,1.11v3.65Z"/><path class="cls-17" d="M350.55,275.6c0,.61-.52,1.11-1.16,1.11h-6.77c-.64,0-1.16-.5-1.16-1.11v-3.65c0-.61,.52-1.11,1.16-1.11h6.77c.64,0,1.16,.5,1.16,1.11v3.65Z"/></g></g><rect class="cls-31" x="274.55" y="229.83" width="30.48" height="3.88" rx=".66" ry=".66"/><rect class="cls-31" x="333.98" y="229.83" width="16.57" height="3.88" rx=".66" ry=".66"/></g><g><path class="cls-1" d="M279.15,225.55c0,1.29-1.03,2.33-2.3,2.33s-2.3-1.04-2.3-2.33,1.03-2.33,2.3-2.33,2.3,1.04,2.3,2.33Z"/><path class="cls-1" d="M291.05,225.55c0,1.29-1.03,2.33-2.3,2.33s-2.3-1.04-2.3-2.33,1.03-2.33,2.3-2.33,2.3,1.04,2.3,2.33Z"/><path class="cls-1" d="M302.95,225.55c0,1.29-1.03,2.33-2.3,2.33s-2.3-1.04-2.3-2.33,1.03-2.33,2.3-2.33,2.3,1.04,2.3,2.33Z"/><path class="cls-1" d="M314.85,225.55c0,1.29-1.03,2.33-2.3,2.33s-2.3-1.04-2.3-2.33,1.03-2.33,2.3-2.33,2.3,1.04,2.3,2.33Z"/><path class="cls-1" d="M326.75,225.55c0,1.29-1.03,2.33-2.3,2.33s-2.3-1.04-2.3-2.33,1.03-2.33,2.3-2.33,2.3,1.04,2.3,2.33Z"/><path class="cls-1" d="M338.65,225.55c0,1.29-1.03,2.33-2.3,2.33s-2.3-1.04-2.3-2.33,1.03-2.33,2.3-2.33,2.3,1.04,2.3,2.33Z"/><path class="cls-1" d="M350.55,225.55c0,1.29-1.03,2.33-2.3,2.33s-2.3-1.04-2.3-2.33,1.03-2.33,2.3-2.33,2.3,1.04,2.3,2.33Z"/></g><g><path class="cls-31" d="M276.85,226.2c-.76,0-1.38-.54-1.38-1.21v-10.89c0-.67,.62-1.21,1.38-1.21s1.38,.54,1.38,1.21v10.89c0,.67-.62,1.21-1.38,1.21Z"/><path class="cls-31" d="M288.75,226.2c-.76,0-1.38-.54-1.38-1.21v-10.89c0-.67,.62-1.21,1.38-1.21s1.38,.54,1.38,1.21v10.89c0,.67-.62,1.21-1.38,1.21Z"/><path class="cls-31" d="M300.65,226.2c-.76,0-1.38-.54-1.38-1.21v-10.89c0-.67,.62-1.21,1.38-1.21s1.38,.54,1.38,1.21v10.89c0,.67-.62,1.21-1.38,1.21Z"/><path class="cls-31" d="M312.55,226.2c-.76,0-1.38-.54-1.38-1.21v-10.89c0-.67,.62-1.21,1.38-1.21s1.38,.54,1.38,1.21v10.89c0,.67-.62,1.21-1.38,1.21Z"/><path class="cls-31" d="M324.45,226.2c-.76,0-1.38-.54-1.38-1.21v-10.89c0-.67,.62-1.21,1.38-1.21s1.38,.54,1.38,1.21v10.89c0,.67-.62,1.21-1.38,1.21Z"/><path class="cls-31" d="M336.35,226.2c-.76,0-1.38-.54-1.38-1.21v-10.89c0-.67,.62-1.21,1.38-1.21s1.38,.54,1.38,1.21v10.89c0,.67-.62,1.21-1.38,1.21Z"/><path class="cls-31" d="M348.25,226.2c-.76,0-1.38-.54-1.38-1.21v-10.89c0-.67,.62-1.21,1.38-1.21s1.38,.54,1.38,1.21v10.89c0,.67-.62,1.21-1.38,1.21Z"/></g><g><path class="cls-12" d="M276.85,219.55c-.76,0-1.38-.22-1.38-.49v-4.4c0-.27,.62-.49,1.38-.49s1.38,.22,1.38,.49v4.4c0,.27-.62,.49-1.38,.49Z"/><path class="cls-12" d="M288.75,219.55c-.76,0-1.38-.22-1.38-.49v-4.4c0-.27,.62-.49,1.38-.49s1.38,.22,1.38,.49v4.4c0,.27-.62,.49-1.38,.49Z"/><path class="cls-12" d="M300.65,219.55c-.76,0-1.38-.22-1.38-.49v-4.4c0-.27,.62-.49,1.38-.49s1.38,.22,1.38,.49v4.4c0,.27-.62,.49-1.38,.49Z"/><path class="cls-12" d="M312.55,219.55c-.76,0-1.38-.22-1.38-.49v-4.4c0-.27,.62-.49,1.38-.49s1.38,.22,1.38,.49v4.4c0,.27-.62,.49-1.38,.49Z"/><path class="cls-12" d="M324.45,219.55c-.76,0-1.38-.22-1.38-.49v-4.4c0-.27,.62-.49,1.38-.49s1.38,.22,1.38,.49v4.4c0,.27-.62,.49-1.38,.49Z"/><path class="cls-12" d="M336.35,219.55c-.76,0-1.38-.22-1.38-.49v-4.4c0-.27,.62-.49,1.38-.49s1.38,.22,1.38,.49v4.4c0,.27-.62,.49-1.38,.49Z"/><path class="cls-12" d="M348.25,219.55c-.76,0-1.38-.22-1.38-.49v-4.4c0-.27,.62-.49,1.38-.49s1.38,.22,1.38,.49v4.4c0,.27-.62,.49-1.38,.49Z"/></g></g><g><path class="cls-3" d="M81.53,96.94h45.59c1.78,0,3.23,1.45,3.23,3.23v63.38c0,1.78-1.45,3.23-3.23,3.23h-45.59c-1.78,0-3.23-1.45-3.23-3.23v-63.38c0-1.78,1.45-3.23,3.23-3.23Z" transform="translate(-27.53 236.18) rotate(-90)"/><path class="cls-31" d="M136.18,158.2h-63.7c-1.87,0-3.38-1.52-3.38-3.38v-45.91c0-1.87,1.52-3.38,3.38-3.38h63.7c1.87,0,3.38,1.52,3.38,3.38v45.91c0,1.87-1.52,3.38-3.38,3.38Zm-63.7-52.05c-1.52,0-2.76,1.24-2.76,2.76v45.91c0,1.52,1.24,2.76,2.76,2.76h63.7c1.52,0,2.76-1.24,2.76-2.76v-45.91c0-1.52-1.24-2.76-2.76-2.76h-63.7Z"/><g><path class="cls-31" d="M89.19,127.28h29.25c.97,0,1.75,.78,1.75,1.75v17.48c0,.97-.78,1.75-1.75,1.75h-29.25c-.97,0-1.75-.78-1.75-1.75v-17.48c0-.97,.78-1.75,1.75-1.75Z"/><path class="cls-31" d="M134.19,137.77c-.17,0-.31-.14-.31-.31v-9.83c0-.17,.14-.31,.31-.31s.31,.14,.31,.31v9.83c0,.17-.14,.31-.31,.31Z"/><path class="cls-27" d="M103.64,117.43l-30.19,9.42c-.57,.18-.57,.99,0,1.16l30.19,9.42c.12,.04,.25,.04,.36,0l30.19-9.42c.57-.18,.57-.99,0-1.16l-30.19-9.42c-.12-.04-.25-.04-.36,0Z"/><path class="cls-25" d="M132.07,142.8h4.25c.5,0,.83-.53,.6-.98l-2.12-4.22c-.25-.5-.96-.5-1.21,0l-2.12,4.22c-.23,.45,.1,.98,.6,.98Z"/></g></g><g><path class="cls-3" d="M369.45,198.41c2.03,0,3.67-1.64,3.67-3.67v-17.03c0-2.03-1.64-3.67-3.67-3.67s-3.67,1.64-3.67,3.67v17.03c0,2.03,1.64,3.67,3.67,3.67Z"/><path class="cls-3" d="M381.21,177.79c-1.66-1.02-3.82-.5-4.83,1.16-1.01,1.65-.5,3.82,1.16,4.83,4.65,2.86,7.43,7.8,7.43,13.22,0,8.56-6.96,15.52-15.52,15.52s-15.52-6.96-15.52-15.52c0-5.32,2.69-10.21,7.2-13.08,1.64-1.04,2.12-3.21,1.07-4.85-1.04-1.64-3.21-2.11-4.85-1.07-6.54,4.17-10.45,11.28-10.45,19.01,0,12.43,10.11,22.55,22.55,22.55s22.54-10.11,22.54-22.55c0-7.89-4.03-15.07-10.78-19.21Z"/></g><g><circle class="cls-3" cx="70.79" cy="165.13" r="17.57" transform="translate(-106.13 196.42) rotate(-76.82)"/><path class="cls-31" d="M70.79,183.01c-9.86,0-17.88-8.02-17.88-17.88s8.02-17.88,17.88-17.88,17.88,8.02,17.88,17.88-8.02,17.88-17.88,17.88Zm0-35.13c-9.51,0-17.25,7.74-17.25,17.25s7.74,17.25,17.25,17.25,17.25-7.74,17.25-17.25-7.74-17.25-17.25-17.25Z"/><path class="cls-17" d="M76.2,168.84c-.97,0-1.83,.42-2.43,1.08l-8.88-4.68c.03-.16,.05-.33,.05-.5,0-.13-.02-.25-.04-.37l8.82-3.43c.6,.83,1.57,1.37,2.67,1.37,1.82,0,3.3-1.48,3.3-3.3s-1.48-3.3-3.3-3.3-3.3,1.48-3.3,3.3c0,.13,.02,.25,.04,.37l-8.82,3.43c-.6-.83-1.57-1.37-2.67-1.37-1.82,0-3.3,1.48-3.3,3.3s1.48,3.3,3.3,3.3c1.04,0,1.96-.49,2.56-1.24l8.79,4.59c-.06,.24-.09,.49-.09,.74,0,1.82,1.48,3.3,3.3,3.3s3.3-1.48,3.3-3.3-1.48-3.3-3.3-3.3Z"/></g><g><polygon class="cls-17" points="250.49 77.59 244.46 64.17 229.87 66.08 249.18 31.49 269.8 43 250.49 77.59"/><polygon class="cls-17" points="281.76 77.59 287.79 64.17 302.38 66.08 283.06 31.49 262.45 43 281.76 77.59"/><g><circle class="cls-3" cx="266.79" cy="25.09" r="24.65" transform="translate(211.54 287.3) rotate(-83.48)"/><path class="cls-31" d="M266.79,50.18c-13.84,0-25.09-11.26-25.09-25.09S252.95,0,266.79,0s25.09,11.26,25.09,25.09-11.26,25.09-25.09,25.09Zm0-49.3c-13.35,0-24.21,10.86-24.21,24.21s10.86,24.21,24.21,24.21,24.21-10.86,24.21-24.21S280.14,.88,266.79,.88Z"/><polygon class="cls-31" points="246.78 23.18 259.06 23.18 266.33 31.2 279.64 10.92 283.35 10.92 266.33 43.43 246.78 23.18"/></g></g><g><rect class="cls-17" x="118.67" y="239" width="4.74" height="11.09" rx=".88" ry=".88"/><rect class="cls-17" x="125.16" y="239" width="4.74" height="11.09" rx=".88" ry=".88"/></g><g><rect class="cls-3" x="292.49" y="141.92" width="44.1" height="38.72" rx="3.04" ry="3.04" transform="translate(153.26 475.81) rotate(-90)"/><path class="cls-31" d="M331,183.74h-32.94c-1.82,0-3.3-1.48-3.3-3.3v-38.32c0-1.82,1.48-3.3,3.3-3.3h32.94c1.82,0,3.3,1.48,3.3,3.3v38.32c0,1.82-1.48,3.3-3.3,3.3Zm-32.94-44.1c-1.37,0-2.48,1.11-2.48,2.48v38.32c0,1.37,1.11,2.48,2.48,2.48h32.94c1.37,0,2.48-1.11,2.48-2.48v-38.32c0-1.37-1.11-2.48-2.48-2.48h-32.94Z"/><g><rect class="cls-17" x="310.84" y="173.35" width="5.19" height="5.19" rx=".76" ry=".76"/><path class="cls-17" d="M314.54,142.55c-5.4,0-8.7,3.01-8.7,8.28v.5c0,.47,.42,.85,.93,.84l3.81-.09c.49-.01,.88-.38,.88-.84,0-2.5,.99-3.68,3.03-3.68,1.71,0,2.92,.97,2.92,3.47v.72c0,1.84-.61,3.17-2.7,5.67-3.03,3.53-3.91,5.88-3.91,10.83v.79c0,.46,.41,.84,.91,.84h3.48c.5,0,.91-.38,.91-.84v-.79c0-3.37,.83-5.21,3.64-8.48,2.75-3.17,3.53-5.21,3.53-8.12v-.82c0-5.62-3.31-8.28-8.7-8.28Z"/></g></g><path class="cls-31" d="M280.24,176.93l6.52,.36c.55-2.31,.85-4.64,.93-6.94l-6.38-1.35c-.02-2.52-.37-5.03-1.02-7.45l5.82-2.91c-.7-2.25-1.61-4.41-2.72-6.48l-6.22,1.99c-1.28-2.16-2.83-4.17-4.64-5.98l3.55-5.39c-1.72-1.58-3.61-3.01-5.65-4.26l-4.35,4.79c-1.11-.62-2.23-1.17-3.44-1.67-1.19-.49-2.4-.89-3.61-1.22l.33-6.43c-2.34-.54-4.69-.85-7.04-.93l-1.33,6.3c-2.58,0-5.11,.35-7.56,.99l-2.98-5.76c-2.26,.69-4.45,1.58-6.56,2.69l2.04,6.13c-2.19,1.26-4.23,2.78-6.05,4.55l-5.48-3.51c-1.59,1.69-3.04,3.54-4.31,5.56l4.87,4.31c-.62,1.08-1.19,2.21-1.68,3.38-.49,1.18-.89,2.37-1.22,3.56l-6.52-.35c-.54,2.31-.84,4.63-.92,6.93l6.38,1.35c.02,2.52,.37,5.04,1.03,7.45l-5.83,2.92c.71,2.24,1.62,4.41,2.73,6.47l6.22-1.99c1.27,2.16,2.82,4.17,4.65,5.97l-3.56,5.39c1.72,1.58,3.61,3.01,5.65,4.26l4.36-4.78c1.09,.62,2.23,1.17,3.43,1.66,1.2,.49,2.4,.89,3.62,1.22l-.34,6.43c2.34,.54,4.69,.85,7.04,.93l1.34-6.3c2.56-.01,5.1-.35,7.55-.98l2.98,5.75c2.27-.68,4.45-1.58,6.55-2.68l-2.03-6.13c2.18-1.25,4.22-2.78,6.04-4.56l5.48,3.51c1.59-1.69,3.04-3.54,4.3-5.55l-4.86-4.31c.63-1.07,1.19-2.2,1.68-3.37,.49-1.17,.9-2.37,1.22-3.57Zm-17.65-3.16c-2.6,6.22-9.83,9.18-16.15,6.59-6.32-2.59-9.33-9.73-6.73-15.96,2.6-6.23,9.84-9.18,16.16-6.59,6.32,2.59,9.33,9.73,6.72,15.96Z"/><path class="cls-12" d="M467.73,284.92H43.41c-1.4,0-2.53-1.13-2.53-2.53h0c0-1.4,1.13-2.53,2.53-2.53H467.73c1.4,0,2.53,1.13,2.53,2.53h0c0,1.4-1.13,2.53-2.53,2.53Z"/></g></g></g></svg>