<?xml version="1.0" encoding="UTF-8"?><svg id="Layer_1" xmlns="http://www.w3.org/2000/svg" xmlns:xlink="http://www.w3.org/1999/xlink" viewBox="0 0 241.68 234.3"><defs><style>.cls-1{fill:#124c6e;}.cls-2{clip-path:url(#clippath);}.cls-3{fill:none;}</style><clipPath id="clippath"><rect class="cls-3" width="237.4" height="234.3"/></clipPath></defs><g class="cls-2"><path class="cls-1" d="M230.68,152.89c-20.5,6.9-42.6,5.6-59.6-.9,1.3,5.8,1.8,11.4,.8,18.1-24.7-12.4-54.5,5.5-54.5,33.6,0,9.2,3.3,17.7,8.9,24.3-50.6,18.4-103.7-11.6-117.4-60C-13.12,90.39,71.28,25.19,140.48,65.29c17.8,10.3,25.8,22.8,27.4,24.3,20,19.9,33.5-10.2,17.1-18.1-26.5-12.7-31.2-47.3-10.4-66.7,11.4-10.5,23,4.1,15.3,12.9-7.3,17.5,3,37.2,20.8,41.6,18,6,31,22.9,31,42.9,0,24.2-19,43.9-42.9,45.2,11.3,4.1,24.1,5.9,31.9,5.5"/></g></svg>