<?xml version="1.0" encoding="UTF-8"?><svg id="Layer_1" xmlns="http://www.w3.org/2000/svg" xmlns:xlink="http://www.w3.org/1999/xlink" viewBox="0 0 237.39 234.35"><defs><style>.cls-1{clip-path:url(#clippath);}.cls-2{fill:none;}.cls-3{fill:#324fae;}</style><clipPath id="clippath"><rect class="cls-2" width="237.39" height="234.35"/></clipPath></defs><g class="cls-1"><path class="cls-3" d="M226.26,152.76c-20.46,6.86-42.62,5.64-59.62-.91,1.29,5.83,1.84,11.44,.84,18.11-24.69-12.42-54.49,5.46-54.49,33.63,0,9.18,3.31,17.72,8.93,24.31-50.59,18.4-103.69-11.59-117.38-60.02C-17.59,90.26,66.83,25.06,135.99,65.13c17.82,10.26,25.83,22.76,27.39,24.3,19.97,19.88,33.55-10.18,17.05-18.08-26.45-12.66-31.14-47.3-10.29-66.66,11.36-10.48,23.02,4.15,15.33,12.91-7.29,17.51,3.03,37.25,20.85,41.56,18.02,5.98,30.98,22.95,30.98,42.93,0,24.19-18.99,43.94-42.89,45.17,11.19,4.12,23.99,5.9,31.85,5.5"/></g></svg>